SplineFontDB: 3.0
FontName: HarmoniaRomanNumeralsPT
FullName: Harmonia Roman Numerals PT
FamilyName: HarmoniaRNPT
Weight: Book
Copyright: As some parts of this font are based on LilyPond Emmentaler font, this font is distributed under the GNU General Public License. \n\nAs a special exception, if you create a document which uses this font, and embed this font or unaltered portions of this font into the document, this font does not by itself cause the resulting document to be covered by the GNU General Public License.
Version: v. 1.01 (2013/05/05)
ItalicAngle: 0
UnderlinePosition: -90
UnderlineWidth: 90
Ascent: 1556
Descent: 492
sfntRevision: 0x00010000
LayerCount: 2
Layer: 0 1 "Back"  1
Layer: 1 1 "Fore"  0
XUID: [1021 265 1487940342 13559412]
FSType: 0
OS2Version: 3
OS2_WeightWidthSlopeOnly: 0
OS2_UseTypoMetrics: 1
CreationTime: 1367787600
ModificationTime: 1367859979
PfmFamily: 81
TTFWeight: 400
TTFWidth: 5
LineGap: 456
VLineGap: 0
Panose: 0 0 0 0 0 0 0 0 0 0
OS2TypoAscent: 1729
OS2TypoAOffset: 0
OS2TypoDescent: -547
OS2TypoDOffset: 0
OS2TypoLinegap: 456
OS2WinAscent: 2114
OS2WinAOffset: 0
OS2WinDescent: 536
OS2WinDOffset: 0
HheadAscent: 1729
HheadAOffset: 0
HheadDescent: -547
HheadDOffset: 0
OS2SubXSize: 700
OS2SubYSize: 650
OS2SubXOff: 0
OS2SubYOff: 140
OS2SupXSize: 700
OS2SupYSize: 650
OS2SupXOff: 0
OS2SupYOff: 477
OS2StrikeYSize: 50
OS2StrikeYPos: 250
OS2Vendor: 'pyrs'
OS2CodePages: 200001df.dfd70000
OS2UnicodeRanges: e60026ff.d000f9fb.00000028.00000000
MarkAttachClasses: 1
DEI: 91125
TtTable: prep
PUSHW_1
 0
CALL
SVTCA[y-axis]
PUSHW_3
 1
 1
 2
CALL
SVTCA[x-axis]
PUSHW_3
 2
 4
 2
CALL
SVTCA[x-axis]
PUSHW_8
 2
 62
 49
 41
 30
 18
 0
 8
CALL
PUSHW_8
 3
 91
 75
 58
 42
 25
 0
 8
CALL
PUSHW_8
 4
 71
 57
 41
 30
 18
 0
 8
CALL
PUSHW_8
 5
 56
 49
 41
 30
 18
 0
 8
CALL
SVTCA[y-axis]
PUSHW_8
 1
 69
 57
 41
 30
 18
 0
 8
CALL
SVTCA[y-axis]
PUSHW_3
 6
 4
 7
CALL
PUSHW_1
 0
DUP
RCVT
RDTG
ROUND[Black]
RTG
WCVTP
EndTTInstrs
TtTable: fpgm
PUSHW_1
 0
FDEF
MPPEM
PUSHW_1
 9

StartChar: .notdef
Encoding: 1114112 -1 0
Width: 1368
Flags: W
LayerCount: 2
Fore
SplineSet
105 -362 m 1,0,-1
 105 1445 l 1,1,-1
 1129 1445 l 1,2,-1
 1129 -362 l 1,3,-1
 105 -362 l 1,0,-1
218 -248 m 1,4,-1
 1014 -248 l 1,5,-1
 1014 1330 l 1,6,-1
 218 1330 l 1,7,-1
 218 -248 l 1,4,-1
EndSplineSet
EndChar

StartChar: _.001
Encoding: 33 33 4
Width: 682
Flags: W
LayerCount: 2
Fore
SplineSet
0 2034 m 1,0,-1
 617 2034 l 1,1,-1
 617 1819 l 1,2,-1
 256 1819 l 1,3,-1
 256 -490 l 1,4,-1
 617 -490 l 1,5,-1
 617 -707 l 1,6,-1
 0 -707 l 1,7,-1
 0 2034 l 1,0,-1
EndSplineSet
EndChar

StartChar: quotedbl
Encoding: 34 34 5
Width: 0
Flags: W
LayerCount: 2
Fore
SplineSet
-41 214 m 1,0,-1
 312 214 l 1,1,-1
 312 146 l 1,2,-1
 -41 146 l 1,3,-1
 -41 214 l 1,0,-1
EndSplineSet
EndChar

StartChar: numbersign
Encoding: 35 35 6
Width: 682
Flags: W
LayerCount: 2
Fore
SplineSet
617 -707 m 1,0,-1
 0 -707 l 1,1,-1
 0 -490 l 1,2,-1
 361 -490 l 1,3,-1
 361 1819 l 1,4,-1
 0 1819 l 1,5,-1
 0 2034 l 1,6,-1
 617 2034 l 1,7,-1
 617 -707 l 1,0,-1
EndSplineSet
EndChar

StartChar: dollar
Encoding: 36 36 7
Width: 1368
Flags: W
LayerCount: 2
Fore
SplineSet
692 146 m 1,0,1
 804 149 804 149 865 207.5 c 128,-1,2
 926 266 926 266 926 366 c 0,3,4
 926 460 926 460 870.5 511 c 128,-1,5
 815 562 815 562 692 580 c 1,6,-1
 692 146 l 1,0,1
592 1182 m 1,7,8
 486 1178 486 1178 428 1122 c 128,-1,9
 370 1066 370 1066 370 975 c 0,10,11
 370 887 370 887 424 837 c 128,-1,12
 478 787 478 787 592 771 c 1,13,-1
 592 1182 l 1,7,8
692 -302 m 1,14,-1
 592 -302 l 1,15,-1
 591 0 l 1,16,17
 488 7 488 7 389.5 28 c 128,-1,18
 291 49 291 49 189 91 c 1,19,-1
 189 272 l 1,20,21
 291 211 291 211 391.5 177.5 c 128,-1,22
 492 144 492 144 592 142 c 1,23,-1
 592 600 l 1,24,25
 191 661 191 661 189 963 c 1,26,27
 189 1121 189 1121 294 1214 c 0,28,29
 401 1309 401 1309 592 1322 c 1,30,-1
 592 1556 l 1,31,-1
 692 1556 l 1,32,-1
 694 1322 l 1,33,34
 772 1315 772 1315 852.5 1301 c 128,-1,35
 933 1287 933 1287 1018 1261 c 1,36,-1
 1018 1086 l 1,37,38
 931 1128 931 1128 853.5 1153 c 128,-1,39
 776 1178 776 1178 692 1182 c 1,40,-1
 692 750 l 1,41,42
 903 720 903 720 1008.5 624 c 128,-1,43
 1114 528 1114 528 1114 370 c 0,44,45
 1114 216 1114 216 998 114 c 1,46,47
 884 12 884 12 694 3 c 1,48,-1
 692 -302 l 1,14,-1
EndSplineSet
EndChar

StartChar: percent
Encoding: 37 37 8
Width: 0
Flags: W
LayerCount: 2
Fore
SplineSet
-90 2106 m 1,0,-1
 362 1487 l 1,1,-1
 210 1487 l 1,2,-1
 -242 2106 l 1,3,-1
 -90 2106 l 1,0,-1
EndSplineSet
EndChar

StartChar: ampersand
Encoding: 38 38 9
Width: 0
Flags: W
LayerCount: 2
Fore
SplineSet
34 1906 m 2,0,1
 44 1906 44 1906 42 1898 c 1,2,-1
 42 1735 l 1,3,-1
 206 1735 l 2,4,5
 216 1735 216 1735 216 1726 c 2,6,-1
 216 1658 l 2,7,8
 216 1650 216 1650 206 1650 c 2,9,-1
 42 1650 l 1,10,-1
 42 1487 l 2,11,12
 42 1478 42 1478 34 1476 c 1,13,-1
 -31 1476 l 2,14,15
 -40 1476 -40 1476 -42 1487 c 1,16,-1
 -42 1650 l 1,17,-1
 -206 1650 l 2,18,19
 -216 1650 -216 1650 -214 1658 c 1,20,-1
 -214 1726 l 2,21,22
 -214 1737 -214 1737 -206 1735 c 1,23,-1
 -42 1735 l 1,24,-1
 -42 1898 l 2,25,26
 -42 1908 -42 1908 -31 1906 c 1,27,-1
 34 1906 l 2,0,1
EndSplineSet
EndChar

StartChar: quotesingle
Encoding: 39 39 10
Width: 825
Flags: W
LayerCount: 2
Fore
SplineSet
380 280 m 1,0,1
 414 246 414 246 462 234.5 c 128,-1,2
 510 223 510 223 562 223 c 0,3,4
 569 223 569 223 574 218.5 c 128,-1,5
 579 214 579 214 579 208 c 2,6,-1
 596 30 l 1,7,8
 596 14 596 14 583 14 c 2,9,-1
 580 14 l 1,10,-1
 402 31 l 2,11,12
 395 31 395 31 391 36.5 c 128,-1,13
 387 42 387 42 387 48 c 0,14,15
 387 99 387 99 376.5 147 c 128,-1,16
 366 195 366 195 331 230 c 1,17,18
 297 196 297 196 285.5 147.5 c 128,-1,19
 274 99 274 99 274 48 c 0,20,21
 274 41 274 41 269 36 c 128,-1,22
 264 31 264 31 259 31 c 2,23,-1
 80 14 l 1,24,-1
 78 14 l 2,25,26
 71 14 71 14 66 19 c 128,-1,27
 61 24 61 24 61 30 c 2,28,-1
 82 208 l 1,29,30
 82 223 82 223 98 223 c 0,31,32
 149 223 149 223 197.5 234.5 c 128,-1,33
 246 246 246 246 280 280 c 1,34,35
 246 314 246 314 198 325 c 128,-1,36
 150 336 150 336 98 336 c 0,37,38
 91 336 91 336 86.5 341 c 128,-1,39
 82 346 82 346 82 351 c 2,40,-1
 61 530 l 2,41,42
 61 537 61 537 66.5 541.5 c 128,-1,43
 72 546 72 546 78 546 c 2,44,-1
 80 546 l 1,45,-1
 259 528 l 1,46,47
 274 528 274 528 274 512 c 0,48,49
 274 487 274 487 276 462 c 128,-1,50
 278 437 278 437 284 414 c 128,-1,51
 290 391 290 391 301.5 370 c 128,-1,52
 313 349 313 349 331 331 c 1,53,54
 365 365 365 365 376 413 c 128,-1,55
 387 461 387 461 387 512 c 0,56,57
 387 519 387 519 391.5 523.5 c 128,-1,58
 396 528 396 528 402 528 c 2,59,-1
 580 546 l 1,60,-1
 583 546 l 2,61,62
 590 546 590 546 593 541 c 128,-1,63
 596 536 596 536 596 530 c 2,64,-1
 579 351 l 2,65,66
 579 344 579 344 573.5 340 c 128,-1,67
 568 336 568 336 562 336 c 0,68,69
 511 336 511 336 462.5 325 c 128,-1,70
 414 314 414 314 380 280 c 1,0,1
EndSplineSet
EndChar

StartChar: parenleft
Encoding: 40 40 11
Width: 0
Flags: W
LayerCount: 2
Fore
SplineSet
30 1646 m 1,0,1
 50 1626 50 1626 78 1620.5 c 128,-1,2
 106 1615 106 1615 135 1615 c 0,3,4
 143 1615 143 1615 142 1603 c 1,5,-1
 152 1502 l 2,6,7
 152 1493 152 1493 146 1495 c 1,8,-1
 144 1495 l 1,9,-1
 42 1502 l 2,10,11
 30 1503 30 1503 30 1510 c 0,12,13
 30 1537 30 1537 25 1567 c 128,-1,14
 20 1597 20 1597 0 1616 c 1,15,16
 -20 1596 -20 1596 -25 1567.5 c 128,-1,17
 -30 1539 -30 1539 -30 1510 c 0,18,19
 -30 1500 -30 1500 -42 1502 c 1,20,-1
 -144 1495 l 1,21,-1
 -146 1495 l 2,22,23
 -153 1495 -153 1495 -152 1502 c 2,24,-1
 -142 1603 l 1,25,26
 -142 1614 -142 1614 -135 1615 c 1,27,28
 -108 1615 -108 1615 -79 1621 c 128,-1,29
 -50 1627 -50 1627 -30 1646 c 1,30,31
 -50 1666 -50 1666 -78 1671 c 128,-1,32
 -106 1676 -106 1676 -135 1676 c 0,33,34
 -144 1676 -144 1676 -142 1687 c 1,35,-1
 -152 1790 l 2,36,37
 -152 1797 -152 1797 -146 1799 c 1,38,-1
 -144 1799 l 1,39,-1
 -42 1789 l 1,40,41
 -30 1789 -30 1789 -30 1778 c 0,42,43
 -30 1751 -30 1751 -25 1723 c 128,-1,44
 -20 1695 -20 1695 0 1675 c 1,45,46
 20 1695 20 1695 25 1723 c 128,-1,47
 30 1751 30 1751 30 1778 c 0,48,49
 30 1787 30 1787 42 1789 c 2,50,-1
 144 1799 l 1,51,-1
 146 1799 l 2,52,53
 153 1799 153 1799 152 1790 c 2,54,-1
 142 1687 l 2,55,56
 142 1677 142 1677 135 1676 c 1,57,58
 108 1676 108 1676 79 1671 c 128,-1,59
 50 1666 50 1666 30 1646 c 1,0,1
EndSplineSet
EndChar

StartChar: parenright
Encoding: 41 41 12
Width: 0
Flags: W
LayerCount: 2
Fore
SplineSet
-114 2120 m 1,0,1
 -101 2127 -101 2127 -82 2127 c 0,2,3
 -67 2127 -67 2127 -54 2120 c 1,4,-1
 -57 1898 l 1,5,-1
 82 1921 l 1,6,-1
 86 1921 l 2,7,8
 108 1921 108 1921 108 1898 c 2,9,-1
 114 1171 l 1,10,11
 100 1163 100 1163 86 1163 c 0,12,13
 73 1163 73 1163 57 1171 c 1,14,-1
 57 1393 l 1,15,-1
 -80 1371 l 1,16,-1
 -82 1371 l 2,17,18
 -106 1371 -106 1371 -106 1390 c 2,19,-1
 -114 2120 l 1,0,1
61 1790 m 1,20,-1
 -57 1770 l 1,21,-1
 -61 1502 l 1,22,-1
 60 1521 l 1,23,-1
 61 1790 l 1,20,-1
EndSplineSet
EndChar

StartChar: asterisk
Encoding: 42 42 13
Width: 0
Flags: W
LayerCount: 2
Fore
SplineSet
20 1522 m 1,0,-1
 20 1509 l 2,1,2
 20 1491 20 1491 21 1472 c 128,-1,3
 22 1453 22 1453 24 1432 c 1,4,5
 66 1466 66 1466 95.5 1504.5 c 128,-1,6
 125 1543 125 1543 125 1594 c 0,7,8
 125 1609 125 1609 123 1623 c 128,-1,9
 121 1637 121 1637 115.5 1648 c 128,-1,10
 110 1659 110 1659 101 1665.5 c 128,-1,11
 92 1672 92 1672 78 1672 c 0,12,13
 52 1672 52 1672 37.5 1650 c 128,-1,14
 23 1628 23 1628 22 1598 c 2,15,-1
 20 1522 l 1,0,-1
-24 1514 m 1,16,17
 -37 1499 -37 1499 -51.5 1485.5 c 128,-1,18
 -66 1472 -66 1472 -82 1459 c 0,19,20
 -99 1446 -99 1446 -115 1433 c 128,-1,21
 -131 1420 -131 1420 -146 1406 c 0,22,23
 -156 1396 -156 1396 -164 1383.5 c 128,-1,24
 -172 1371 -172 1371 -186 1371 c 0,25,26
 -196 1371 -196 1371 -203 1376.5 c 128,-1,27
 -210 1382 -210 1382 -210 1394 c 2,28,-1
 -222 2083 l 1,29,30
 -207 2091 -207 2091 -195 2090 c 1,31,32
 -180 2090 -180 2090 -166 2083 c 1,33,-1
 -174 1683 l 1,34,35
 -140 1717 -140 1717 -94 1717 c 0,36,37
 -58 1717 -58 1717 -30 1691 c 1,38,-1
 -37 2083 l 1,39,40
 -22 2091 -22 2091 -7 2090 c 0,41,42
 8 2090 8 2090 22 2083 c 1,43,-1
 14 1683 l 1,44,45
 57 1717 57 1717 114 1717 c 0,46,47
 138 1717 138 1717 157.5 1708 c 128,-1,48
 177 1699 177 1699 191.5 1683 c 128,-1,49
 206 1667 206 1667 214 1646.5 c 128,-1,50
 222 1626 222 1626 222 1603 c 0,51,52
 222 1566 222 1566 205 1540 c 128,-1,53
 188 1514 188 1514 161.5 1492.5 c 128,-1,54
 135 1471 135 1471 104 1451 c 128,-1,55
 73 1431 73 1431 46 1406 c 0,56,57
 35 1397 35 1397 26.5 1384 c 128,-1,58
 18 1371 18 1371 3 1371 c 0,59,60
 -7 1371 -7 1371 -14.5 1376.5 c 128,-1,61
 -22 1382 -22 1382 -22 1394 c 2,62,-1
 -24 1514 l 1,16,17
-174 1522 m 1,63,-1
 -174 1509 l 2,64,65
 -174 1490 -174 1490 -173.5 1470.5 c 128,-1,66
 -173 1451 -173 1451 -172 1431 c 1,67,68
 -138 1465 -138 1465 -113 1505.5 c 128,-1,69
 -88 1546 -88 1546 -88 1594 c 0,70,71
 -88 1609 -88 1609 -89.5 1623 c 128,-1,72
 -91 1637 -91 1637 -95.5 1648 c 128,-1,73
 -100 1659 -100 1659 -108 1665.5 c 128,-1,74
 -116 1672 -116 1672 -128 1672 c 0,75,76
 -150 1672 -150 1672 -162 1650 c 128,-1,77
 -174 1628 -174 1628 -174 1598 c 2,78,-1
 -174 1522 l 1,63,-1
EndSplineSet
EndChar

StartChar: plus
Encoding: 43 43 14
Width: 0
Flags: W
LayerCount: 2
Fore
SplineSet
90 1359 m 2,0,1
 90 1352 90 1352 84 1345 c 128,-1,2
 78 1338 78 1338 67 1338 c 0,3,4
 60 1338 60 1338 55 1344.5 c 128,-1,5
 50 1351 50 1351 50 1359 c 2,6,-1
 50 1530 l 1,7,-1
 -50 1496 l 1,8,-1
 -50 1310 l 2,9,10
 -50 1303 -50 1303 -55 1297.5 c 128,-1,11
 -60 1292 -60 1292 -67 1292 c 0,12,13
 -77 1292 -77 1292 -83.5 1297.5 c 128,-1,14
 -90 1303 -90 1303 -90 1310 c 2,15,-1
 -90 1483 l 1,16,-1
 -132 1466 l 2,17,18
 -142 1462 -142 1462 -150 1468.5 c 128,-1,19
 -158 1475 -158 1475 -158 1484 c 2,20,-1
 -158 1559 l 2,21,22
 -158 1571 -158 1571 -144 1574 c 1,23,-1
 -90 1594 l 1,24,-1
 -90 1782 l 1,25,-1
 -132 1766 l 2,26,27
 -142 1762 -142 1762 -150 1767.5 c 128,-1,28
 -158 1773 -158 1773 -158 1782 c 2,29,-1
 -158 1858 l 2,30,31
 -158 1867 -158 1867 -144 1875 c 1,32,-1
 -90 1894 l 1,33,-1
 -90 2080 l 2,34,35
 -90 2087 -90 2087 -84 2092.5 c 128,-1,36
 -78 2098 -78 2098 -67 2098 c 0,37,38
 -60 2098 -60 2098 -55 2092 c 128,-1,39
 -50 2086 -50 2086 -50 2080 c 2,40,-1
 -50 1906 l 1,41,-1
 50 1943 l 1,42,-1
 50 2128 l 2,43,44
 50 2135 50 2135 55 2141 c 128,-1,45
 60 2147 60 2147 67 2147 c 0,46,47
 77 2147 77 2147 83.5 2141 c 128,-1,48
 90 2135 90 2135 90 2128 c 2,49,-1
 90 1958 l 1,50,-1
 132 1970 l 2,51,52
 142 1973 142 1973 150 1967.5 c 128,-1,53
 158 1962 158 1962 158 1955 c 2,54,-1
 158 1880 l 2,55,56
 158 1870 158 1870 144 1864 c 2,57,-1
 90 1842 l 1,58,-1
 90 1654 l 1,59,-1
 132 1671 l 2,60,61
 142 1675 142 1675 150 1671 c 1,62,63
 158 1663 158 1663 158 1654 c 2,64,-1
 158 1582 l 2,65,66
 158 1572 158 1572 144 1563 c 1,67,-1
 90 1547 l 1,68,-1
 90 1359 l 2,0,1
-50 1796 m 1,69,-1
 -50 1611 l 1,70,-1
 50 1642 l 1,71,-1
 50 1830 l 1,72,-1
 -50 1796 l 1,69,-1
EndSplineSet
EndChar

StartChar: comma
Encoding: 44 44 15
Width: 0
Flags: W
LayerCount: 2
Fore
SplineSet
-2451 835 m 1,0,-1
 122 835 l 1,1,-1
 122 692 l 1,2,-1
 -2451 692 l 1,3,-1
 -2451 835 l 1,0,-1
EndSplineSet
EndChar

StartChar: hyphen
Encoding: 45 45 16
Width: 775
Flags: W
LayerCount: 2
Fore
SplineSet
158 20 m 2,0,1
 158 13 158 13 156.5 8.5 c 128,-1,2
 155 4 155 4 155 -3 c 0,3,4
 155 -37 155 -37 158.5 -69.5 c 128,-1,5
 162 -102 162 -102 165 -135 c 1,6,7
 199 -108 199 -108 233.5 -77.5 c 128,-1,8
 268 -47 268 -47 295.5 -12 c 128,-1,9
 323 23 323 23 340 61.5 c 128,-1,10
 357 100 357 100 357 144 c 0,11,12
 357 169 357 169 351.5 194 c 128,-1,13
 346 219 346 219 335 238.5 c 128,-1,14
 324 258 324 258 307 270 c 128,-1,15
 290 282 290 282 268 282 c 256,16,17
 246 282 246 282 226.5 272 c 128,-1,18
 207 262 207 262 192 245.5 c 128,-1,19
 177 229 177 229 168 206 c 128,-1,20
 159 183 159 183 159 158 c 2,21,-1
 158 20 l 2,0,1
60 997 m 1,22,23
 72 1004 72 1004 83.5 1007 c 128,-1,24
 95 1010 95 1010 110 1010 c 0,25,26
 124 1010 124 1010 136 1006 c 128,-1,27
 148 1002 148 1002 159 997 c 1,28,-1
 148 298 l 1,29,30
 226 358 226 358 324 358 c 0,31,32
 364 358 364 358 398 342 c 128,-1,33
 432 326 432 326 457 298.5 c 128,-1,34
 482 271 482 271 496 234.5 c 128,-1,35
 510 198 510 198 510 158 c 0,36,37
 510 96 510 96 480 49.5 c 128,-1,38
 450 3 450 3 404.5 -35.5 c 128,-1,39
 359 -74 359 -74 305 -108.5 c 128,-1,40
 251 -143 251 -143 204 -180 c 0,41,42
 194 -188 194 -188 188 -197 c 128,-1,43
 182 -206 182 -206 176 -214 c 128,-1,44
 170 -222 170 -222 162 -227.5 c 128,-1,45
 154 -233 154 -233 142 -233 c 0,46,47
 133 -233 133 -233 122.5 -231.5 c 128,-1,48
 112 -230 112 -230 103 -226 c 128,-1,49
 94 -222 94 -222 88 -216.5 c 128,-1,50
 82 -211 82 -211 82 -203 c 2,51,-1
 60 997 l 1,22,23
EndSplineSet
EndChar

StartChar: slash
Encoding: 47 47 18
Width: 1206
Flags: W
LayerCount: 2
Fore
SplineSet
391 253 m 1,0,-1
 594 253 l 1,1,-1
 594 0 l 1,2,-1
 391 0 l 1,3,-1
 391 253 l 1,0,-1
588 402 m 1,4,-1
 398 402 l 1,5,-1
 398 554 l 2,6,7
 398 660 398 660 426 722 c 0,8,9
 439 751 439 751 468 790 c 1,10,11
 495 828 495 828 542 873 c 2,12,-1
 634 963 l 2,13,14
 691 1018 691 1018 716.5 1063 c 128,-1,15
 742 1108 742 1108 742 1159 c 0,16,17
 742 1204 742 1204 724.5 1239 c 128,-1,18
 707 1274 707 1274 674 1303 c 1,19,20
 642 1329 642 1329 600 1343 c 128,-1,21
 558 1357 558 1357 502 1356 c 0,22,23
 463 1356 463 1356 421 1347.5 c 128,-1,24
 379 1339 379 1339 334 1321 c 256,25,26
 289 1303 289 1303 242 1277 c 128,-1,27
 195 1251 195 1251 146 1219 c 1,28,-1
 146 1406 l 1,29,30
 331 1519 331 1519 538 1521 c 0,31,32
 632 1521 632 1521 704 1496 c 128,-1,33
 776 1471 776 1471 830 1423 c 0,34,35
 886 1373 886 1373 915 1309.5 c 128,-1,36
 944 1246 944 1246 945 1167 c 0,37,38
 946 1093 946 1093 908 1022 c 0,39,40
 890 988 890 988 858 949.5 c 128,-1,41
 826 911 826 911 783 869 c 2,42,-1
 694 783 l 2,43,44
 670 760 670 760 653.5 742 c 128,-1,45
 637 724 637 724 626.5 709 c 128,-1,46
 616 694 616 694 610 682 c 128,-1,47
 604 670 604 670 600 658 c 0,48,49
 592 636 592 636 590 605.5 c 128,-1,50
 588 575 588 575 588 524 c 2,51,-1
 588 402 l 1,4,-1
EndSplineSet
EndChar

StartChar: zero
Encoding: 48 48 19
Width: 595
Flags: W
LayerCount: 2
Fore
SplineSet
238 1495 m 0,0,1
 179 1495 179 1495 136 1450 c 0,2,3
 116 1428 116 1428 105 1404 c 128,-1,4
 94 1380 94 1380 94 1351 c 0,5,6
 94 1292 94 1292 136 1250 c 0,7,8
 176 1210 176 1210 238 1210 c 0,9,10
 298 1210 298 1210 338 1250 c 1,11,12
 380 1290 380 1290 380 1351 c 0,13,14
 380 1380 380 1380 369 1404 c 128,-1,15
 358 1428 358 1428 338 1450 c 0,16,17
 317 1472 317 1472 292.5 1483.5 c 128,-1,18
 268 1495 268 1495 238 1495 c 0,0,1
238 1590 m 0,19,20
 286 1590 286 1590 330 1571 c 128,-1,21
 374 1552 374 1552 406 1518 c 0,22,23
 474 1447 474 1447 474 1351 c 0,24,25
 474 1302 474 1302 457.5 1259.5 c 128,-1,26
 441 1217 441 1217 406 1182 c 256,27,28
 371 1147 371 1147 328.5 1130.5 c 128,-1,29
 286 1114 286 1114 236 1114 c 0,30,31
 135 1114 135 1114 67 1182 c 0,32,33
 0 1249 0 1249 0 1351 c 0,34,35
 0 1448 0 1448 71 1521 c 1,36,37
 140 1590 140 1590 238 1590 c 0,19,20
EndSplineSet
EndChar

StartChar: one
Encoding: 49 49 20
Width: 377
Flags: W
LayerCount: 2
Fore
SplineSet
142 1495 m 1,0,-1
 342 1495 l 1,1,-1
 342 0 l 1,2,-1
 142 0 l 1,3,-1
 142 1495 l 1,0,-1
EndSplineSet
EndChar

StartChar: two
Encoding: 50 50 21
Width: 1077
Flags: W
LayerCount: 2
Fore
SplineSet
203 1495 m 1,0,-1
 402 1495 l 1,1,-1
 402 0 l 1,2,-1
 203 0 l 1,3,-1
 203 1495 l 1,0,-1
762 1495 m 1,4,-1
 964 1495 l 1,5,-1
 964 0 l 1,6,-1
 762 0 l 1,7,-1
 762 1495 l 1,4,-1
EndSplineSet
EndChar

StartChar: three
Encoding: 51 51 22
Width: 1691
Flags: W
LayerCount: 2
Fore
SplineSet
203 1495 m 1,0,-1
 402 1495 l 1,1,-1
 402 0 l 1,2,-1
 203 0 l 1,3,-1
 203 1495 l 1,0,-1
762 1495 m 1,4,-1
 964 1495 l 1,5,-1
 964 0 l 1,6,-1
 762 0 l 1,7,-1
 762 1495 l 1,4,-1
1322 1495 m 1,8,-1
 1526 1495 l 1,9,-1
 1526 0 l 1,10,-1
 1322 0 l 1,11,-1
 1322 1495 l 1,8,-1
EndSplineSet
EndChar

StartChar: four
Encoding: 52 52 23
Width: 2184
Flags: W
LayerCount: 2
Fore
SplineSet
203 1495 m 1,0,-1
 402 1495 l 1,1,-1
 402 0 l 1,2,-1
 203 0 l 1,3,-1
 203 1495 l 1,0,-1
1167 0 m 1,4,-1
 596 1495 l 1,5,-1
 806 1495 l 1,6,-1
 1280 236 l 1,7,-1
 1755 1495 l 1,8,-1
 1965 1495 l 1,9,-1
 1394 0 l 1,10,-1
 1167 0 l 1,4,-1
EndSplineSet
EndChar

StartChar: five
Encoding: 53 53 24
Width: 1540
Flags: W
LayerCount: 2
Fore
SplineSet
587 0 m 1,0,-1
 16 1495 l 1,1,-1
 226 1495 l 1,2,-1
 700 236 l 1,3,-1
 1175 1495 l 1,4,-1
 1385 1495 l 1,5,-1
 814 0 l 1,6,-1
 587 0 l 1,0,-1
EndSplineSet
EndChar

StartChar: six
Encoding: 54 54 25
Width: 1914
Flags: W
LayerCount: 2
Fore
SplineSet
587 0 m 1,0,-1
 16 1495 l 1,1,-1
 226 1495 l 1,2,-1
 700 236 l 1,3,-1
 1175 1495 l 1,4,-1
 1385 1495 l 1,5,-1
 814 0 l 1,6,-1
 587 0 l 1,0,-1
1518 1495 m 1,7,-1
 1721 1495 l 1,8,-1
 1721 0 l 1,9,-1
 1518 0 l 1,10,-1
 1518 1495 l 1,7,-1
EndSplineSet
EndChar

StartChar: seven
Encoding: 55 55 26
Width: 2531
Flags: W
LayerCount: 2
Fore
SplineSet
587 0 m 1,0,-1
 16 1495 l 1,1,-1
 226 1495 l 1,2,-1
 700 236 l 1,3,-1
 1175 1495 l 1,4,-1
 1385 1495 l 1,5,-1
 814 0 l 1,6,-1
 587 0 l 1,0,-1
1518 1495 m 1,7,-1
 1721 1495 l 1,8,-1
 1721 0 l 1,9,-1
 1518 0 l 1,10,-1
 1518 1495 l 1,7,-1
2079 1495 m 1,11,-1
 2282 1495 l 1,12,-1
 2282 0 l 1,13,-1
 2079 0 l 1,14,-1
 2079 1495 l 1,11,-1
EndSplineSet
EndChar

StartChar: eight
Encoding: 56 56 27
Width: 0
Flags: W
LayerCount: 2
Fore
SplineSet
-790 843 m 1,0,-1
 42 843 l 1,1,-1
 42 702 l 1,2,-1
 -790 702 l 1,3,-1
 -790 843 l 1,0,-1
EndSplineSet
EndChar

StartChar: nine
Encoding: 57 57 28
Width: 595
Flags: W
LayerCount: 2
Fore
SplineSet
425 1499 m 1,0,1
 474 1438 474 1438 474 1351 c 1,2,3
 473 1302 473 1302 457 1259.5 c 128,-1,4
 441 1217 441 1217 406 1182 c 256,5,6
 371 1147 371 1147 328.5 1130.5 c 128,-1,7
 286 1114 286 1114 236 1114 c 0,8,9
 157 1114 157 1114 102 1150 c 1,10,11
 92 1139 92 1139 79 1125 c 0,12,13
 68 1113 68 1113 50.5 1094.5 c 128,-1,14
 33 1076 33 1076 10 1052 c 1,15,-1
 -46 1108 l 1,16,-1
 46 1206 l 1,17,18
 0 1265 0 1265 0 1351 c 0,19,20
 0 1448 0 1448 71 1521 c 1,21,22
 142 1592 142 1592 238 1590 c 0,23,24
 280 1590 280 1590 331 1570 c 0,25,26
 360 1558 360 1558 365 1552 c 1,27,-1
 470 1664 l 1,28,-1
 528 1611 l 1,29,-1
 425 1499 l 1,30,-1
 425 1499 l 1,0,1
298 1483 m 1,31,32
 287 1488 287 1488 272 1491.5 c 128,-1,33
 257 1495 257 1495 238 1495 c 2,34,-1
 233 1495 l 2,35,36
 204 1495 204 1495 180.5 1483.5 c 128,-1,37
 157 1472 157 1472 136 1450 c 0,38,39
 116 1428 116 1428 104.5 1404 c 128,-1,40
 93 1380 93 1380 94 1351 c 0,41,42
 94 1331 94 1331 99.5 1313.5 c 128,-1,43
 105 1296 105 1296 114 1280 c 1,44,-1
 298 1483 l 1,31,32
170 1227 m 1,45,46
 185 1220 185 1220 202 1215.5 c 128,-1,47
 219 1211 219 1211 238 1210 c 0,48,49
 297 1209 297 1209 338 1250 c 1,50,51
 380 1290 380 1290 380 1351 c 0,52,53
 380 1397 380 1397 358 1431 c 1,54,-1
 170 1227 l 1,45,46
EndSplineSet
EndChar

StartChar: colon
Encoding: 58 58 29
Width: 0
Flags: W
LayerCount: 2
Fore
SplineSet
90 -122 m 2,0,1
 90 -129 90 -129 84 -135.5 c 128,-1,2
 78 -142 78 -142 67 -142 c 0,3,4
 60 -142 60 -142 55 -136.5 c 128,-1,5
 50 -131 50 -131 50 -122 c 2,6,-1
 50 50 l 1,7,-1
 -50 16 l 1,8,-1
 -50 -170 l 2,9,10
 -50 -177 -50 -177 -55 -182.5 c 128,-1,11
 -60 -188 -60 -188 -67 -188 c 0,12,13
 -77 -188 -77 -188 -83.5 -183 c 128,-1,14
 -90 -178 -90 -178 -90 -170 c 2,15,-1
 -90 3 l 1,16,-1
 -132 -14 l 2,17,18
 -142 -18 -142 -18 -150 -12.5 c 128,-1,19
 -158 -7 -158 -7 -158 4 c 2,20,-1
 -158 78 l 2,21,22
 -158 89 -158 89 -144 94 c 2,23,-1
 -90 114 l 1,24,-1
 -90 302 l 1,25,-1
 -132 286 l 2,26,27
 -142 282 -142 282 -150 287.5 c 128,-1,28
 -158 293 -158 293 -158 302 c 2,29,-1
 -158 378 l 2,30,31
 -158 387 -158 387 -144 395 c 1,32,-1
 -90 414 l 1,33,-1
 -90 600 l 2,34,35
 -90 607 -90 607 -84 612.5 c 128,-1,36
 -78 618 -78 618 -67 618 c 0,37,38
 -60 618 -60 618 -55 612 c 128,-1,39
 -50 606 -50 606 -50 600 c 2,40,-1
 -50 426 l 1,41,-1
 50 462 l 1,42,-1
 50 648 l 2,43,44
 50 655 50 655 55 660.5 c 128,-1,45
 60 666 60 666 67 666 c 0,46,47
 77 666 77 666 83.5 660.5 c 128,-1,48
 90 655 90 655 90 648 c 2,49,-1
 90 478 l 1,50,-1
 132 490 l 2,51,52
 142 493 142 493 150 487.5 c 128,-1,53
 158 482 158 482 158 474 c 2,54,-1
 158 400 l 2,55,56
 158 390 158 390 144 384 c 2,57,-1
 90 362 l 1,58,-1
 90 174 l 1,59,-1
 132 189 l 2,60,61
 142 193 142 193 150 189 c 1,62,63
 158 181 158 181 158 174 c 2,64,-1
 158 102 l 2,65,66
 158 93 158 93 144 82 c 1,67,-1
 90 67 l 1,68,-1
 90 -122 l 2,0,1
-50 316 m 1,69,-1
 -50 131 l 1,70,-1
 50 162 l 1,71,-1
 50 350 l 1,72,-1
 -50 316 l 1,69,-1
EndSplineSet
EndChar

StartChar: semicolon
Encoding: 59 59 30
Width: 545
Flags: W
LayerCount: 2
Fore
SplineSet
105 678 m 1,0,-1
 253 678 l 1,1,-1
 253 496 l 1,2,-1
 105 496 l 1,3,-1
 105 678 l 1,0,-1
105 222 m 1,4,-1
 253 222 l 1,5,-1
 253 41 l 1,6,-1
 105 41 l 1,7,-1
 105 222 l 1,4,-1
EndSplineSet
EndChar

StartChar: less
Encoding: 60 60 31
Width: 0
Flags: W
LayerCount: 2
Fore
SplineSet
-80 -720 m 2,0,1
 -80 -723 -80 -723 -81 -726 c 128,-1,2
 -82 -729 -82 -729 -82 -734 c 0,3,4
 -82 -752 -82 -752 -80 -774 c 128,-1,5
 -78 -796 -78 -796 -78 -818 c 1,6,7
 -44 -790 -44 -790 -13.5 -760 c 128,-1,8
 17 -730 17 -730 33 -694 c 0,9,10
 44 -669 44 -669 44 -643 c 0,11,12
 45 -614 45 -614 30 -580 c 0,13,14
 18 -553 18 -553 -12 -553 c 256,15,16
 -42 -553 -42 -553 -59.5 -576.5 c 128,-1,17
 -77 -600 -77 -600 -78 -630 c 2,18,-1
 -80 -720 l 2,0,1
-142 -102 m 1,19,20
 -124 -90 -124 -90 -110 -90 c 128,-1,21
 -96 -90 -96 -90 -78 -102 c 1,22,-1
 -88 -544 l 1,23,24
 -62 -526 -62 -526 -34.5 -516 c 128,-1,25
 -7 -506 -7 -506 26 -506 c 0,26,27
 78 -506 78 -506 110 -542 c 0,28,29
 127 -560 127 -560 134.5 -582.5 c 128,-1,30
 142 -605 142 -605 142 -630 c 0,31,32
 142 -671 142 -671 123.5 -700.5 c 128,-1,33
 105 -730 105 -730 76.5 -754.5 c 128,-1,34
 48 -779 48 -779 14 -800.5 c 128,-1,35
 -20 -822 -20 -822 -50 -847 c 0,36,37
 -58 -854 -58 -854 -63.5 -859 c 128,-1,38
 -69 -864 -69 -864 -71 -869 c 0,39,40
 -75 -878 -75 -878 -84.5 -880 c 128,-1,41
 -94 -882 -94 -882 -103.5 -880 c 128,-1,42
 -113 -878 -113 -878 -120.5 -872.5 c 128,-1,43
 -128 -867 -128 -867 -128 -862 c 2,44,-1
 -142 -102 l 1,19,20
EndSplineSet
EndChar

StartChar: equal
Encoding: 61 61 32
Width: 885
Flags: W
LayerCount: 2
Fore
SplineSet
387 -174 m 2,0,1
 387 -186 387 -186 378.5 -195 c 128,-1,2
 370 -204 370 -204 357 -204 c 0,3,4
 345 -204 345 -204 336 -195 c 128,-1,5
 327 -186 327 -186 327 -174 c 2,6,-1
 327 98 l 1,7,-1
 170 42 l 1,8,-1
 170 -250 l 2,9,10
 170 -264 170 -264 160 -272 c 128,-1,11
 150 -280 150 -280 138 -280 c 0,12,13
 123 -280 123 -280 116 -270 c 1,14,15
 108 -262 108 -262 108 -250 c 2,16,-1
 108 22 l 1,17,-1
 38 -3 l 1,18,19
 24 -10 24 -10 12 0 c 128,-1,20
 0 10 0 10 0 24 c 2,21,-1
 0 138 l 2,22,23
 0 148 0 148 6 156.5 c 128,-1,24
 12 165 12 165 20 166 c 1,25,-1
 108 199 l 1,26,-1
 108 494 l 1,27,-1
 38 470 l 1,28,29
 24 463 24 463 12 472.5 c 128,-1,30
 0 482 0 482 0 496 c 2,31,-1
 0 614 l 2,32,33
 0 624 0 624 6 630.5 c 128,-1,34
 12 637 12 637 20 640 c 2,35,-1
 108 670 l 1,36,-1
 108 964 l 2,37,38
 108 976 108 976 118 985 c 1,39,40
 125 994 125 994 138 994 c 0,41,42
 150 994 150 994 160 985 c 128,-1,43
 170 976 170 976 170 964 c 2,44,-1
 170 692 l 1,45,-1
 327 749 l 1,46,-1
 327 1039 l 2,47,48
 327 1053 327 1053 335.5 1061.5 c 128,-1,49
 344 1070 344 1070 357 1070 c 0,50,51
 371 1070 371 1070 379 1061 c 128,-1,52
 387 1052 387 1052 387 1039 c 2,53,-1
 387 771 l 1,54,-1
 459 794 l 1,55,56
 473 801 473 801 483.5 792 c 128,-1,57
 494 783 494 783 494 766 c 2,58,-1
 494 651 l 2,59,60
 494 641 494 641 488 633.5 c 128,-1,61
 482 626 482 626 474 625 c 1,62,-1
 387 591 l 1,63,-1
 387 297 l 1,64,-1
 459 323 l 1,65,66
 473 330 473 330 483.5 320 c 128,-1,67
 494 310 494 310 494 294 c 2,68,-1
 494 178 l 2,69,70
 494 168 494 168 488 161 c 128,-1,71
 482 154 482 154 474 150 c 1,72,-1
 387 120 l 1,73,-1
 387 -174 l 2,0,1
170 516 m 1,74,-1
 170 219 l 1,75,-1
 327 274 l 1,76,-1
 327 570 l 1,77,-1
 170 516 l 1,74,-1
EndSplineSet
EndChar

StartChar: greater
Encoding: 62 62 33
Width: 0
Flags: W
LayerCount: 2
Fore
SplineSet
90 -912 m 2,0,1
 90 -919 90 -919 84 -924.5 c 128,-1,2
 78 -930 78 -930 67 -930 c 0,3,4
 60 -930 60 -930 55 -924 c 128,-1,5
 50 -918 50 -918 50 -912 c 2,6,-1
 50 -738 l 1,7,-1
 -50 -775 l 1,8,-1
 -50 -963 l 2,9,10
 -50 -970 -50 -970 -55 -974.5 c 128,-1,11
 -60 -979 -60 -979 -67 -979 c 0,12,13
 -77 -979 -77 -979 -83.5 -973 c 128,-1,14
 -90 -967 -90 -967 -90 -963 c 2,15,-1
 -90 -790 l 1,16,-1
 -132 -802 l 2,17,18
 -142 -805 -142 -805 -150 -799.5 c 128,-1,19
 -158 -794 -158 -794 -158 -787 c 2,20,-1
 -158 -712 l 2,21,22
 -158 -702 -158 -702 -144 -696 c 2,23,-1
 -90 -674 l 1,24,-1
 -90 -486 l 1,25,-1
 -132 -502 l 2,26,27
 -143 -507 -143 -507 -150 -502 c 1,28,29
 -158 -494 -158 -494 -158 -486 c 2,30,-1
 -158 -414 l 2,31,32
 -158 -404 -158 -404 -144 -395 c 1,33,-1
 -90 -378 l 1,34,-1
 -90 -189 l 2,35,36
 -90 -182 -90 -182 -84 -176 c 128,-1,37
 -78 -170 -78 -170 -67 -170 c 0,38,39
 -60 -170 -60 -170 -55 -176 c 128,-1,40
 -50 -182 -50 -182 -50 -189 c 2,41,-1
 -50 -362 l 1,42,-1
 50 -328 l 1,43,-1
 50 -142 l 2,44,45
 50 -135 50 -135 55 -129.5 c 128,-1,46
 60 -124 60 -124 67 -124 c 0,47,48
 77 -124 77 -124 83.5 -129.5 c 128,-1,49
 90 -135 90 -135 90 -142 c 2,50,-1
 90 -314 l 1,51,-1
 132 -298 l 2,52,53
 142 -294 142 -294 150 -300 c 128,-1,54
 158 -306 158 -306 158 -316 c 2,55,-1
 158 -391 l 2,56,57
 158 -403 158 -403 144 -406 c 1,58,-1
 90 -426 l 1,59,-1
 90 -614 l 1,60,-1
 132 -598 l 2,61,62
 142 -594 142 -594 150 -599 c 128,-1,63
 158 -604 158 -604 158 -614 c 2,64,-1
 158 -690 l 2,65,66
 158 -699 158 -699 144 -707 c 1,67,-1
 90 -726 l 1,68,-1
 90 -912 l 2,0,1
-50 -474 m 1,69,-1
 -50 -662 l 1,70,-1
 50 -628 l 1,71,-1
 50 -442 l 1,72,-1
 -50 -474 l 1,69,-1
EndSplineSet
EndChar

StartChar: question
Encoding: 63 63 34
Width: 0
Flags: W
LayerCount: 2
Fore
SplineSet
-41 -504 m 1,0,-1
 312 -504 l 1,1,-1
 312 -574 l 1,2,-1
 -41 -574 l 1,3,-1
 -41 -504 l 1,0,-1
EndSplineSet
EndChar

StartChar: at
Encoding: 64 64 35
Width: 0
Flags: W
LayerCount: 2
Fore
SplineSet
598 2110 m 1,0,-1
 317 2007 l 1,1,-1
 598 1902 l 1,2,-1
 598 1842 l 1,3,-1
 250 1978 l 1,4,-1
 250 2034 l 1,5,-1
 598 2170 l 1,6,-1
 598 2110 l 1,0,-1
EndSplineSet
EndChar

StartChar: A
Encoding: 65 65 36
Width: 603
Flags: W
LayerCount: 2
Fore
SplineSet
858 1627 m 1,0,-1
 1112 1627 l 1,1,-1
 -189 -144 l 1,2,-1
 -444 -144 l 1,3,-1
 858 1627 l 1,0,-1
EndSplineSet
EndChar

StartChar: B
Encoding: 66 66 37
Width: 0
Flags: W
LayerCount: 2
Fore
SplineSet
20 -754 m 1,0,-1
 20 -766 l 2,1,2
 20 -784 20 -784 21 -803 c 128,-1,3
 22 -822 22 -822 24 -843 c 1,4,5
 66 -809 66 -809 95.5 -770 c 128,-1,6
 125 -731 125 -731 125 -682 c 0,7,8
 125 -668 125 -668 123 -653.5 c 128,-1,9
 121 -639 121 -639 115.5 -627.5 c 128,-1,10
 110 -616 110 -616 101 -609 c 128,-1,11
 92 -602 92 -602 78 -602 c 0,12,13
 52 -602 52 -602 38 -625 c 0,14,15
 31 -635 31 -635 26.5 -647.5 c 128,-1,16
 22 -660 22 -660 22 -674 c 2,17,-1
 20 -754 l 1,0,-1
-24 -760 m 1,18,19
 -37 -775 -37 -775 -51 -789.5 c 128,-1,20
 -65 -804 -65 -804 -82 -817 c 0,21,22
 -99 -831 -99 -831 -115 -843.5 c 128,-1,23
 -131 -856 -131 -856 -146 -870 c 0,24,25
 -156 -880 -156 -880 -164 -893.5 c 128,-1,26
 -172 -907 -172 -907 -186 -907 c 0,27,28
 -196 -907 -196 -907 -203 -899.5 c 128,-1,29
 -210 -892 -210 -892 -210 -882 c 2,30,-1
 -222 -195 l 1,31,32
 -207 -187 -207 -187 -195 -184 c 1,33,34
 -182 -184 -182 -184 -166 -195 c 1,35,-1
 -174 -594 l 1,36,37
 -140 -557 -140 -557 -94 -558 c 0,38,39
 -57 -558 -57 -558 -30 -587 c 1,40,-1
 -37 -195 l 1,41,42
 -22 -187 -22 -187 -7 -184 c 1,43,44
 6 -184 6 -184 22 -195 c 1,45,-1
 14 -594 l 1,46,47
 56 -558 56 -558 114 -558 c 1,48,49
 149 -559 149 -559 176 -580.5 c 128,-1,50
 203 -602 203 -602 214 -630 c 0,51,52
 222 -650 222 -650 222 -674 c 0,53,54
 222 -710 222 -710 205 -736 c 128,-1,55
 188 -762 188 -762 162 -784 c 128,-1,56
 136 -806 136 -806 105 -826 c 128,-1,57
 74 -846 74 -846 46 -870 c 0,58,59
 41 -875 41 -875 36.5 -881 c 128,-1,60
 32 -887 32 -887 27 -893 c 128,-1,61
 22 -899 22 -899 16 -903 c 128,-1,62
 10 -907 10 -907 3 -907 c 0,63,64
 -7 -907 -7 -907 -14.5 -899.5 c 128,-1,65
 -22 -892 -22 -892 -22 -882 c 2,66,-1
 -24 -760 l 1,18,19
-174 -754 m 1,67,-1
 -174 -766 l 2,68,69
 -174 -785 -174 -785 -173.5 -805 c 128,-1,70
 -173 -825 -173 -825 -172 -847 c 1,71,72
 -138 -813 -138 -813 -113 -771.5 c 128,-1,73
 -88 -730 -88 -730 -88 -682 c 0,74,75
 -88 -668 -88 -668 -89.5 -653.5 c 128,-1,76
 -91 -639 -91 -639 -95.5 -627.5 c 128,-1,77
 -100 -616 -100 -616 -108 -609 c 128,-1,78
 -116 -602 -116 -602 -128 -602 c 0,79,80
 -150 -602 -150 -602 -162 -624.5 c 128,-1,81
 -174 -647 -174 -647 -174 -674 c 2,82,-1
 -174 -754 l 1,67,-1
EndSplineSet
EndChar

StartChar: C
Encoding: 67 67 38
Width: 682
Flags: W
LayerCount: 2
Fore
SplineSet
0 954 m 1,0,-1
 174 954 l 1,1,-1
 598 155 l 1,2,-1
 598 954 l 1,3,-1
 722 954 l 1,4,-1
 722 0 l 1,5,-1
 550 0 l 1,6,-1
 125 798 l 1,7,-1
 125 0 l 1,8,-1
 0 0 l 1,9,-1
 0 954 l 1,0,-1
886 -212 m 1,10,-1
 790 -212 l 1,11,-1
 790 580 l 1,12,-1
 886 580 l 1,13,-1
 886 494 l 1,14,15
 943 596 943 596 1066 594 c 1,16,17
 1171 594 1171 594 1239 510 c 0,18,19
 1273 468 1273 468 1288.5 414.5 c 128,-1,20
 1304 361 1304 361 1303 294 c 0,21,22
 1302 226 1302 226 1287 171 c 128,-1,23
 1272 116 1272 116 1239 74 c 0,24,25
 1175 -8 1175 -8 1066 -8 c 0,26,27
 941 -8 941 -8 886 91 c 1,28,-1
 886 -212 l 1,10,-1
1206 294 m 256,29,30
 1206 400 1206 400 1163 457.5 c 128,-1,31
 1120 515 1120 515 1047 515 c 0,32,33
 972 515 972 515 929 457 c 128,-1,34
 886 399 886 399 886 294 c 0,35,36
 886 188 886 188 928.5 129.5 c 128,-1,37
 971 71 971 71 1047 71 c 0,38,39
 1122 71 1122 71 1164 129.5 c 128,-1,40
 1206 188 1206 188 1206 294 c 256,29,30
EndSplineSet
EndChar

StartChar: D
Encoding: 68 68 39
Width: 0
Flags: W
LayerCount: 2
Fore
SplineSet
-67 580 m 1,0,-1
 312 67 l 1,1,-1
 186 67 l 1,2,-1
 -195 580 l 1,3,-1
 -67 580 l 1,0,-1
EndSplineSet
EndChar

StartChar: F
Encoding: 70 70 40
Width: 682
Flags: W
LayerCount: 2
Fore
SplineSet
0 1194 m 1,0,-1
 686 1194 l 1,1,-1
 686 1058 l 1,2,-1
 162 1058 l 1,3,-1
 162 707 l 1,4,-1
 634 707 l 1,5,-1
 634 570 l 1,6,-1
 162 570 l 1,7,-1
 162 0 l 1,8,-1
 0 0 l 1,9,-1
 0 1194 l 1,0,-1
1231 606 m 1,10,11
 1190 630 1190 630 1134 630 c 0,12,13
 1032 630 1032 630 980 564.5 c 128,-1,14
 928 499 928 499 928 378 c 2,15,-1
 928 0 l 1,16,-1
 810 0 l 1,17,-1
 810 719 l 1,18,-1
 928 719 l 1,19,-1
 928 606 l 1,20,21
 1000 734 1000 734 1168 734 c 0,22,23
 1192 734 1192 734 1228 728 c 1,24,-1
 1231 606 l 1,10,11
EndSplineSet
EndChar

StartChar: G
Encoding: 71 71 41
Width: 0
Flags: W
LayerCount: 2
Fore
SplineSet
34 446 m 2,0,1
 44 446 44 446 42 438 c 1,2,-1
 42 274 l 1,3,-1
 208 274 l 2,4,5
 218 274 218 274 218 264 c 2,6,-1
 218 199 l 2,7,8
 218 189 218 189 208 186 c 1,9,-1
 42 186 l 1,10,-1
 42 24 l 2,11,12
 42 14 42 14 34 14 c 2,13,-1
 -31 14 l 2,14,15
 -41 14 -41 14 -42 24 c 1,16,-1
 -42 186 l 1,17,-1
 -206 186 l 2,18,19
 -216 186 -216 186 -216 199 c 2,20,-1
 -216 264 l 2,21,22
 -216 274 -216 274 -206 274 c 2,23,-1
 -42 274 l 1,24,-1
 -42 438 l 2,25,26
 -42 448 -42 448 -31 446 c 1,27,-1
 34 446 l 2,0,1
EndSplineSet
EndChar

StartChar: H
Encoding: 72 72 42
Width: 0
Flags: W
LayerCount: 2
Fore
SplineSet
20 38 m 1,0,-1
 20 26 l 2,1,2
 20 8 20 8 21 -11 c 128,-1,3
 22 -30 22 -30 24 -50 c 1,4,5
 66 -16 66 -16 95.5 22.5 c 128,-1,6
 125 61 125 61 125 110 c 0,7,8
 125 125 125 125 123 139 c 128,-1,9
 121 153 121 153 115.5 164 c 128,-1,10
 110 175 110 175 101 182 c 128,-1,11
 92 189 92 189 78 189 c 0,12,13
 52 189 52 189 37.5 169 c 128,-1,14
 23 149 23 149 22 118 c 2,15,-1
 20 38 l 1,0,-1
-24 31 m 1,16,17
 -37 16 -37 16 -51.5 2.5 c 128,-1,18
 -66 -11 -66 -11 -82 -24 c 0,19,20
 -99 -37 -99 -37 -115 -50.5 c 128,-1,21
 -131 -64 -131 -64 -146 -78 c 0,22,23
 -156 -88 -156 -88 -164 -101 c 128,-1,24
 -172 -114 -172 -114 -186 -114 c 0,25,26
 -196 -114 -196 -114 -203 -107.5 c 128,-1,27
 -210 -101 -210 -101 -210 -90 c 2,28,-1
 -222 600 l 1,29,30
 -208 608 -208 608 -195 608 c 256,31,32
 -182 608 -182 608 -166 600 c 1,33,-1
 -174 199 l 1,34,35
 -140 235 -140 235 -94 234 c 0,36,37
 -57 234 -57 234 -30 206 c 1,38,-1
 -37 600 l 1,39,40
 -23 608 -23 608 -7 608 c 0,41,42
 6 608 6 608 22 600 c 1,43,-1
 14 199 l 1,44,45
 36 218 36 218 61 226 c 128,-1,46
 86 234 86 234 114 234 c 0,47,48
 149 233 149 233 176 212 c 128,-1,49
 203 191 203 191 214 162 c 0,50,51
 222 142 222 142 222 118 c 0,52,53
 222 82 222 82 205 56 c 128,-1,54
 188 30 188 30 162 8 c 128,-1,55
 136 -14 136 -14 105 -34 c 128,-1,56
 74 -54 74 -54 46 -78 c 0,57,58
 41 -83 41 -83 36.5 -89 c 128,-1,59
 32 -95 32 -95 27 -100.5 c 128,-1,60
 22 -106 22 -106 16 -110 c 128,-1,61
 10 -114 10 -114 3 -114 c 0,62,63
 -7 -114 -7 -114 -14.5 -107.5 c 128,-1,64
 -22 -101 -22 -101 -22 -90 c 2,65,-1
 -24 31 l 1,16,17
-174 38 m 1,66,-1
 -174 26 l 2,67,68
 -174 7 -174 7 -173.5 -13 c 128,-1,69
 -173 -33 -173 -33 -172 -54 c 1,70,71
 -138 -20 -138 -20 -113 20.5 c 128,-1,72
 -88 61 -88 61 -88 110 c 0,73,74
 -88 125 -88 125 -89.5 139 c 128,-1,75
 -91 153 -91 153 -95.5 164 c 128,-1,76
 -100 175 -100 175 -108 182 c 128,-1,77
 -116 189 -116 189 -128 189 c 0,78,79
 -150 189 -150 189 -162 167.5 c 128,-1,80
 -174 146 -174 146 -174 118 c 2,81,-1
 -174 38 l 1,66,-1
EndSplineSet
EndChar

StartChar: I
Encoding: 73 73 43
Width: 0
Flags: W
LayerCount: 2
Fore
SplineSet
30 899 m 1,0,1
 50 879 50 879 78 872.5 c 128,-1,2
 106 866 106 866 135 866 c 0,3,4
 143 866 143 866 142 854 c 1,5,-1
 152 754 l 2,6,7
 152 746 152 746 146 746 c 2,8,-1
 144 746 l 1,9,-1
 42 754 l 2,10,11
 30 755 30 755 30 762 c 0,12,13
 30 789 30 789 25 818.5 c 128,-1,14
 20 848 20 848 0 869 c 1,15,16
 -20 849 -20 849 -25 819.5 c 128,-1,17
 -30 790 -30 790 -30 762 c 0,18,19
 -30 752 -30 752 -42 754 c 1,20,-1
 -144 746 l 1,21,-1
 -146 746 l 2,22,23
 -154 746 -154 746 -152 754 c 1,24,-1
 -142 854 l 1,25,26
 -142 865 -142 865 -135 866 c 1,27,28
 -108 866 -108 866 -79 872 c 128,-1,29
 -50 878 -50 878 -30 899 c 1,30,31
 -50 919 -50 919 -78 923.5 c 128,-1,32
 -106 928 -106 928 -135 928 c 0,33,34
 -143 928 -143 928 -142 938 c 1,35,-1
 -152 1043 l 2,36,37
 -152 1051 -152 1051 -146 1050 c 1,38,-1
 -144 1050 l 1,39,-1
 -42 1040 l 1,40,41
 -30 1040 -30 1040 -30 1031 c 0,42,43
 -30 1004 -30 1004 -25 975 c 128,-1,44
 -20 946 -20 946 0 926 c 1,45,46
 18 944 18 944 26 975 c 0,47,48
 29 989 29 989 30.5 1003 c 128,-1,49
 32 1017 32 1017 30 1031 c 1,50,51
 30 1041 30 1041 42 1040 c 1,52,-1
 144 1050 l 1,53,-1
 146 1050 l 2,54,55
 153 1050 153 1050 152 1043 c 2,56,-1
 142 938 l 2,57,58
 142 928 142 928 135 928 c 0,59,60
 108 928 108 928 79 923.5 c 128,-1,61
 50 919 50 919 30 899 c 1,0,1
EndSplineSet
EndChar

StartChar: J
Encoding: 74 74 44
Width: 0
Flags: W
LayerCount: 2
Fore
SplineSet
30 170 m 1,0,1
 50 150 50 150 78 144 c 128,-1,2
 106 138 106 138 135 138 c 0,3,4
 143 138 143 138 142 125 c 1,5,-1
 152 26 l 2,6,7
 152 18 152 18 146 18 c 2,8,-1
 144 18 l 1,9,-1
 42 26 l 2,10,11
 30 27 30 27 30 34 c 0,12,13
 30 61 30 61 25 90.5 c 128,-1,14
 20 120 20 120 0 140 c 1,15,16
 -20 120 -20 120 -25 90.5 c 128,-1,17
 -30 61 -30 61 -30 34 c 0,18,19
 -30 24 -30 24 -42 26 c 1,20,-1
 -144 18 l 1,21,-1
 -146 18 l 2,22,23
 -154 18 -154 18 -152 26 c 1,24,-1
 -142 125 l 1,25,26
 -142 135 -142 135 -135 138 c 1,27,28
 -121 138 -121 138 -107 139 c 128,-1,29
 -93 140 -93 140 -78 144 c 0,30,31
 -52 150 -52 150 -30 170 c 1,32,33
 -50 190 -50 190 -78 195 c 128,-1,34
 -106 200 -106 200 -135 200 c 0,35,36
 -143 200 -143 200 -142 210 c 1,37,-1
 -152 314 l 2,38,39
 -152 321 -152 321 -146 323 c 1,40,-1
 -144 323 l 1,41,-1
 -42 312 l 1,42,43
 -30 312 -30 312 -30 302 c 0,44,45
 -30 275 -30 275 -25 246.5 c 128,-1,46
 -20 218 -20 218 0 199 c 1,47,48
 20 219 20 219 25 246.5 c 128,-1,49
 30 274 30 274 30 302 c 0,50,51
 30 312 30 312 42 312 c 1,52,-1
 144 323 l 1,53,-1
 146 323 l 2,54,55
 153 323 153 323 152 314 c 2,56,-1
 142 210 l 2,57,58
 142 200 142 200 135 200 c 0,59,60
 108 200 108 200 79 195 c 128,-1,61
 50 190 50 190 30 170 c 1,0,1
EndSplineSet
EndChar

StartChar: K
Encoding: 75 75 45
Width: 0
Flags: W
LayerCount: 2
Fore
SplineSet
-114 643 m 1,0,1
 -107 647 -107 647 -99 648.5 c 128,-1,2
 -91 650 -91 650 -82 651 c 1,3,4
 -68 651 -68 651 -54 643 c 1,5,-1
 -57 422 l 1,6,-1
 82 442 l 1,7,-1
 86 442 l 2,8,9
 108 442 108 442 108 422 c 2,10,-1
 114 -306 l 1,11,12
 101 -316 101 -316 86 -316 c 256,13,14
 71 -316 71 -316 57 -306 c 1,15,-1
 57 -86 l 1,16,-1
 -80 -106 l 1,17,-1
 -82 -106 l 2,18,19
 -106 -106 -106 -106 -106 -86 c 2,20,-1
 -114 643 l 1,0,1
61 312 m 1,21,-1
 -57 294 l 1,22,-1
 -61 24 l 1,23,-1
 60 42 l 1,24,-1
 61 312 l 1,21,-1
EndSplineSet
EndChar

StartChar: L
Encoding: 76 76 46
Width: 0
Flags: W
LayerCount: 2
Fore
SplineSet
-80 71 m 2,0,1
 -80 68 -80 68 -81 64 c 128,-1,2
 -82 60 -82 60 -82 54 c 0,3,4
 -82 45 -82 45 -82 35 c 128,-1,5
 -82 25 -82 25 -80 14 c 0,6,7
 -79 4 -79 4 -78 -6 c 128,-1,8
 -77 -16 -77 -16 -78 -26 c 1,9,10
 -56 -8 -56 -8 -34 11 c 128,-1,11
 -12 30 -12 30 5 51 c 128,-1,12
 22 72 22 72 33 96.5 c 128,-1,13
 44 121 44 121 44 150 c 256,14,15
 44 179 44 179 30 209 c 0,16,17
 16 238 16 238 -12 238 c 0,18,19
 -42 238 -42 238 -59.5 214 c 128,-1,20
 -77 190 -77 190 -78 158 c 2,21,-1
 -80 71 l 2,0,1
-142 689 m 1,22,23
 -124 700 -124 700 -110 698 c 1,24,25
 -96 698 -96 698 -78 689 c 1,26,-1
 -88 246 l 1,27,28
 -62 264 -62 264 -34.5 275 c 128,-1,29
 -7 286 -7 286 26 286 c 0,30,31
 76 286 76 286 110 246 c 0,32,33
 142 208 142 208 142 158 c 0,34,35
 142 119 142 119 123.5 89.5 c 128,-1,36
 105 60 105 60 76.5 36 c 128,-1,37
 48 12 48 12 14 -9.5 c 128,-1,38
 -20 -31 -20 -31 -50 -56 c 0,39,40
 -58 -63 -58 -63 -63.5 -68 c 128,-1,41
 -69 -73 -69 -73 -71 -78 c 0,42,43
 -75 -86 -75 -86 -84.5 -88.5 c 128,-1,44
 -94 -91 -94 -91 -103.5 -89.5 c 128,-1,45
 -113 -88 -113 -88 -120.5 -83 c 128,-1,46
 -128 -78 -128 -78 -128 -71 c 2,47,-1
 -142 689 l 1,22,23
EndSplineSet
EndChar

StartChar: M
Encoding: 77 77 47
Width: 0
Flags: W
LayerCount: 2
Fore
SplineSet
-114 -136 m 1,0,1
 -102 -129 -102 -129 -82 -131 c 1,2,3
 -69 -131 -69 -131 -54 -136 c 1,4,-1
 -57 -358 l 1,5,-1
 82 -336 l 1,6,-1
 86 -336 l 2,7,8
 108 -336 108 -336 108 -358 c 2,9,-1
 114 -1086 l 1,10,11
 101 -1093 101 -1093 86 -1095 c 1,12,13
 72 -1095 72 -1095 57 -1086 c 1,14,-1
 57 -864 l 1,15,-1
 -80 -886 l 1,16,-1
 -82 -886 l 2,17,18
 -106 -886 -106 -886 -106 -866 c 2,19,-1
 -114 -136 l 1,0,1
61 -466 m 1,20,-1
 -57 -486 l 1,21,-1
 -61 -754 l 1,22,-1
 60 -736 l 1,23,-1
 61 -466 l 1,20,-1
EndSplineSet
EndChar

StartChar: N
Encoding: 78 78 48
Width: 0
Flags: W
LayerCount: 2
Fore
SplineSet
30 -622 m 1,0,1
 50 -642 50 -642 78 -647 c 128,-1,2
 106 -652 106 -652 135 -652 c 0,3,4
 143 -652 143 -652 142 -662 c 1,5,-1
 152 -766 l 2,6,7
 152 -774 152 -774 146 -775 c 1,8,-1
 144 -775 l 1,9,-1
 42 -764 l 1,10,11
 30 -764 30 -764 30 -754 c 0,12,13
 30 -727 30 -727 25 -698.5 c 128,-1,14
 20 -670 20 -670 0 -651 c 1,15,16
 -20 -671 -20 -671 -25 -698.5 c 128,-1,17
 -30 -726 -30 -726 -30 -754 c 0,18,19
 -30 -764 -30 -764 -42 -764 c 1,20,-1
 -144 -775 l 1,21,-1
 -146 -775 l 2,22,23
 -154 -775 -154 -775 -152 -766 c 1,24,-1
 -142 -662 l 2,25,26
 -142 -652 -142 -652 -135 -652 c 0,27,28
 -108 -652 -108 -652 -79 -647.5 c 128,-1,29
 -50 -643 -50 -643 -30 -622 c 1,30,31
 -50 -602 -50 -602 -78 -596.5 c 128,-1,32
 -106 -591 -106 -591 -135 -591 c 0,33,34
 -144 -591 -144 -591 -142 -579 c 1,35,-1
 -152 -478 l 2,36,37
 -152 -470 -152 -470 -146 -470 c 2,38,-1
 -144 -470 l 1,39,-1
 -42 -478 l 1,40,41
 -30 -480 -30 -480 -30 -486 c 0,42,43
 -30 -513 -30 -513 -25 -542.5 c 128,-1,44
 -20 -572 -20 -572 0 -592 c 1,45,46
 20 -572 20 -572 25 -543.5 c 128,-1,47
 30 -515 30 -515 30 -486 c 0,48,49
 30 -477 30 -477 42 -478 c 1,50,-1
 144 -470 l 1,51,-1
 146 -470 l 2,52,53
 154 -470 154 -470 152 -478 c 1,54,-1
 142 -579 l 1,55,56
 142 -590 142 -590 135 -591 c 1,57,58
 108 -591 108 -591 79 -596.5 c 128,-1,59
 50 -602 50 -602 30 -622 c 1,0,1
EndSplineSet
EndChar

StartChar: O
Encoding: 79 79 49
Width: 0
Flags: W
LayerCount: 2
Fore
SplineSet
-114 1393 m 1,0,1
 -102 1400 -102 1400 -82 1398 c 1,2,3
 -69 1398 -69 1398 -54 1393 c 1,4,-1
 -57 1171 l 1,5,-1
 82 1193 l 1,6,-1
 86 1193 l 2,7,8
 108 1193 108 1193 108 1171 c 2,9,-1
 114 442 l 1,10,11
 100 434 100 434 86 434 c 0,12,13
 73 434 73 434 57 442 c 1,14,-1
 57 664 l 1,15,-1
 -80 643 l 1,16,-1
 -82 643 l 2,17,18
 -106 643 -106 643 -106 662 c 2,19,-1
 -114 1393 l 1,0,1
61 1062 m 1,20,-1
 -57 1043 l 1,21,-1
 -61 775 l 1,22,-1
 60 792 l 1,23,-1
 61 1062 l 1,20,-1
EndSplineSet
EndChar

StartChar: P
Encoding: 80 80 50
Width: 0
Flags: W
LayerCount: 2
Fore
SplineSet
-80 790 m 2,0,1
 -80 787 -80 787 -81 783.5 c 128,-1,2
 -82 780 -82 780 -82 775 c 0,3,4
 -82 766 -82 766 -82 756.5 c 128,-1,5
 -82 747 -82 747 -80 736 c 0,6,7
 -79 726 -79 726 -78 715.5 c 128,-1,8
 -77 705 -77 705 -78 694 c 1,9,10
 -56 712 -56 712 -34 731 c 128,-1,11
 -12 750 -12 750 5 771 c 128,-1,12
 22 792 22 792 33 816.5 c 128,-1,13
 44 841 44 841 44 870 c 256,14,15
 44 899 44 899 30 930 c 0,16,17
 17 958 17 958 -12 958 c 0,18,19
 -42 957 -42 957 -59.5 933.5 c 128,-1,20
 -77 910 -77 910 -78 878 c 2,21,-1
 -80 790 l 2,0,1
-142 1408 m 1,22,23
 -126 1417 -126 1417 -110 1419 c 1,24,25
 -97 1419 -97 1419 -78 1408 c 1,26,-1
 -88 967 l 1,27,28
 -62 985 -62 985 -34.5 995.5 c 128,-1,29
 -7 1006 -7 1006 26 1006 c 0,30,31
 75 1006 75 1006 110 967 c 1,32,33
 142 929 142 929 142 878 c 0,34,35
 142 840 142 840 123.5 811 c 128,-1,36
 105 782 105 782 76.5 757.5 c 128,-1,37
 48 733 48 733 14 711 c 128,-1,38
 -20 689 -20 689 -50 664 c 0,39,40
 -58 657 -58 657 -63.5 652.5 c 128,-1,41
 -69 648 -69 648 -71 643 c 1,42,43
 -78 633 -78 633 -90 630 c 1,44,45
 -102 630 -102 630 -115 634 c 128,-1,46
 -128 638 -128 638 -128 651 c 2,47,-1
 -142 1408 l 1,22,23
EndSplineSet
EndChar

StartChar: Q
Encoding: 81 81 51
Width: 682
Flags: W
LayerCount: 2
Fore
SplineSet
690 2030 m 1,0,1
 491 1688 491 1688 392.5 1349 c 128,-1,2
 294 1010 294 1010 294 664 c 0,3,4
 294 322 294 322 392 -19.5 c 128,-1,5
 490 -361 490 -361 690 -707 c 1,6,-1
 451 -707 l 1,7,8
 225 -349 225 -349 114 -10.5 c 128,-1,9
 3 328 3 328 3 664 c 0,10,11
 3 998 3 998 113 1338.5 c 128,-1,12
 223 1679 223 1679 451 2030 c 1,13,-1
 690 2030 l 1,0,1
EndSplineSet
EndChar

StartChar: R
Encoding: 82 82 52
Width: 0
Flags: W
LayerCount: 2
Fore
SplineSet
-67 1342 m 1,0,-1
 312 828 l 1,1,-1
 186 828 l 1,2,-1
 -195 1342 l 1,3,-1
 -67 1342 l 1,0,-1
EndSplineSet
EndChar

StartChar: S
Encoding: 83 83 53
Width: 1106
Flags: W
LayerCount: 2
Fore
SplineSet
617 -1070 m 1,0,-1
 1918 -1070 l 1,1,-1
 1918 -1287 l 1,2,-1
 361 -1287 l 1,3,-1
 361 2251 l 1,4,-1
 -942 2251 l 1,5,-1
 -942 2464 l 1,6,-1
 617 2464 l 1,7,-1
 617 -1070 l 1,0,-1
EndSplineSet
EndChar

StartChar: U
Encoding: 85 85 54
Width: 0
Flags: W
LayerCount: 2
Fore
SplineSet
20 762 m 1,0,-1
 20 749 l 2,1,2
 20 731 20 731 21 711.5 c 128,-1,3
 22 692 22 692 24 672 c 1,4,5
 66 706 66 706 95.5 744 c 128,-1,6
 125 782 125 782 125 835 c 0,7,8
 125 849 125 849 123 863 c 128,-1,9
 121 877 121 877 115.5 888 c 128,-1,10
 110 899 110 899 101 905.5 c 128,-1,11
 92 912 92 912 78 912 c 0,12,13
 52 912 52 912 37.5 891 c 128,-1,14
 23 870 23 870 22 840 c 2,15,-1
 20 762 l 1,0,-1
-24 754 m 1,16,17
 -37 739 -37 739 -51.5 725.5 c 128,-1,18
 -66 712 -66 712 -82 700 c 0,19,20
 -99 687 -99 687 -115 674 c 128,-1,21
 -131 661 -131 661 -146 647 c 0,22,23
 -156 637 -156 637 -164 623.5 c 128,-1,24
 -172 610 -172 610 -186 610 c 0,25,26
 -196 610 -196 610 -203 616 c 128,-1,27
 -210 622 -210 622 -210 634 c 2,28,-1
 -222 1322 l 1,29,30
 -208 1330 -208 1330 -195 1330 c 256,31,32
 -182 1330 -182 1330 -166 1322 c 1,33,-1
 -174 922 l 1,34,35
 -140 956 -140 956 -94 956 c 0,36,37
 -58 956 -58 956 -30 930 c 1,38,-1
 -37 1322 l 1,39,40
 -23 1330 -23 1330 -7 1330 c 0,41,42
 6 1330 6 1330 22 1322 c 1,43,-1
 14 922 l 1,44,45
 57 956 57 956 114 956 c 0,46,47
 138 956 138 956 157.5 947 c 128,-1,48
 177 938 177 938 191.5 922.5 c 128,-1,49
 206 907 206 907 214 886.5 c 128,-1,50
 222 866 222 866 222 843 c 0,51,52
 222 807 222 807 205 780.5 c 128,-1,53
 188 754 188 754 162 732.5 c 128,-1,54
 136 711 136 711 105 691 c 128,-1,55
 74 671 74 671 46 647 c 1,56,57
 37 636 37 636 27.5 623 c 128,-1,58
 18 610 18 610 3 610 c 0,59,60
 -7 610 -7 610 -14.5 616 c 128,-1,61
 -22 622 -22 622 -22 634 c 2,62,-1
 -24 754 l 1,16,17
-174 762 m 1,63,-1
 -174 749 l 2,64,65
 -174 730 -174 730 -173.5 710 c 128,-1,66
 -173 690 -173 690 -172 670 c 1,67,68
 -138 704 -138 704 -113 745.5 c 128,-1,69
 -88 787 -88 787 -88 835 c 0,70,71
 -88 849 -88 849 -89.5 863 c 128,-1,72
 -91 877 -91 877 -95.5 888 c 128,-1,73
 -100 899 -100 899 -108 905.5 c 128,-1,74
 -116 912 -116 912 -128 912 c 0,75,76
 -150 912 -150 912 -162 890.5 c 128,-1,77
 -174 869 -174 869 -174 840 c 2,78,-1
 -174 762 l 1,63,-1
EndSplineSet
EndChar

StartChar: V
Encoding: 86 86 55
Width: 0
Flags: W
LayerCount: 2
Fore
SplineSet
34 -317 m 2,0,1
 44 -317 44 -317 42 -331 c 1,2,-1
 42 -490 l 1,3,-1
 208 -490 l 2,4,5
 218 -490 218 -490 218 -502 c 2,6,-1
 218 -568 l 2,7,8
 218 -578 218 -578 208 -579 c 1,9,-1
 42 -579 l 1,10,-1
 42 -742 l 2,11,12
 42 -751 42 -751 34 -753 c 1,13,-1
 -31 -753 l 2,14,15
 -40 -753 -40 -753 -42 -742 c 1,16,-1
 -42 -579 l 1,17,-1
 -206 -579 l 2,18,19
 -216 -579 -216 -579 -216 -568 c 2,20,-1
 -216 -502 l 2,21,22
 -216 -491 -216 -491 -206 -490 c 1,23,-1
 -42 -490 l 1,24,-1
 -42 -331 l 2,25,26
 -42 -322 -42 -322 -31 -317 c 1,27,-1
 34 -317 l 2,0,1
EndSplineSet
EndChar

StartChar: W
Encoding: 87 87 56
Width: 682
Flags: W
LayerCount: 2
Fore
SplineSet
169 2030 m 1,0,1
 395 1676 395 1676 506 1337 c 128,-1,2
 617 998 617 998 617 664 c 0,3,4
 617 328 617 328 506 -10 c 128,-1,5
 395 -348 395 -348 169 -707 c 1,6,-1
 -72 -707 l 1,7,8
 127 -361 127 -361 225.5 -19 c 128,-1,9
 324 323 324 323 324 664 c 0,10,11
 324 1010 324 1010 224.5 1350.5 c 128,-1,12
 125 1691 125 1691 -72 2030 c 1,13,-1
 169 2030 l 1,0,1
EndSplineSet
EndChar

StartChar: X
Encoding: 88 88 57
Width: 0
Flags: W
LayerCount: 2
Fore
SplineSet
-67 -210 m 1,0,-1
 312 -726 l 1,1,-1
 186 -726 l 1,2,-1
 -195 -210 l 1,3,-1
 -67 -210 l 1,0,-1
EndSplineSet
EndChar

StartChar: Y
Encoding: 89 89 58
Width: 0
Flags: W
LayerCount: 2
Fore
SplineSet
34 1194 m 2,0,1
 44 1194 44 1194 42 1186 c 1,2,-1
 42 1022 l 1,3,-1
 208 1022 l 2,4,5
 218 1022 218 1022 218 1013 c 2,6,-1
 218 946 l 2,7,8
 218 935 218 935 208 934 c 1,9,-1
 42 934 l 1,10,-1
 42 772 l 2,11,12
 42 762 42 762 34 762 c 2,13,-1
 -31 762 l 2,14,15
 -41 762 -41 762 -42 772 c 1,16,-1
 -42 934 l 1,17,-1
 -206 934 l 2,18,19
 -216 934 -216 934 -216 946 c 2,20,-1
 -216 1013 l 2,21,22
 -216 1023 -216 1023 -206 1022 c 1,23,-1
 -42 1022 l 1,24,-1
 -42 1186 l 2,25,26
 -42 1196 -42 1196 -31 1194 c 1,27,-1
 34 1194 l 2,0,1
EndSplineSet
EndChar

StartChar: Z
Encoding: 90 90 59
Width: 682
Flags: W
LayerCount: 2
Fore
SplineSet
1013 1239 m 1,0,1
 827 1357 827 1357 643 1356 c 0,2,3
 497 1356 497 1356 414 1291 c 0,4,5
 372 1258 372 1258 352 1213 c 128,-1,6
 332 1168 332 1168 332 1111 c 0,7,8
 332 1010 332 1010 387 958 c 0,9,10
 414 932 414 932 464.5 911.5 c 128,-1,11
 515 891 515 891 591 873 c 2,12,-1
 696 848 l 2,13,14
 801 823 801 823 877 785 c 128,-1,15
 953 747 953 747 1002.5 693 c 128,-1,16
 1052 639 1052 639 1075.5 568.5 c 128,-1,17
 1099 498 1099 498 1099 408 c 0,18,19
 1099 193 1099 193 969.5 81.5 c 128,-1,20
 840 -30 840 -30 583 -30 c 0,21,22
 371 -30 371 -30 158 61 c 1,23,-1
 158 276 l 1,24,25
 272 202 272 202 375 168.5 c 128,-1,26
 478 135 478 135 583 135 c 0,27,28
 736 135 736 135 822 203 c 0,29,30
 907 270 907 270 907 395 c 0,31,32
 907 507 907 507 847 566 c 0,33,34
 786 627 786 627 643 658 c 2,35,-1
 534 682 l 2,36,37
 331 727 331 727 234 824 c 0,38,39
 138 920 138 920 138 1078 c 0,40,41
 137 1276 137 1276 274 1398 c 256,42,43
 411 1520 411 1520 630 1521 c 0,44,45
 801 1521 801 1521 1013 1442 c 1,46,-1
 1013 1239 l 1,0,1
EndSplineSet
EndChar

StartChar: bracketleft
Encoding: 91 91 60
Width: 1081
Flags: W
LayerCount: 2
Fore
SplineSet
462 101 m 1,0,-1
 462 78 l 2,1,2
 462 44 462 44 464 11 c 128,-1,3
 466 -22 466 -22 470 -54 c 1,4,5
 504 -27 504 -27 536 4 c 128,-1,6
 568 35 568 35 593 69.5 c 128,-1,7
 618 104 618 104 633 142.5 c 128,-1,8
 648 181 648 181 648 223 c 0,9,10
 648 248 648 248 643 273 c 128,-1,11
 638 298 638 298 628 318 c 128,-1,12
 618 338 618 338 602.5 350 c 128,-1,13
 587 362 587 362 566 362 c 0,14,15
 543 362 543 362 524.5 351.5 c 128,-1,16
 506 341 506 341 492.5 324 c 128,-1,17
 479 307 479 307 471.5 284.5 c 128,-1,18
 464 262 464 262 464 238 c 2,19,-1
 462 101 l 1,0,-1
384 90 m 1,20,21
 339 37 339 37 283.5 -7.5 c 128,-1,22
 228 -52 228 -52 174 -101 c 0,23,24
 165 -109 165 -109 157.5 -120 c 128,-1,25
 150 -131 150 -131 142.5 -141 c 128,-1,26
 135 -151 135 -151 126.5 -158 c 128,-1,27
 118 -165 118 -165 105 -165 c 0,28,29
 87 -165 87 -165 74 -152.5 c 128,-1,30
 61 -140 61 -140 61 -122 c 2,31,-1
 41 1077 l 1,32,33
 53 1084 53 1084 64.5 1087.5 c 128,-1,34
 76 1091 76 1091 90 1091 c 256,35,36
 104 1091 104 1091 116 1086.5 c 128,-1,37
 128 1082 128 1082 140 1077 c 1,38,-1
 128 378 l 1,39,40
 154 408 154 408 190 423 c 128,-1,41
 226 438 226 438 264 438 c 0,42,43
 298 438 298 438 326 426 c 128,-1,44
 354 414 354 414 378 392 c 1,45,-1
 365 1077 l 1,46,47
 377 1084 377 1084 388.5 1087.5 c 128,-1,48
 400 1091 400 1091 414 1091 c 256,49,50
 428 1091 428 1091 441.5 1086.5 c 128,-1,51
 455 1082 455 1082 466 1077 c 1,52,-1
 452 378 l 1,53,54
 525 438 525 438 625 438 c 0,55,56
 665 438 665 438 700 422 c 128,-1,57
 735 406 735 406 760 379 c 128,-1,58
 785 352 785 352 799.5 316 c 128,-1,59
 814 280 814 280 814 240 c 0,60,61
 814 179 814 179 784 132.5 c 128,-1,62
 754 86 754 86 708.5 47 c 128,-1,63
 663 8 663 8 609 -27 c 128,-1,64
 555 -62 555 -62 508 -101 c 1,65,66
 500 -110 500 -110 491 -121 c 128,-1,67
 482 -132 482 -132 472.5 -141.5 c 128,-1,68
 463 -151 463 -151 452 -158 c 128,-1,69
 441 -165 441 -165 430 -165 c 0,70,71
 412 -165 412 -165 400 -152.5 c 128,-1,72
 388 -140 388 -140 388 -122 c 2,73,-1
 384 90 l 1,20,21
122 101 m 1,74,-1
 122 78 l 2,75,76
 122 44 122 44 123.5 11 c 128,-1,77
 125 -22 125 -22 131 -57 c 1,78,79
 160 -31 160 -31 186 1 c 128,-1,80
 212 33 212 33 231.5 69 c 128,-1,81
 251 105 251 105 262.5 144 c 128,-1,82
 274 183 274 183 274 223 c 0,83,84
 274 248 274 248 271 273 c 128,-1,85
 268 298 268 298 260.5 318 c 128,-1,86
 253 338 253 338 239.5 350 c 128,-1,87
 226 362 226 362 206 362 c 256,88,89
 186 362 186 362 171 351.5 c 128,-1,90
 156 341 156 341 145.5 324 c 128,-1,91
 135 307 135 307 129.5 284.5 c 128,-1,92
 124 262 124 262 124 238 c 2,93,-1
 122 101 l 1,74,-1
EndSplineSet
EndChar

StartChar: backslash
Encoding: 92 92 61
Width: 1368
Flags: W
LayerCount: 2
Fore
SplineSet
294 1495 m 1,0,-1
 1078 -189 l 1,1,-1
 890 -189 l 1,2,-1
 102 1495 l 1,3,-1
 294 1495 l 1,0,-1
EndSplineSet
EndChar

StartChar: bracketright
Encoding: 93 93 62
Width: 775
Flags: W
LayerCount: 2
Fore
SplineSet
37 1111 m 1,0,1
 60 1123 60 1123 84 1122 c 1,2,3
 109 1122 109 1122 131 1111 c 1,4,-1
 125 760 l 1,5,-1
 344 794 l 2,6,7
 347 794 347 794 347.5 795 c 128,-1,8
 348 796 348 796 350 796 c 0,9,10
 364 796 364 796 374 786 c 128,-1,11
 384 776 384 776 384 762 c 2,12,-1
 396 -391 l 1,13,14
 375 -402 375 -402 350 -402 c 1,15,16
 337 -401 337 -401 325.5 -398.5 c 128,-1,17
 314 -396 314 -396 304 -391 c 1,18,-1
 308 -41 l 1,19,-1
 88 -74 l 2,20,21
 85 -74 85 -74 85.5 -75 c 128,-1,22
 86 -76 86 -76 84 -76 c 0,23,24
 70 -76 70 -76 60 -66 c 128,-1,25
 50 -56 50 -56 50 -42 c 2,26,-1
 37 1111 l 1,0,1
314 588 m 1,27,-1
 124 558 l 1,28,-1
 118 132 l 1,29,-1
 310 162 l 1,30,-1
 314 588 l 1,27,-1
EndSplineSet
EndChar

StartChar: asciicircum
Encoding: 94 94 63
Width: 0
Flags: W
LayerCount: 2
Fore
SplineSet
50 971 m 0,0,1
 4 971 4 971 -19 945 c 128,-1,2
 -42 919 -42 919 -42 877 c 0,3,4
 -42 831 -42 831 -17.5 807 c 128,-1,5
 7 783 7 783 50 783 c 0,6,7
 140 783 140 783 140 877 c 0,8,9
 140 919 140 919 116 945 c 128,-1,10
 92 971 92 971 50 971 c 0,0,1
-131 870 m 0,11,12
 -131 976 -131 976 -46 1010 c 1,13,14
 -80 1028 -80 1028 -100 1057 c 128,-1,15
 -120 1086 -120 1086 -120 1129 c 0,16,17
 -120 1201 -120 1201 -74 1237.5 c 128,-1,18
 -28 1274 -28 1274 50 1274 c 256,19,20
 128 1274 128 1274 173.5 1236 c 128,-1,21
 219 1198 219 1198 219 1129 c 0,22,23
 219 1087 219 1087 199.5 1057 c 128,-1,24
 180 1027 180 1027 144 1010 c 1,25,26
 186 992 186 992 208 956.5 c 128,-1,27
 230 921 230 921 230 870 c 0,28,29
 230 795 230 795 182.5 751 c 128,-1,30
 135 707 135 707 50 707 c 0,31,32
 -37 707 -37 707 -84 749.5 c 128,-1,33
 -131 792 -131 792 -131 870 c 0,11,12
-27 1122 m 0,34,35
 -27 1044 -27 1044 50 1044 c 0,36,37
 125 1044 125 1044 125 1122 c 1,38,39
 123 1202 123 1202 50 1202 c 0,40,41
 -27 1202 -27 1202 -27 1122 c 0,34,35
EndSplineSet
EndChar

StartChar: underscore
Encoding: 95 95 64
Width: 0
Flags: W
LayerCount: 2
Fore
SplineSet
-80 1551 m 2,0,1
 -80 1548 -80 1548 -81 1543.5 c 128,-1,2
 -82 1539 -82 1539 -82 1534 c 0,3,4
 -82 1516 -82 1516 -80 1495.5 c 128,-1,5
 -78 1475 -78 1475 -78 1453 c 1,6,7
 -56 1471 -56 1471 -34 1490 c 128,-1,8
 -12 1509 -12 1509 5.5 1530 c 128,-1,9
 23 1551 23 1551 33.5 1575 c 128,-1,10
 44 1599 44 1599 44 1628 c 256,11,12
 44 1657 44 1657 30 1688 c 0,13,14
 16 1718 16 1718 -12 1718 c 0,15,16
 -42 1718 -42 1718 -59.5 1694.5 c 128,-1,17
 -77 1671 -77 1671 -78 1638 c 2,18,-1
 -80 1551 l 2,0,1
-142 2166 m 1,19,20
 -124 2176 -124 2176 -110 2178 c 1,21,22
 -96 2178 -96 2178 -78 2166 c 1,23,-1
 -88 1726 l 1,24,25
 -62 1744 -62 1744 -34.5 1754.5 c 128,-1,26
 -7 1765 -7 1765 26 1765 c 0,27,28
 75 1765 75 1765 110 1726 c 1,29,30
 142 1688 142 1688 142 1638 c 0,31,32
 142 1599 142 1599 124 1569.5 c 128,-1,33
 106 1540 106 1540 77.5 1515.5 c 128,-1,34
 49 1491 49 1491 15 1469 c 128,-1,35
 -19 1447 -19 1447 -50 1423 c 0,36,37
 -67 1411 -67 1411 -71 1401 c 1,38,39
 -78 1392 -78 1392 -90 1390 c 1,40,41
 -102 1390 -102 1390 -115 1394 c 128,-1,42
 -128 1398 -128 1398 -128 1408 c 2,43,-1
 -142 2166 l 1,19,20
EndSplineSet
EndChar

StartChar: grave
Encoding: 96 96 65
Width: 1368
Flags: W
LayerCount: 2
Fore
SplineSet
478 1638 m 1,0,-1
 758 1262 l 1,1,-1
 604 1262 l 1,2,-1
 278 1638 l 1,3,-1
 478 1638 l 1,0,-1
EndSplineSet
EndChar

StartChar: a
Encoding: 97 97 66
Width: 1871
Flags: W
LayerCount: 2
Fore
SplineSet
152 995 m 1,0,-1
 152 124 l 1,1,-1
 335 124 l 2,2,3
 451 124 451 124 535.5 149.5 c 128,-1,4
 620 175 620 175 674.5 228.5 c 128,-1,5
 729 282 729 282 755.5 364.5 c 128,-1,6
 782 447 782 447 782 561 c 0,7,8
 782 673 782 673 755.5 755 c 128,-1,9
 729 837 729 837 674.5 890.5 c 128,-1,10
 620 944 620 944 535.5 969.5 c 128,-1,11
 451 995 451 995 335 995 c 2,12,-1
 152 995 l 1,0,-1
1 1120 m 1,13,-1
 312 1120 l 2,14,15
 637 1120 637 1120 789 984 c 0,16,17
 942 847 942 847 942 561 c 0,18,19
 942 415 942 415 904.5 309.5 c 128,-1,20
 867 204 867 204 789 135 c 128,-1,21
 711 66 711 66 592.5 33 c 128,-1,22
 474 0 474 0 312 0 c 2,23,-1
 1 0 l 1,24,-1
 1 1120 l 1,13,-1
1385 743 m 0,25,26
 1273 743 1273 743 1209 656 c 1,27,28
 1145 571 1145 571 1145 419 c 0,29,30
 1145 344 1145 344 1161.5 284 c 128,-1,31
 1178 224 1178 224 1209 182 c 128,-1,32
 1240 140 1240 140 1284.5 117.5 c 128,-1,33
 1329 95 1329 95 1385 95 c 0,34,35
 1494 95 1494 95 1559 182 c 1,36,37
 1624 271 1624 271 1624 419 c 0,38,39
 1624 566 1624 566 1559 655 c 0,40,41
 1495 743 1495 743 1385 743 c 0,25,26
1385 860 m 0,42,43
 1564 860 1564 860 1668 743 c 0,44,45
 1771 628 1771 628 1771 419 c 0,46,47
 1771 213 1771 213 1668 95 c 1,48,49
 1564 -22 1564 -22 1385 -22 c 0,50,51
 1204 -22 1204 -22 1102 95 c 0,52,53
 1000 213 1000 213 1000 419 c 0,54,55
 1000 626 1000 626 1102 743 c 256,56,57
 1204 860 1204 860 1385 860 c 0,42,43
1508 1228 m 1,58,-1
 1657 1228 l 1,59,-1
 1413 946 l 1,60,-1
 1298 946 l 1,61,-1
 1508 1228 l 1,58,-1
EndSplineSet
EndChar

StartChar: b
Encoding: 98 98 67
Width: 1952
Flags: W
LayerCount: 2
Fore
SplineSet
1714 1166 m 1,0,-1
 1852 1166 l 1,1,-1
 1852 -1 l 1,2,-1
 1714 -1 l 1,3,-1
 1714 1166 l 1,0,-1
1177 743 m 0,4,5
 1065 743 1065 743 1001 656 c 1,6,7
 937 571 937 571 937 419 c 0,8,9
 937 344 937 344 953.5 284 c 128,-1,10
 970 224 970 224 1001 182 c 128,-1,11
 1032 140 1032 140 1076.5 117.5 c 128,-1,12
 1121 95 1121 95 1177 95 c 0,13,14
 1286 95 1286 95 1351 182 c 1,15,16
 1416 271 1416 271 1416 419 c 0,17,18
 1416 566 1416 566 1351 655 c 0,19,20
 1287 743 1287 743 1177 743 c 0,4,5
1177 860 m 0,21,22
 1356 860 1356 860 1460 743 c 0,23,24
 1563 628 1563 628 1563 419 c 0,25,26
 1563 213 1563 213 1460 95 c 1,27,28
 1356 -22 1356 -22 1177 -22 c 0,29,30
 996 -22 996 -22 894 95 c 0,31,32
 792 213 792 213 792 419 c 0,33,34
 792 626 792 626 894 743 c 256,35,36
 996 860 996 860 1177 860 c 0,21,22
597 685 m 1,37,38
 481 745 481 745 345 745 c 0,39,40
 140 745 140 745 140 619 c 0,41,42
 140 568 140 568 176 543 c 1,43,44
 213 515 213 515 324 491 c 2,45,-1
 371 481 l 2,46,47
 519 449 519 449 580 391 c 1,48,49
 642 334 642 334 642 232 c 0,50,51
 642 115 642 115 549 46 c 0,52,53
 457 -22 457 -22 295 -22 c 0,54,55
 226 -22 226 -22 153.5 -9 c 128,-1,56
 81 4 81 4 0 31 c 1,57,-1
 0 173 l 1,58,59
 154 94 154 94 298 94 c 0,60,61
 395 94 395 94 447.5 127 c 128,-1,62
 500 160 500 160 500 221 c 0,63,64
 500 277 500 277 462 307 c 0,65,66
 425 335 425 335 296 365 c 2,67,-1
 248 376 l 2,68,69
 184 391 184 391 138.5 411 c 128,-1,70
 93 431 93 431 63.5 459.5 c 128,-1,71
 34 488 34 488 20 525.5 c 128,-1,72
 6 563 6 563 6 613 c 0,73,74
 6 731 6 731 88.5 795.5 c 128,-1,75
 171 860 171 860 329 860 c 0,76,77
 405 860 405 860 472.5 849 c 128,-1,78
 540 838 540 838 597 815 c 1,79,-1
 597 685 l 1,37,38
EndSplineSet
EndChar

StartChar: c
Encoding: 99 99 68
Width: 1664
Flags: W
LayerCount: 2
Fore
SplineSet
659 679 m 1,0,1
 710 773 710 773 781 816.5 c 128,-1,2
 852 860 852 860 952 860 c 0,3,4
 1086 860 1086 860 1156 769.5 c 128,-1,5
 1226 679 1226 679 1226 507 c 2,6,-1
 1226 0 l 1,7,-1
 1087 0 l 1,8,-1
 1087 502 l 2,9,10
 1087 623 1087 623 1044.5 681.5 c 128,-1,11
 1002 740 1002 740 914 740 c 0,12,13
 860 740 860 740 817 721.5 c 128,-1,14
 774 703 774 703 744 669 c 128,-1,15
 714 635 714 635 698 585.5 c 128,-1,16
 682 536 682 536 682 475 c 2,17,-1
 682 0 l 1,18,-1
 543 0 l 1,19,-1
 543 502 l 2,20,21
 543 626 543 626 501 683 c 128,-1,22
 459 740 459 740 368 740 c 0,23,24
 263 740 263 740 200 668 c 0,25,26
 138 597 138 597 138 475 c 2,27,-1
 138 0 l 1,28,-1
 -1 0 l 1,29,-1
 -1 840 l 1,30,-1
 138 840 l 1,31,-1
 138 709 l 1,32,33
 186 787 186 787 251.5 823.5 c 128,-1,34
 317 860 317 860 408 860 c 0,35,36
 502 860 502 860 565 813.5 c 128,-1,37
 628 767 628 767 659 679 c 1,0,1
1427 840 m 1,38,-1
 1565 840 l 1,39,-1
 1565 0 l 1,40,-1
 1427 0 l 1,41,-1
 1427 840 l 1,38,-1
1427 1167 m 1,42,-1
 1565 1167 l 1,43,-1
 1565 992 l 1,44,-1
 1427 992 l 1,45,-1
 1427 1167 l 1,42,-1
EndSplineSet
EndChar

StartChar: d
Encoding: 100 100 69
Width: 1455
Flags: W
LayerCount: 2
Fore
SplineSet
1 1120 m 1,0,-1
 226 1120 l 1,1,-1
 512 358 l 1,2,-1
 799 1120 l 1,3,-1
 1025 1120 l 1,4,-1
 1025 0 l 1,5,-1
 877 0 l 1,6,-1
 877 983 l 1,7,-1
 589 215 l 1,8,-1
 436 215 l 1,9,-1
 148 983 l 1,10,-1
 148 0 l 1,11,-1
 1 0 l 1,12,-1
 1 1120 l 1,0,-1
1217 840 m 1,13,-1
 1355 840 l 1,14,-1
 1355 0 l 1,15,-1
 1217 0 l 1,16,-1
 1217 840 l 1,13,-1
1217 1167 m 1,17,-1
 1355 1167 l 1,18,-1
 1355 992 l 1,19,-1
 1217 992 l 1,20,-1
 1217 1167 l 1,17,-1
EndSplineSet
EndChar

StartChar: e
Encoding: 101 101 70
Width: 1482
Flags: W
LayerCount: 2
Fore
SplineSet
131 1120 m 1,0,-1
 314 1120 l 1,1,-1
 314 0 l 1,2,-1
 131 0 l 1,3,-1
 131 1120 l 1,0,-1
131 1556 m 1,4,-1
 314 1556 l 1,5,-1
 314 1322 l 1,6,-1
 131 1322 l 1,7,-1
 131 1556 l 1,4,-1
638 1120 m 1,8,-1
 822 1120 l 1,9,-1
 822 0 l 1,10,-1
 638 0 l 1,11,-1
 638 1120 l 1,8,-1
638 1556 m 1,12,-1
 822 1556 l 1,13,-1
 822 1322 l 1,14,-1
 638 1322 l 1,15,-1
 638 1556 l 1,12,-1
1150 1120 m 1,16,-1
 1334 1120 l 1,17,-1
 1334 0 l 1,18,-1
 1150 0 l 1,19,-1
 1150 1120 l 1,16,-1
1150 1556 m 1,20,-1
 1334 1556 l 1,21,-1
 1334 1322 l 1,22,-1
 1150 1322 l 1,23,-1
 1150 1556 l 1,20,-1
EndSplineSet
EndChar

StartChar: f
Encoding: 102 102 71
Width: 1493
Flags: W
LayerCount: 2
Fore
SplineSet
0 1120 m 1,0,-1
 643 1120 l 1,1,-1
 643 992 l 1,2,-1
 151 992 l 1,3,-1
 151 662 l 1,4,-1
 595 662 l 1,5,-1
 595 535 l 1,6,-1
 151 535 l 1,7,-1
 151 0 l 1,8,-1
 0 0 l 1,9,-1
 0 1120 l 1,0,-1
1119 422 m 2,10,11
 952 422 952 422 887 384 c 0,12,13
 823 347 823 347 823 253 c 0,14,15
 823 180 823 180 870.5 137 c 128,-1,16
 918 94 918 94 1003 94 c 0,17,18
 1115 94 1115 94 1186 175 c 0,19,20
 1256 255 1256 255 1256 391 c 2,21,-1
 1256 422 l 1,22,-1
 1119 422 l 2,10,11
1394 0 m 1,23,-1
 1256 0 l 1,24,-1
 1256 127 l 1,25,26
 1208 51 1208 51 1138.5 14.5 c 128,-1,27
 1069 -22 1069 -22 966 -22 c 0,28,29
 837 -22 837 -22 761 50 c 0,30,31
 685 123 685 123 685 244 c 0,32,33
 685 530 685 530 1063 530 c 2,34,-1
 1256 530 l 1,35,-1
 1256 544 l 2,36,37
 1256 641 1256 641 1194.5 692 c 128,-1,38
 1133 743 1133 743 1018 743 c 0,39,40
 946 743 946 743 877.5 726 c 128,-1,41
 809 709 809 709 746 674 c 1,42,-1
 746 802 l 1,43,44
 893 860 893 860 1032 860 c 0,45,46
 1217 860 1217 860 1305.5 767 c 128,-1,47
 1394 674 1394 674 1394 479 c 2,48,-1
 1394 0 l 1,23,-1
1147 1213 m 1,49,-1
 1296 1213 l 1,50,-1
 1051 931 l 1,51,-1
 937 931 l 1,52,-1
 1147 1213 l 1,49,-1
EndSplineSet
EndChar

StartChar: g
Encoding: 103 103 72
Width: 1996
Flags: W
LayerCount: 2
Fore
SplineSet
642 928 m 1,0,1
 502 1017 502 1017 364 1017 c 0,2,3
 310 1017 310 1017 267 1004 c 128,-1,4
 224 991 224 991 194 967 c 128,-1,5
 164 943 164 943 148 908.5 c 128,-1,6
 132 874 132 874 132 832 c 0,7,8
 132 758 132 758 173 719 c 1,9,10
 212 679 212 679 325 654 c 2,11,-1
 405 636 l 2,12,13
 562 601 562 601 634 521 c 128,-1,14
 706 441 706 441 706 306 c 0,15,16
 706 143 706 143 608.5 60.5 c 128,-1,17
 511 -22 511 -22 319 -22 c 0,18,19
 167 -22 167 -22 1 46 c 1,20,-1
 1 207 l 1,21,22
 88 152 88 152 164.5 126.5 c 128,-1,23
 241 101 241 101 319 101 c 0,24,25
 434 101 434 101 498 151.5 c 128,-1,26
 562 202 562 202 562 296 c 0,27,28
 562 380 562 380 518 424 c 0,29,30
 474 469 474 469 365 493 c 2,31,-1
 284 511 l 2,32,33
 128 545 128 545 57.5 617 c 128,-1,34
 -13 689 -13 689 -13 809 c 0,35,36
 -13 959 -13 959 88 1049 c 1,37,38
 188 1140 188 1140 356 1140 c 0,39,40
 485 1140 485 1140 642 1081 c 1,41,-1
 642 928 l 1,0,1
1757 1166 m 1,42,-1
 1895 1166 l 1,43,-1
 1895 -1 l 1,44,-1
 1757 -1 l 1,45,-1
 1757 1166 l 1,42,-1
1220 743 m 0,46,47
 1108 743 1108 743 1044 656 c 1,48,49
 980 571 980 571 980 419 c 0,50,51
 980 344 980 344 996.5 284 c 128,-1,52
 1013 224 1013 224 1044 182 c 128,-1,53
 1075 140 1075 140 1119.5 117.5 c 128,-1,54
 1164 95 1164 95 1220 95 c 0,55,56
 1329 95 1329 95 1394 182 c 1,57,58
 1459 271 1459 271 1459 419 c 0,59,60
 1459 566 1459 566 1394 655 c 0,61,62
 1330 743 1330 743 1220 743 c 0,46,47
1220 860 m 0,63,64
 1399 860 1399 860 1503 743 c 0,65,66
 1606 628 1606 628 1606 419 c 0,67,68
 1606 213 1606 213 1503 95 c 1,69,70
 1399 -22 1399 -22 1220 -22 c 0,71,72
 1039 -22 1039 -22 937 95 c 0,73,74
 835 213 835 213 835 419 c 0,75,76
 835 626 835 626 937 743 c 256,77,78
 1039 860 1039 860 1220 860 c 0,63,64
EndSplineSet
EndChar

StartChar: h
Encoding: 104 104 73
Width: 1593
Flags: W
LayerCount: 2
Fore
SplineSet
1 1120 m 1,0,-1
 153 1120 l 1,1,-1
 153 127 l 1,2,-1
 698 127 l 1,3,-1
 698 0 l 1,4,-1
 1 0 l 1,5,-1
 1 1120 l 1,0,-1
1219 422 m 2,6,7
 1052 422 1052 422 987 384 c 0,8,9
 923 347 923 347 923 253 c 0,10,11
 923 180 923 180 970.5 137 c 128,-1,12
 1018 94 1018 94 1103 94 c 0,13,14
 1215 94 1215 94 1286 175 c 0,15,16
 1356 255 1356 255 1356 391 c 2,17,-1
 1356 422 l 1,18,-1
 1219 422 l 2,6,7
1494 0 m 1,19,-1
 1356 0 l 1,20,-1
 1356 127 l 1,21,22
 1308 51 1308 51 1238.5 14.5 c 128,-1,23
 1169 -22 1169 -22 1066 -22 c 0,24,25
 937 -22 937 -22 861 50 c 0,26,27
 785 123 785 123 785 244 c 0,28,29
 785 530 785 530 1163 530 c 2,30,-1
 1356 530 l 1,31,-1
 1356 544 l 2,32,33
 1356 641 1356 641 1294.5 692 c 128,-1,34
 1233 743 1233 743 1118 743 c 0,35,36
 1046 743 1046 743 977.5 726 c 128,-1,37
 909 709 909 709 846 674 c 1,38,-1
 846 802 l 1,39,40
 993 860 993 860 1132 860 c 0,41,42
 1317 860 1317 860 1405.5 767 c 128,-1,43
 1494 674 1494 674 1494 479 c 2,44,-1
 1494 0 l 1,19,-1
1247 1213 m 1,45,-1
 1396 1213 l 1,46,-1
 1151 931 l 1,47,-1
 1037 931 l 1,48,-1
 1247 1213 l 1,45,-1
EndSplineSet
EndChar

StartChar: i
Encoding: 105 105 74
Width: 0
Flags: W
LayerCount: 2
Fore
SplineSet
-1402 835 m 1,0,-1
 102 835 l 1,1,-1
 102 692 l 1,2,-1
 -1402 692 l 1,3,-1
 -1402 835 l 1,0,-1
EndSplineSet
EndChar

StartChar: j
Encoding: 106 106 75
Width: 1165
Flags: W
LayerCount: 2
Fore
SplineSet
642 928 m 1,0,1
 502 1017 502 1017 364 1017 c 0,2,3
 310 1017 310 1017 267 1004 c 128,-1,4
 224 991 224 991 194 967 c 128,-1,5
 164 943 164 943 148 908.5 c 128,-1,6
 132 874 132 874 132 832 c 0,7,8
 132 758 132 758 173 719 c 1,9,10
 212 679 212 679 325 654 c 2,11,-1
 405 636 l 2,12,13
 562 601 562 601 634 521 c 128,-1,14
 706 441 706 441 706 306 c 0,15,16
 706 143 706 143 608.5 60.5 c 128,-1,17
 511 -22 511 -22 319 -22 c 0,18,19
 167 -22 167 -22 1 46 c 1,20,-1
 1 207 l 1,21,22
 88 152 88 152 164.5 126.5 c 128,-1,23
 241 101 241 101 319 101 c 0,24,25
 434 101 434 101 498 151.5 c 128,-1,26
 562 202 562 202 562 296 c 0,27,28
 562 380 562 380 518 424 c 0,29,30
 474 469 474 469 365 493 c 2,31,-1
 284 511 l 2,32,33
 128 545 128 545 57.5 617 c 128,-1,34
 -13 689 -13 689 -13 809 c 0,35,36
 -13 959 -13 959 88 1049 c 1,37,38
 188 1140 188 1140 356 1140 c 0,39,40
 485 1140 485 1140 642 1081 c 1,41,-1
 642 928 l 1,0,1
927 840 m 1,42,-1
 1065 840 l 1,43,-1
 1065 0 l 1,44,-1
 927 0 l 1,45,-1
 927 840 l 1,42,-1
927 1167 m 1,46,-1
 1065 1167 l 1,47,-1
 1065 992 l 1,48,-1
 927 992 l 1,49,-1
 927 1167 l 1,46,-1
EndSplineSet
EndChar

StartChar: k
Encoding: 107 107 76
Width: 0
Flags: W
LayerCount: 2
Fore
SplineSet
-1910 854 m 1,0,-1
 122 854 l 1,1,-1
 122 712 l 1,2,-1
 -1910 712 l 1,3,-1
 -1910 854 l 1,0,-1
EndSplineSet
EndChar

StartChar: l
Encoding: 108 108 77
Width: 1598
Flags: W
LayerCount: 2
Fore
SplineSet
600 958 m 1,0,-1
 731 958 l 1,1,-1
 731 4 l 1,2,-1
 600 4 l 1,3,-1
 600 80 l 1,4,5
 529 -13 529 -13 395 -13 c 0,6,7
 269 -13 269 -13 189 88 c 0,8,9
 111 187 111 187 111 350 c 0,10,11
 111 512 111 512 189 611 c 0,12,13
 269 712 269 712 395 712 c 0,14,15
 464 712 464 712 514.5 690.5 c 128,-1,16
 565 669 565 669 600 618 c 1,17,-1
 600 958 l 1,0,-1
244 350 m 256,18,19
 244 232 244 232 290.5 166 c 128,-1,20
 337 100 337 100 422 100 c 256,21,22
 507 100 507 100 553.5 166 c 128,-1,23
 600 232 600 232 600 350 c 256,24,25
 600 468 600 468 553.5 534 c 128,-1,26
 507 600 507 600 422 600 c 256,27,28
 337 600 337 600 290.5 534 c 128,-1,29
 244 468 244 468 244 350 c 256,18,19
1445 314 m 1,30,-1
 938 314 l 1,31,32
 950 214 950 214 1008.5 157 c 128,-1,33
 1067 100 1067 100 1167 100 c 0,34,35
 1292 100 1292 100 1419 170 c 1,36,-1
 1419 43 l 1,37,38
 1355 14 1355 14 1291 0.5 c 128,-1,39
 1227 -13 1227 -13 1161 -13 c 0,40,41
 996 -13 996 -13 899 83 c 0,42,43
 802 180 802 180 802 344 c 0,44,45
 802 511 802 511 894 612 c 1,46,47
 987 712 987 712 1142 712 c 0,48,49
 1280 712 1280 712 1363 622 c 1,50,51
 1445 531 1445 531 1445 378 c 2,52,-1
 1445 314 l 1,30,-1
1315 420 m 1,53,54
 1310 457 1310 457 1296 490 c 128,-1,55
 1282 523 1282 523 1259.5 547 c 128,-1,56
 1237 571 1237 571 1207.5 585 c 128,-1,57
 1178 599 1178 599 1143 599 c 0,58,59
 1058 599 1058 599 1005.5 552 c 128,-1,60
 953 505 953 505 942 420 c 1,61,-1
 1315 420 l 1,53,54
EndSplineSet
EndChar

StartChar: m
Encoding: 109 109 78
Width: 1084
Flags: W
LayerCount: 2
Fore
SplineSet
847 840 m 1,0,-1
 985 840 l 1,1,-1
 985 0 l 1,2,-1
 847 0 l 1,3,-1
 847 840 l 1,0,-1
847 1167 m 1,4,-1
 985 1167 l 1,5,-1
 985 992 l 1,6,-1
 847 992 l 1,7,-1
 847 1167 l 1,4,-1
597 685 m 1,8,9
 481 745 481 745 345 745 c 0,10,11
 140 745 140 745 140 619 c 0,12,13
 140 568 140 568 176 543 c 1,14,15
 213 515 213 515 324 491 c 2,16,-1
 371 481 l 2,17,18
 519 449 519 449 580 391 c 1,19,20
 642 334 642 334 642 232 c 0,21,22
 642 115 642 115 549 46 c 0,23,24
 457 -22 457 -22 295 -22 c 0,25,26
 226 -22 226 -22 153.5 -9 c 128,-1,27
 81 4 81 4 0 31 c 1,28,-1
 0 173 l 1,29,30
 154 94 154 94 298 94 c 0,31,32
 395 94 395 94 447.5 127 c 128,-1,33
 500 160 500 160 500 221 c 0,34,35
 500 277 500 277 462 307 c 0,36,37
 425 335 425 335 296 365 c 2,38,-1
 248 376 l 2,39,40
 184 391 184 391 138.5 411 c 128,-1,41
 93 431 93 431 63.5 459.5 c 128,-1,42
 34 488 34 488 20 525.5 c 128,-1,43
 6 563 6 563 6 613 c 0,44,45
 6 731 6 731 88.5 795.5 c 128,-1,46
 171 860 171 860 329 860 c 0,47,48
 405 860 405 860 472.5 849 c 128,-1,49
 540 838 540 838 597 815 c 1,50,-1
 597 685 l 1,8,9
EndSplineSet
EndChar

StartChar: n
Encoding: 110 110 79
Width: 1165
Flags: W
LayerCount: 2
Fore
SplineSet
789 422 m 2,0,1
 622 422 622 422 557 384 c 0,2,3
 493 347 493 347 493 253 c 0,4,5
 493 180 493 180 540.5 137 c 128,-1,6
 588 94 588 94 673 94 c 0,7,8
 785 94 785 94 856 175 c 0,9,10
 926 255 926 255 926 391 c 2,11,-1
 926 422 l 1,12,-1
 789 422 l 2,0,1
1064 0 m 1,13,-1
 926 0 l 1,14,-1
 926 127 l 1,15,16
 878 51 878 51 808.5 14.5 c 128,-1,17
 739 -22 739 -22 636 -22 c 0,18,19
 507 -22 507 -22 431 50 c 0,20,21
 355 123 355 123 355 244 c 0,22,23
 355 530 355 530 733 530 c 2,24,-1
 926 530 l 1,25,-1
 926 544 l 2,26,27
 926 641 926 641 864.5 692 c 128,-1,28
 803 743 803 743 688 743 c 0,29,30
 616 743 616 743 547.5 726 c 128,-1,31
 479 709 479 709 416 674 c 1,32,-1
 416 802 l 1,33,34
 563 860 563 860 702 860 c 0,35,36
 887 860 887 860 975.5 767 c 128,-1,37
 1064 674 1064 674 1064 479 c 2,38,-1
 1064 0 l 1,13,-1
817 1213 m 1,39,-1
 966 1213 l 1,40,-1
 721 931 l 1,41,-1
 607 931 l 1,42,-1
 817 1213 l 1,39,-1
0 1167 m 1,43,-1
 138 1167 l 1,44,-1
 138 0 l 1,45,-1
 0 0 l 1,46,-1
 0 1167 l 1,43,-1
EndSplineSet
EndChar

StartChar: o
Encoding: 111 111 80
Width: 3601
Flags: W
LayerCount: 2
Fore
SplineSet
1546 360 m 2,0,1
 1402 360 1402 360 1347 327 c 0,2,3
 1293 295 1293 295 1293 216 c 0,4,5
 1293 153 1293 153 1333.5 116.5 c 128,-1,6
 1374 80 1374 80 1446 80 c 0,7,8
 1544 80 1544 80 1603 149 c 1,9,10
 1662 220 1662 220 1662 334 c 2,11,-1
 1662 360 l 1,12,-1
 1546 360 l 2,0,1
1780 0 m 1,13,-1
 1662 0 l 1,14,-1
 1662 109 l 1,15,16
 1622 43 1622 43 1562 12.5 c 128,-1,17
 1502 -18 1502 -18 1414 -18 c 0,18,19
 1303 -18 1303 -18 1239 43 c 0,20,21
 1174 105 1174 105 1174 209 c 0,22,23
 1174 453 1174 453 1498 453 c 2,24,-1
 1662 453 l 1,25,-1
 1662 464 l 2,26,27
 1662 546 1662 546 1609 590 c 128,-1,28
 1556 634 1556 634 1459 634 c 0,29,30
 1398 634 1398 634 1339.5 619.5 c 128,-1,31
 1281 605 1281 605 1227 575 c 1,32,-1
 1227 684 l 1,33,34
 1362 734 1362 734 1471 734 c 0,35,36
 1629 734 1629 734 1704.5 655 c 128,-1,37
 1780 576 1780 576 1780 409 c 2,38,-1
 1780 0 l 1,13,-1
2594 634 m 0,39,40
 2546 634 2546 634 2508.5 615 c 128,-1,41
 2471 596 2471 596 2444.5 560 c 128,-1,42
 2418 524 2418 524 2404 473 c 128,-1,43
 2390 422 2390 422 2390 358 c 0,44,45
 2390 228 2390 228 2443.5 155 c 128,-1,46
 2497 82 2497 82 2594 82 c 0,47,48
 2687 82 2687 82 2743 156 c 0,49,50
 2798 229 2798 229 2798 358 c 0,51,52
 2798 421 2798 421 2783.5 472 c 128,-1,53
 2769 523 2769 523 2742.5 559 c 128,-1,54
 2716 595 2716 595 2678 614.5 c 128,-1,55
 2640 634 2640 634 2594 634 c 0,39,40
2594 734 m 256,56,57
 2748 734 2748 734 2835 634 c 0,58,59
 2923 534 2923 534 2923 358 c 256,60,61
 2923 182 2923 182 2835 82 c 0,62,63
 2748 -18 2748 -18 2594 -18 c 256,64,65
 2440 -18 2440 -18 2352 82 c 0,66,67
 2265 182 2265 182 2265 358 c 0,68,69
 2265 533 2265 533 2352 634 c 1,70,71
 2440 734 2440 734 2594 734 c 256,56,57
3515 608 m 1,72,73
 3495 620 3495 620 3471.5 625 c 128,-1,74
 3448 630 3448 630 3420 630 c 0,75,76
 3320 630 3320 630 3267 567 c 128,-1,77
 3214 504 3214 504 3214 379 c 2,78,-1
 3214 2 l 1,79,-1
 3095 2 l 1,80,-1
 3095 718 l 1,81,-1
 3214 718 l 1,82,-1
 3214 607 l 1,83,84
 3284 736 3284 736 3454 736 c 0,85,86
 3478 736 3478 736 3514 730 c 1,87,-1
 3515 608 l 1,72,73
562 579 m 1,88,89
 607 658 607 658 667.5 696 c 128,-1,90
 728 734 728 734 813 734 c 0,91,92
 925 734 925 734 985.5 657.5 c 128,-1,93
 1046 581 1046 581 1046 433 c 2,94,-1
 1046 0 l 1,95,-1
 928 0 l 1,96,-1
 928 429 l 2,97,98
 928 632 928 632 780 632 c 0,99,100
 735 632 735 632 698 616 c 128,-1,101
 661 600 661 600 635.5 571 c 128,-1,102
 610 542 610 542 596 499.5 c 128,-1,103
 582 457 582 457 582 405 c 2,104,-1
 582 0 l 1,105,-1
 464 0 l 1,106,-1
 464 429 l 2,107,108
 464 535 464 535 428 583.5 c 128,-1,109
 392 632 392 632 314 632 c 0,110,111
 269 632 269 632 233 616 c 128,-1,112
 197 600 197 600 171.5 571 c 128,-1,113
 146 542 146 542 132 499.5 c 128,-1,114
 118 457 118 457 118 405 c 2,115,-1
 118 0 l 1,116,-1
 0 0 l 1,117,-1
 0 717 l 1,118,-1
 118 717 l 1,119,-1
 118 606 l 1,120,121
 158 672 158 672 214.5 703 c 128,-1,122
 271 734 271 734 349 734 c 256,123,124
 427 734 427 734 481.5 694 c 128,-1,125
 536 654 536 654 562 579 c 1,88,89
1981 715 m 1,126,-1
 2099 715 l 1,127,-1
 2099 -2 l 1,128,-1
 1981 -2 l 1,129,-1
 1981 715 l 1,126,-1
1981 994 m 1,130,-1
 2099 994 l 1,131,-1
 2099 845 l 1,132,-1
 1981 845 l 1,133,-1
 1981 994 l 1,130,-1
EndSplineSet
EndChar

StartChar: p
Encoding: 112 112 81
Width: 4065
Flags: W
LayerCount: 2
Fore
SplineSet
3058 634 m 0,0,1
 3010 634 3010 634 2972.5 615 c 128,-1,2
 2935 596 2935 596 2908.5 560 c 128,-1,3
 2882 524 2882 524 2868 473 c 128,-1,4
 2854 422 2854 422 2854 358 c 0,5,6
 2854 228 2854 228 2907.5 155 c 128,-1,7
 2961 82 2961 82 3058 82 c 0,8,9
 3151 82 3151 82 3207 156 c 0,10,11
 3262 229 3262 229 3262 358 c 0,12,13
 3262 421 3262 421 3247.5 472 c 128,-1,14
 3233 523 3233 523 3206.5 559 c 128,-1,15
 3180 595 3180 595 3142 614.5 c 128,-1,16
 3104 634 3104 634 3058 634 c 0,0,1
3058 734 m 256,17,18
 3212 734 3212 734 3299 634 c 0,19,20
 3387 534 3387 534 3387 358 c 256,21,22
 3387 182 3387 182 3299 82 c 0,23,24
 3212 -18 3212 -18 3058 -18 c 256,25,26
 2904 -18 2904 -18 2816 82 c 0,27,28
 2729 182 2729 182 2729 358 c 0,29,30
 2729 533 2729 533 2816 634 c 1,31,32
 2904 734 2904 734 3058 734 c 256,17,18
3979 608 m 1,33,34
 3959 620 3959 620 3935.5 625 c 128,-1,35
 3912 630 3912 630 3884 630 c 0,36,37
 3784 630 3784 630 3731 567 c 128,-1,38
 3678 504 3678 504 3678 379 c 2,39,-1
 3678 2 l 1,40,-1
 3559 2 l 1,41,-1
 3559 718 l 1,42,-1
 3678 718 l 1,43,-1
 3678 607 l 1,44,45
 3748 736 3748 736 3918 736 c 0,46,47
 3942 736 3942 736 3978 730 c 1,48,-1
 3979 608 l 1,33,34
562 579 m 1,49,50
 607 658 607 658 667.5 696 c 128,-1,51
 728 734 728 734 813 734 c 0,52,53
 925 734 925 734 985.5 657.5 c 128,-1,54
 1046 581 1046 581 1046 433 c 2,55,-1
 1046 0 l 1,56,-1
 928 0 l 1,57,-1
 928 429 l 2,58,59
 928 632 928 632 780 632 c 0,60,61
 735 632 735 632 698 616 c 128,-1,62
 661 600 661 600 635.5 571 c 128,-1,63
 610 542 610 542 596 499.5 c 128,-1,64
 582 457 582 457 582 405 c 2,65,-1
 582 0 l 1,66,-1
 464 0 l 1,67,-1
 464 429 l 2,68,69
 464 535 464 535 428 583.5 c 128,-1,70
 392 632 392 632 314 632 c 0,71,72
 269 632 269 632 233 616 c 128,-1,73
 197 600 197 600 171.5 571 c 128,-1,74
 146 542 146 542 132 499.5 c 128,-1,75
 118 457 118 457 118 405 c 2,76,-1
 118 0 l 1,77,-1
 0 0 l 1,78,-1
 0 717 l 1,79,-1
 118 717 l 1,80,-1
 118 606 l 1,81,82
 158 672 158 672 214.5 703 c 128,-1,83
 271 734 271 734 349 734 c 256,84,85
 427 734 427 734 481.5 694 c 128,-1,86
 536 654 536 654 562 579 c 1,49,50
1852 340 m 1,87,-1
 1310 340 l 1,88,89
 1318 219 1318 219 1383 155 c 128,-1,90
 1448 91 1448 91 1566 91 c 0,91,92
 1700 91 1700 91 1824 158 c 1,93,-1
 1824 47 l 1,94,95
 1694 -9 1694 -9 1559 -9 c 0,96,97
 1387 -9 1387 -9 1287 91 c 256,98,99
 1187 191 1187 191 1187 361 c 0,100,101
 1187 536 1187 536 1282 640 c 0,102,103
 1378 744 1378 744 1539 744 c 0,104,105
 1681 744 1681 744 1767 651 c 0,106,107
 1852 559 1852 559 1852 398 c 2,108,-1
 1852 340 l 1,87,-1
1734 432 m 1,109,110
 1734 480 1734 480 1720 519.5 c 128,-1,111
 1706 559 1706 559 1680.5 586.5 c 128,-1,112
 1655 614 1655 614 1619 629 c 128,-1,113
 1583 644 1583 644 1540 644 c 0,114,115
 1440 644 1440 644 1381.5 589 c 128,-1,116
 1323 534 1323 534 1314 431 c 1,117,-1
 1734 432 l 1,109,110
2602 0 m 1,118,-1
 2485 0 l 1,119,-1
 2485 429 l 2,120,121
 2485 632 2485 632 2326 632 c 0,122,123
 2229 632 2229 632 2175 571.5 c 128,-1,124
 2121 511 2121 511 2121 405 c 2,125,-1
 2121 0 l 1,126,-1
 2002 0 l 1,127,-1
 2002 717 l 1,128,-1
 2121 717 l 1,129,-1
 2121 606 l 1,130,131
 2205 734 2205 734 2352 734 c 0,132,133
 2602 734 2602 734 2602 433 c 2,134,-1
 2602 0 l 1,118,-1
EndSplineSet
EndChar

StartChar: q
Encoding: 113 113 82
Width: 364
Flags: W
LayerCount: 2
Fore
SplineSet
142 1120 m 1,0,-1
 327 1120 l 1,1,-1
 327 0 l 1,2,-1
 142 0 l 1,3,-1
 142 1120 l 1,0,-1
142 1556 m 1,4,-1
 327 1556 l 1,5,-1
 327 1322 l 1,6,-1
 142 1322 l 1,7,-1
 142 1556 l 1,4,-1
EndSplineSet
EndChar

StartChar: r
Encoding: 114 114 83
Width: 1853
Flags: W
LayerCount: 2
Fore
SplineSet
195 1120 m 1,0,-1
 378 1120 l 1,1,-1
 378 0 l 1,2,-1
 195 0 l 1,3,-1
 195 1120 l 1,0,-1
195 1556 m 1,4,-1
 378 1556 l 1,5,-1
 378 1322 l 1,6,-1
 195 1322 l 1,7,-1
 195 1556 l 1,4,-1
579 1120 m 1,8,-1
 772 1120 l 1,9,-1
 1122 180 l 1,10,-1
 1475 1120 l 1,11,-1
 1667 1120 l 1,12,-1
 1246 0 l 1,13,-1
 998 0 l 1,14,-1
 579 1120 l 1,8,-1
EndSplineSet
EndChar

StartChar: s
Encoding: 115 115 84
Width: 1707
Flags: W
LayerCount: 2
Fore
SplineSet
532 525 m 1,0,1
 580 508 580 508 625.5 454 c 128,-1,2
 671 400 671 400 719 306 c 2,3,-1
 873 0 l 1,4,-1
 710 0 l 1,5,-1
 567 287 l 2,6,7
 511 400 511 400 459 436 c 0,8,9
 407 473 407 473 317 473 c 2,10,-1
 152 473 l 1,11,-1
 152 0 l 1,12,-1
 1 0 l 1,13,-1
 1 1120 l 1,14,-1
 343 1120 l 2,15,16
 538 1120 538 1120 631 1041 c 128,-1,17
 724 962 724 962 724 797 c 0,18,19
 724 691 724 691 675 621.5 c 128,-1,20
 626 552 626 552 532 525 c 1,0,1
152 995 m 1,21,-1
 152 598 l 1,22,-1
 343 598 l 2,23,24
 452 598 452 598 508 647.5 c 128,-1,25
 564 697 564 697 564 797 c 256,26,27
 564 897 564 897 508 946 c 128,-1,28
 452 995 452 995 343 995 c 2,29,-1
 152 995 l 1,21,-1
1606 387 m 1,30,-1
 971 387 l 1,31,32
 980 241 980 241 1055.5 168 c 128,-1,33
 1131 95 1131 95 1271 95 c 0,34,35
 1352 95 1352 95 1426 114.5 c 128,-1,36
 1500 134 1500 134 1573 173 c 1,37,-1
 1573 43 l 1,38,39
 1420 -22 1420 -22 1263 -22 c 0,40,41
 1062 -22 1062 -22 944 95 c 0,42,43
 827 212 827 212 827 412 c 0,44,45
 827 617 827 617 938 739 c 1,46,47
 1050 860 1050 860 1239 860 c 0,48,49
 1408 860 1408 860 1507 751 c 0,50,51
 1606 641 1606 641 1606 454 c 2,52,-1
 1606 387 l 1,30,-1
1468 495 m 1,53,54
 1467 606 1467 606 1404 675 c 0,55,56
 1342 743 1342 743 1240 743 c 0,57,58
 1125 743 1125 743 1055.5 679 c 128,-1,59
 986 615 986 615 976 494 c 1,60,-1
 1468 495 l 1,53,54
1318 1228 m 1,61,-1
 1467 1228 l 1,62,-1
 1223 946 l 1,63,-1
 1108 946 l 1,64,-1
 1318 1228 l 1,61,-1
EndSplineSet
EndChar

StartChar: t
Encoding: 116 116 85
Width: 1278
Flags: W
LayerCount: 2
Fore
SplineSet
61 1120 m 1,0,-1
 256 1120 l 1,1,-1
 606 180 l 1,2,-1
 956 1120 l 1,3,-1
 1150 1120 l 1,4,-1
 730 0 l 1,5,-1
 482 0 l 1,6,-1
 61 1120 l 1,0,-1
EndSplineSet
EndChar

StartChar: u
Encoding: 117 117 86
Width: 2222
Flags: W
LayerCount: 2
Fore
SplineSet
61 1120 m 1,0,-1
 256 1120 l 1,1,-1
 606 180 l 1,2,-1
 956 1120 l 1,3,-1
 1150 1120 l 1,4,-1
 730 0 l 1,5,-1
 482 0 l 1,6,-1
 61 1120 l 1,0,-1
1295 1122 m 1,7,-1
 1479 1122 l 1,8,-1
 1479 3 l 1,9,-1
 1295 3 l 1,10,-1
 1295 1122 l 1,7,-1
1295 1559 m 1,11,-1
 1479 1559 l 1,12,-1
 1479 1326 l 1,13,-1
 1295 1326 l 1,14,-1
 1295 1559 l 1,11,-1
1807 1122 m 1,15,-1
 1991 1122 l 1,16,-1
 1991 3 l 1,17,-1
 1807 3 l 1,18,-1
 1807 1122 l 1,15,-1
1807 1559 m 1,19,-1
 1991 1559 l 1,20,-1
 1991 1326 l 1,21,-1
 1807 1326 l 1,22,-1
 1807 1559 l 1,19,-1
EndSplineSet
EndChar

StartChar: v
Encoding: 118 118 87
Width: 1445
Flags: W
LayerCount: 2
Fore
SplineSet
1069 422 m 2,0,1
 902 422 902 422 837 384 c 0,2,3
 773 347 773 347 773 253 c 0,4,5
 773 180 773 180 820.5 137 c 128,-1,6
 868 94 868 94 953 94 c 0,7,8
 1065 94 1065 94 1136 175 c 0,9,10
 1206 255 1206 255 1206 391 c 2,11,-1
 1206 422 l 1,12,-1
 1069 422 l 2,0,1
1344 0 m 1,13,-1
 1206 0 l 1,14,-1
 1206 127 l 1,15,16
 1158 51 1158 51 1088.5 14.5 c 128,-1,17
 1019 -22 1019 -22 916 -22 c 0,18,19
 787 -22 787 -22 711 50 c 0,20,21
 635 123 635 123 635 244 c 0,22,23
 635 530 635 530 1013 530 c 2,24,-1
 1206 530 l 1,25,-1
 1206 544 l 2,26,27
 1206 641 1206 641 1144.5 692 c 128,-1,28
 1083 743 1083 743 968 743 c 0,29,30
 896 743 896 743 827.5 726 c 128,-1,31
 759 709 759 709 696 674 c 1,32,-1
 696 802 l 1,33,34
 843 860 843 860 982 860 c 0,35,36
 1167 860 1167 860 1255.5 767 c 128,-1,37
 1344 674 1344 674 1344 479 c 2,38,-1
 1344 0 l 1,13,-1
1097 1213 m 1,39,-1
 1246 1213 l 1,40,-1
 1001 931 l 1,41,-1
 887 931 l 1,42,-1
 1097 1213 l 1,39,-1
535 1167 m 1,43,-1
 535 1052 l 1,44,-1
 403 1052 l 2,45,46
 365 1052 365 1052 340 1045 c 128,-1,47
 315 1038 315 1038 299.5 1022 c 128,-1,48
 284 1006 284 1006 277.5 979.5 c 128,-1,49
 271 953 271 953 271 914 c 2,50,-1
 271 840 l 1,51,-1
 498 840 l 1,52,-1
 498 733 l 1,53,-1
 271 733 l 1,54,-1
 271 0 l 1,55,-1
 132 0 l 1,56,-1
 132 733 l 1,57,-1
 0 733 l 1,58,-1
 0 840 l 1,59,-1
 132 840 l 1,60,-1
 132 898 l 2,61,62
 132 1039 132 1039 197.5 1103 c 128,-1,63
 263 1167 263 1167 404 1167 c 2,64,-1
 535 1167 l 1,43,-1
EndSplineSet
EndChar

StartChar: w
Encoding: 119 119 88
Width: 921
Flags: W
LayerCount: 2
Fore
SplineSet
135 1120 m 1,0,-1
 317 1120 l 1,1,-1
 317 0 l 1,2,-1
 135 0 l 1,3,-1
 135 1120 l 1,0,-1
135 1556 m 1,4,-1
 317 1556 l 1,5,-1
 317 1322 l 1,6,-1
 135 1322 l 1,7,-1
 135 1556 l 1,4,-1
643 1120 m 1,8,-1
 826 1120 l 1,9,-1
 826 0 l 1,10,-1
 643 0 l 1,11,-1
 643 1120 l 1,8,-1
643 1556 m 1,12,-1
 826 1556 l 1,13,-1
 826 1322 l 1,14,-1
 643 1322 l 1,15,-1
 643 1556 l 1,12,-1
EndSplineSet
EndChar

StartChar: x
Encoding: 120 120 89
Width: 1428
Flags: W
LayerCount: 2
Fore
SplineSet
1326 387 m 1,0,-1
 691 387 l 1,1,2
 700 241 700 241 775.5 168 c 128,-1,3
 851 95 851 95 991 95 c 0,4,5
 1072 95 1072 95 1146 114.5 c 128,-1,6
 1220 134 1220 134 1293 173 c 1,7,-1
 1293 43 l 1,8,9
 1140 -22 1140 -22 983 -22 c 0,10,11
 782 -22 782 -22 664 95 c 0,12,13
 547 212 547 212 547 412 c 0,14,15
 547 617 547 617 658 739 c 1,16,17
 770 860 770 860 959 860 c 0,18,19
 1128 860 1128 860 1227 751 c 0,20,21
 1326 641 1326 641 1326 454 c 2,22,-1
 1326 387 l 1,0,-1
1188 495 m 1,23,24
 1187 606 1187 606 1124 675 c 0,25,26
 1062 743 1062 743 960 743 c 0,27,28
 845 743 845 743 775.5 679 c 128,-1,29
 706 615 706 615 696 494 c 1,30,-1
 1188 495 l 1,23,24
1038 1228 m 1,31,-1
 1187 1228 l 1,32,-1
 943 946 l 1,33,-1
 828 946 l 1,34,-1
 1038 1228 l 1,31,-1
492 711 m 1,35,36
 445 737 445 737 381 737 c 0,37,38
 263 737 263 737 201 662.5 c 128,-1,39
 139 588 139 588 139 442 c 2,40,-1
 139 0 l 1,41,-1
 0 0 l 1,42,-1
 0 840 l 1,43,-1
 139 840 l 1,44,-1
 139 709 l 1,45,46
 184 787 184 787 253 823.5 c 128,-1,47
 322 860 322 860 422 860 c 0,48,49
 436 860 436 860 453.5 858 c 128,-1,50
 471 856 471 856 492 853 c 1,51,-1
 492 711 l 1,35,36
EndSplineSet
EndChar

StartChar: y
Encoding: 121 121 90
Width: 1641
Flags: W
LayerCount: 2
Fore
SplineSet
61 1120 m 1,0,-1
 256 1120 l 1,1,-1
 606 180 l 1,2,-1
 956 1120 l 1,3,-1
 1150 1120 l 1,4,-1
 730 0 l 1,5,-1
 482 0 l 1,6,-1
 61 1120 l 1,0,-1
1295 1122 m 1,7,-1
 1479 1122 l 1,8,-1
 1479 3 l 1,9,-1
 1295 3 l 1,10,-1
 1295 1122 l 1,7,-1
1295 1559 m 1,11,-1
 1479 1559 l 1,12,-1
 1479 1326 l 1,13,-1
 1295 1326 l 1,14,-1
 1295 1559 l 1,11,-1
EndSplineSet
EndChar

StartChar: z
Encoding: 122 122 91
Width: 1695
Flags: W
LayerCount: 2
Fore
SplineSet
1207 743 m 0,0,1
 1095 743 1095 743 1031 656 c 1,2,3
 967 571 967 571 967 419 c 0,4,5
 967 344 967 344 983.5 284 c 128,-1,6
 1000 224 1000 224 1031 182 c 128,-1,7
 1062 140 1062 140 1106.5 117.5 c 128,-1,8
 1151 95 1151 95 1207 95 c 0,9,10
 1316 95 1316 95 1381 182 c 1,11,12
 1446 271 1446 271 1446 419 c 0,13,14
 1446 566 1446 566 1381 655 c 0,15,16
 1317 743 1317 743 1207 743 c 0,0,1
1207 860 m 0,17,18
 1386 860 1386 860 1490 743 c 0,19,20
 1593 628 1593 628 1593 419 c 0,21,22
 1593 213 1593 213 1490 95 c 1,23,24
 1386 -22 1386 -22 1207 -22 c 0,25,26
 1026 -22 1026 -22 924 95 c 0,27,28
 822 213 822 213 822 419 c 0,29,30
 822 626 822 626 924 743 c 256,31,32
 1026 860 1026 860 1207 860 c 0,17,18
1330 1228 m 1,33,-1
 1479 1228 l 1,34,-1
 1235 946 l 1,35,-1
 1120 946 l 1,36,-1
 1330 1228 l 1,33,-1
612 1167 m 1,37,-1
 750 1167 l 1,38,-1
 750 0 l 1,39,-1
 612 0 l 1,40,-1
 612 126 l 1,41,42
 528 -22 528 -22 343 -22 c 0,43,44
 191 -22 191 -22 95 99 c 1,45,46
 0 221 0 221 0 419 c 0,47,48
 0 616 0 616 95 738 c 0,49,50
 191 860 191 860 343 860 c 0,51,52
 528 860 528 860 612 712 c 1,53,-1
 612 1167 l 1,37,-1
142 419 m 0,54,55
 142 342 142 342 158 282 c 128,-1,56
 174 222 174 222 204.5 180 c 128,-1,57
 235 138 235 138 278.5 116 c 128,-1,58
 322 94 322 94 377 94 c 0,59,60
 486 94 486 94 549 180 c 0,61,62
 612 267 612 267 612 419 c 256,63,64
 612 571 612 571 549 658 c 256,65,66
 486 745 486 745 377 745 c 0,67,68
 265 745 265 745 204 658 c 0,69,70
 142 570 142 570 142 419 c 0,54,55
EndSplineSet
EndChar

StartChar: braceleft
Encoding: 123 123 92
Width: 0
Flags: W
LayerCount: 2
Fore
SplineSet
90 608 m 2,0,1
 90 601 90 601 84 596 c 128,-1,2
 78 591 78 591 67 591 c 0,3,4
 60 591 60 591 55 596.5 c 128,-1,5
 50 602 50 602 50 608 c 2,6,-1
 50 783 l 1,7,-1
 -50 746 l 1,8,-1
 -50 560 l 2,9,10
 -50 553 -50 553 -55 547.5 c 128,-1,11
 -60 542 -60 542 -67 542 c 0,12,13
 -77 542 -77 542 -83.5 548 c 128,-1,14
 -90 554 -90 554 -90 560 c 2,15,-1
 -90 730 l 1,16,-1
 -132 719 l 2,17,18
 -142 717 -142 717 -150 721.5 c 128,-1,19
 -158 726 -158 726 -158 734 c 2,20,-1
 -158 809 l 2,21,22
 -158 821 -158 821 -144 824 c 1,23,-1
 -90 847 l 1,24,-1
 -90 1035 l 1,25,-1
 -132 1018 l 2,26,27
 -143 1013 -143 1013 -150 1018 c 1,28,29
 -158 1026 -158 1026 -158 1035 c 2,30,-1
 -158 1107 l 2,31,32
 -158 1117 -158 1117 -144 1126 c 1,33,-1
 -90 1142 l 1,34,-1
 -90 1330 l 2,35,36
 -90 1337 -90 1337 -84 1344 c 128,-1,37
 -78 1351 -78 1351 -67 1351 c 0,38,39
 -60 1351 -60 1351 -55 1344.5 c 128,-1,40
 -50 1338 -50 1338 -50 1330 c 2,41,-1
 -50 1159 l 1,42,-1
 50 1193 l 1,43,-1
 50 1378 l 2,44,45
 50 1385 50 1385 55 1391 c 128,-1,46
 60 1397 60 1397 67 1397 c 0,47,48
 77 1397 77 1397 83.5 1391.5 c 128,-1,49
 90 1386 90 1386 90 1378 c 2,50,-1
 90 1206 l 1,51,-1
 132 1223 l 2,52,53
 142 1227 142 1227 150 1220.5 c 128,-1,54
 158 1214 158 1214 158 1205 c 2,55,-1
 158 1130 l 2,56,57
 158 1119 158 1119 144 1114 c 2,58,-1
 90 1095 l 1,59,-1
 90 907 l 1,60,-1
 132 922 l 2,61,62
 142 926 142 926 150 921 c 128,-1,63
 158 916 158 916 158 907 c 2,64,-1
 158 830 l 2,65,66
 158 819 158 819 144 814 c 2,67,-1
 90 794 l 1,68,-1
 90 608 l 2,0,1
-50 1047 m 1,69,-1
 -50 858 l 1,70,-1
 50 892 l 1,71,-1
 50 1078 l 1,72,-1
 -50 1047 l 1,69,-1
EndSplineSet
EndChar

StartChar: bar
Encoding: 124 124 93
Width: 0
Flags: W
LayerCount: 2
Fore
SplineSet
-41 1607 m 1,0,-1
 312 1607 l 1,1,-1
 312 1536 l 1,2,-1
 -41 1536 l 1,3,-1
 -41 1607 l 1,0,-1
EndSplineSet
EndChar

StartChar: braceright
Encoding: 125 125 94
Width: 0
Flags: W
LayerCount: 2
Fore
SplineSet
-41 836 m 1,0,-1
 312 836 l 1,1,-1
 312 766 l 1,2,-1
 -41 766 l 1,3,-1
 -41 836 l 1,0,-1
EndSplineSet
EndChar

StartChar: asciitilde
Encoding: 126 126 95
Width: 0
Flags: W
LayerCount: 2
Fore
SplineSet
166 -342 m 2,0,1
 166 -349 166 -349 162 -351.5 c 128,-1,2
 158 -354 158 -354 152 -350 c 0,3,4
 130 -336 130 -336 106 -330 c 128,-1,5
 82 -324 82 -324 57 -324 c 0,6,7
 -59 -324 -59 -324 -71 -479 c 1,8,9
 -34 -432 -34 -432 37 -432 c 1,10,11
 79 -433 79 -433 109.5 -444.5 c 128,-1,12
 140 -456 140 -456 162 -481 c 0,13,14
 206 -533 206 -533 206 -622 c 0,15,16
 206 -716 206 -716 160.5 -764.5 c 128,-1,17
 115 -813 115 -813 30 -813 c 0,18,19
 -68 -813 -68 -813 -113 -745 c 128,-1,20
 -158 -677 -158 -677 -158 -528 c 0,21,22
 -158 -386 -158 -386 -105 -315 c 0,23,24
 -51 -244 -51 -244 54 -244 c 0,25,26
 80 -244 80 -244 106 -248.5 c 128,-1,27
 132 -253 132 -253 159 -267 c 0,28,29
 166 -270 166 -270 166 -274 c 2,30,-1
 166 -342 l 2,0,1
30 -508 m 0,31,32
 -12 -508 -12 -508 -36 -537 c 128,-1,33
 -60 -566 -60 -566 -60 -621 c 0,34,35
 -60 -736 -60 -736 30 -736 c 0,36,37
 114 -736 114 -736 114 -622 c 256,38,39
 114 -508 114 -508 30 -508 c 0,31,32
EndSplineSet
EndChar

StartChar: Euro
Encoding: 8364 8364 96
Width: 721
Flags: W
LayerCount: 2
Fore
SplineSet
1099 170 m 1,0,-1
 1099 0 l 1,1,-1
 150 0 l 1,2,-1
 150 170 l 1,3,4
 179 200 179 200 213 234.5 c 128,-1,5
 247 269 247 269 285 310 c 1,6,7
 360 388 360 388 462 490 c 1,8,9
 565 591 565 591 625.5 654.5 c 128,-1,10
 686 718 686 718 715 749 c 0,11,12
 766 803 766 803 797.5 848.5 c 128,-1,13
 829 894 829 894 848 933 c 0,14,15
 866 971 866 971 876 1008 c 128,-1,16
 886 1045 886 1045 886 1082 c 0,17,18
 886 1200 886 1200 802 1274 c 0,19,20
 760 1311 760 1311 707 1330.5 c 128,-1,21
 654 1350 654 1350 587 1351 c 0,22,23
 489 1352 489 1352 385.5 1318 c 128,-1,24
 282 1284 282 1284 159 1219 c 1,25,-1
 159 1423 l 1,26,27
 284 1474 284 1474 388.5 1497.5 c 128,-1,28
 493 1521 493 1521 583 1521 c 0,29,30
 812 1521 812 1521 952 1404 c 0,31,32
 1089 1289 1089 1289 1091 1095 c 0,33,34
 1091 1004 1091 1004 1054 918 c 0,35,36
 1036 876 1036 876 1006 829.5 c 128,-1,37
 976 783 976 783 930 726 c 0,38,39
 906 696 906 696 772 557 c 128,-1,40
 638 418 638 418 395 170 c 1,41,-1
 1099 170 l 1,0,-1
EndSplineSet
EndChar

StartChar: quotesinglbase
Encoding: 8218 8218 97
Width: 721
Flags: W
LayerCount: 2
Fore
SplineSet
338 746 m 1,0,1
 340 132 340 132 651 131 c 1,2,3
 965 131 965 131 965 745 c 0,4,5
 965 1360 965 1360 651 1360 c 0,6,7
 338 1360 338 1360 338 746 c 1,0,1
651 1521 m 0,8,9
 842 1521 842 1521 962.5 1408.5 c 128,-1,10
 1083 1296 1083 1296 1134 1078 c 0,11,12
 1151 1006 1151 1006 1159 923 c 128,-1,13
 1167 840 1167 840 1167 746 c 0,14,15
 1166 368 1166 368 1035.5 169 c 128,-1,16
 905 -30 905 -30 651 -30 c 0,17,18
 526 -30 526 -30 430 20.5 c 128,-1,19
 334 71 334 71 268.5 169 c 128,-1,20
 203 267 203 267 169 412 c 128,-1,21
 135 557 135 557 135 746 c 0,22,23
 135 934 135 934 169 1078.5 c 128,-1,24
 203 1223 203 1223 268.5 1321.5 c 128,-1,25
 334 1420 334 1420 430 1470.5 c 128,-1,26
 526 1521 526 1521 651 1521 c 0,8,9
EndSplineSet
EndChar

StartChar: florin
Encoding: 402 402 98
Width: 0
Flags: W
LayerCount: 2
Fore
SplineSet
61 406 m 1,0,-1
 -74 174 l 1,1,-1
 61 174 l 1,2,-1
 61 406 l 1,0,-1
54 515 m 1,3,4
 57 522 57 522 61 519 c 1,5,-1
 146 519 l 2,6,7
 156 519 156 519 154 508 c 1,8,-1
 154 174 l 1,9,-1
 214 174 l 2,10,11
 224 174 224 174 226 165 c 1,12,-1
 226 106 l 2,13,14
 226 95 226 95 214 94 c 1,15,-1
 154 94 l 1,16,-1
 154 -20 l 2,17,18
 154 -30 154 -30 146 -30 c 2,19,-1
 74 -30 l 2,20,21
 64 -30 64 -30 61 -20 c 1,22,-1
 61 94 l 1,23,-1
 -150 94 l 2,24,25
 -161 94 -161 94 -162 106 c 1,26,-1
 -162 176 l 1,27,-1
 54 515 l 1,3,4
EndSplineSet
EndChar

StartChar: quotedblbase
Encoding: 8222 8222 99
Width: 1081
Flags: W
LayerCount: 2
Fore
SplineSet
698 1167 m 1,0,-1
 836 1167 l 1,1,-1
 836 0 l 1,2,-1
 698 0 l 1,3,-1
 698 125 l 1,4,5
 612 -24 612 -24 429 -22 c 1,6,7
 277 -22 277 -22 180 101 c 0,8,9
 86 220 86 220 86 418 c 0,10,11
 86 619 86 619 180 738 c 1,12,13
 275 860 275 860 429 860 c 0,14,15
 613 860 613 860 698 715 c 1,16,-1
 698 1167 l 1,0,-1
226 418 m 0,17,18
 226 267 226 267 290 180 c 0,19,20
 353 94 353 94 462 94 c 0,21,22
 572 94 572 94 634 180 c 0,23,24
 697 267 697 267 698 418 c 0,25,26
 699 494 699 494 682.5 553.5 c 128,-1,27
 666 613 666 613 634 658 c 0,28,29
 571 746 571 746 462 746 c 256,30,31
 353 746 353 746 290 658 c 0,32,33
 226 568 226 568 226 418 c 0,17,18
EndSplineSet
EndChar

StartChar: ellipsis
Encoding: 8230 8230 100
Width: 0
Flags: W
LayerCount: 2
Fore
SplineSet
-54 250 m 1,0,1
 -55 42 -55 42 50 42 c 0,2,3
 150 42 150 42 150 250 c 0,4,5
 150 459 150 459 50 459 c 0,6,7
 -54 459 -54 459 -54 250 c 1,0,1
50 534 m 0,8,9
 144 534 144 534 193 463.5 c 128,-1,10
 242 393 242 393 242 250 c 0,11,12
 242 111 242 111 192 38 c 1,13,14
 144 -34 144 -34 50 -34 c 0,15,16
 -46 -34 -46 -34 -95 37.5 c 128,-1,17
 -144 109 -144 109 -144 250 c 0,18,19
 -146 534 -146 534 50 534 c 0,8,9
EndSplineSet
EndChar

StartChar: dagger
Encoding: 8224 8224 101
Width: 0
Flags: W
LayerCount: 2
Fore
SplineSet
-124 1258 m 2,0,1
 -124 1266 -124 1266 -114 1266 c 2,2,-1
 154 1266 l 2,3,4
 164 1266 164 1266 162 1258 c 1,5,-1
 162 1198 l 2,6,7
 162 1188 162 1188 154 1190 c 1,8,-1
 -38 1190 l 1,9,-1
 -38 1082 l 1,10,11
 -23 1086 -23 1086 -10.5 1088.5 c 128,-1,12
 2 1091 2 1091 12 1091 c 0,13,14
 56 1091 56 1091 91.5 1077.5 c 128,-1,15
 127 1064 127 1064 151.5 1039 c 128,-1,16
 176 1014 176 1014 189.5 978 c 128,-1,17
 203 942 203 942 203 899 c 0,18,19
 203 811 203 811 149.5 761 c 128,-1,20
 96 711 96 711 3 711 c 0,21,22
 -82 711 -82 711 -140 734 c 0,23,24
 -148 737 -148 737 -146 742 c 1,25,-1
 -146 814 l 2,26,27
 -146 821 -146 821 -141 823.5 c 128,-1,28
 -136 826 -136 826 -131 822 c 1,29,30
 -70 788 -70 788 -7 788 c 0,31,32
 50 788 50 788 79 817 c 1,33,34
 108 848 108 848 108 899 c 0,35,36
 108 951 108 951 78 980 c 0,37,38
 50 1008 50 1008 -7 1009 c 0,39,40
 -34 1009 -34 1009 -60 1001.5 c 128,-1,41
 -86 994 -86 994 -110 984 c 0,42,43
 -124 978 -124 978 -124 994 c 2,44,-1
 -124 1258 l 2,0,1
EndSplineSet
EndChar

StartChar: daggerdbl
Encoding: 8225 8225 102
Width: 721
Flags: W
LayerCount: 2
Fore
SplineSet
169 1495 m 1,0,-1
 1129 1495 l 1,1,-1
 1129 1406 l 1,2,-1
 587 0 l 1,3,-1
 374 0 l 1,4,-1
 886 1322 l 1,5,-1
 169 1322 l 1,6,-1
 169 1495 l 1,0,-1
EndSplineSet
EndChar

StartChar: circumflex
Encoding: 710 710 103
Width: 1368
Flags: W
LayerCount: 2
Fore
SplineSet
542 1638 m 1,0,-1
 690 1638 l 1,1,-1
 937 1262 l 1,2,-1
 798 1262 l 1,3,-1
 617 1506 l 1,4,-1
 436 1262 l 1,5,-1
 298 1262 l 1,6,-1
 542 1638 l 1,0,-1
EndSplineSet
EndChar

StartChar: perthousand
Encoding: 8240 8240 104
Width: 1368
Flags: W
LayerCount: 2
Fore
SplineSet
72 566 m 1,0,-1
 34 664 l 1,1,-1
 1078 1078 l 1,2,-1
 1118 982 l 1,3,-1
 72 566 l 1,0,-1
166 290 m 0,4,5
 166 218 166 218 214 170 c 1,6,7
 260 122 260 122 331 122 c 0,8,9
 399 122 399 122 446 170 c 0,10,11
 496 220 496 220 496 290 c 0,12,13
 496 356 496 356 446 406 c 0,14,15
 397 455 397 455 331 455 c 1,16,17
 297 454 297 454 268 442.5 c 128,-1,18
 239 431 239 431 214 406 c 0,19,20
 166 356 166 356 166 290 c 0,4,5
46 290 m 0,21,22
 46 413 46 413 125 493 c 0,23,24
 207 575 207 575 331 574 c 0,25,26
 451 574 451 574 534 493 c 1,27,28
 617 410 617 410 617 290 c 0,29,30
 618 170 618 170 532 84 c 0,31,32
 448 0 448 0 331 0 c 0,33,34
 271 0 271 0 219 20 c 128,-1,35
 167 40 167 40 125 82 c 0,36,37
 84 124 84 124 65 175.5 c 128,-1,38
 46 227 46 227 46 290 c 0,21,22
170 1027 m 256,39,40
 218 979 218 979 286 979 c 0,41,42
 357 979 357 979 404 1027 c 0,43,44
 453 1076 453 1076 455 1146 c 1,45,46
 455 1211 455 1211 402 1262 c 1,47,48
 354 1310 354 1310 286 1310 c 0,49,50
 217 1309 217 1309 170 1262 c 0,51,52
 122 1214 122 1214 122 1146 c 0,53,54
 122 1075 122 1075 170 1027 c 256,39,40
0 1146 m 0,55,56
 0 1266 0 1266 82 1348 c 1,57,58
 164 1432 164 1432 286 1432 c 0,59,60
 406 1432 406 1432 490 1348 c 0,61,62
 574 1265 574 1265 574 1146 c 0,63,64
 574 1026 574 1026 490 941 c 0,65,66
 405 856 405 856 286 856 c 0,67,68
 165 855 165 855 82 938 c 0,69,70
 40 981 40 981 20 1033 c 128,-1,71
 0 1085 0 1085 0 1146 c 0,55,56
780 290 m 0,72,73
 780 218 780 218 828 170 c 256,74,75
 876 122 876 122 946 122 c 0,76,77
 1017 122 1017 122 1065 170 c 1,78,79
 1113 220 1113 220 1112 290 c 0,80,81
 1112 356 1112 356 1062 406 c 0,82,83
 1013 455 1013 455 946 455 c 1,84,85
 875 453 875 453 828 406 c 0,86,87
 780 358 780 358 780 290 c 0,72,73
658 290 m 0,88,89
 658 410 658 410 742 493 c 0,90,91
 824 575 824 575 946 574 c 0,92,93
 1066 574 1066 574 1150 493 c 0,94,95
 1235 410 1235 410 1235 290 c 0,96,97
 1236 170 1236 170 1150 84 c 0,98,99
 1066 0 1066 0 946 0 c 0,100,101
 824 0 824 0 742 82 c 0,102,103
 658 167 658 167 658 290 c 0,88,89
EndSplineSet
EndChar

StartChar: guilsinglleft
Encoding: 8249 8249 106
Width: 721
Flags: W
LayerCount: 2
Fore
SplineSet
830 806 m 1,0,1
 975 776 975 776 1058 677 c 0,2,3
 1100 628 1100 628 1119 567.5 c 128,-1,4
 1138 507 1138 507 1138 434 c 0,5,6
 1136 215 1136 215 986 91 c 1,7,8
 835 -31 835 -31 554 -30 c 0,9,10
 367 -30 367 -30 155 46 c 1,11,-1
 155 240 l 1,12,13
 242 189 242 189 340.5 165.5 c 128,-1,14
 439 142 439 142 550 142 c 0,15,16
 746 142 746 142 842 215.5 c 128,-1,17
 938 289 938 289 938 434 c 0,18,19
 938 500 938 500 914 552.5 c 128,-1,20
 890 605 890 605 845 641 c 128,-1,21
 800 677 800 677 735 696 c 128,-1,22
 670 715 670 715 588 715 c 2,23,-1
 414 715 l 1,24,-1
 414 882 l 1,25,-1
 596 882 l 2,26,27
 747 882 747 882 825 941 c 128,-1,28
 903 1000 903 1000 903 1112 c 0,29,30
 903 1227 903 1227 823 1289 c 128,-1,31
 743 1351 743 1351 588 1351 c 0,32,33
 501 1351 501 1351 409 1332.5 c 128,-1,34
 317 1314 317 1314 203 1276 c 1,35,-1
 203 1457 l 1,36,37
 317 1488 317 1488 417 1504 c 128,-1,38
 517 1520 517 1520 606 1521 c 0,39,40
 835 1522 835 1522 971 1415 c 0,41,42
 1039 1362 1039 1362 1071.5 1292 c 128,-1,43
 1104 1222 1104 1222 1104 1134 c 0,44,45
 1103 1008 1103 1008 1034.5 924 c 128,-1,46
 966 840 966 840 830 806 c 1,0,1
EndSplineSet
EndChar

StartChar: OE
Encoding: 338 338 107
Width: 937
Flags: W
LayerCount: 2
Fore
SplineSet
750 678 m 1,0,1
 633 741 633 741 515 742 c 0,2,3
 381 743 381 743 306 658 c 1,4,5
 231 571 231 571 230 418 c 0,6,7
 230 340 230 340 249 281.5 c 128,-1,8
 268 223 268 223 306 180 c 0,9,10
 344 138 344 138 395.5 116 c 128,-1,11
 447 94 447 94 515 94 c 0,12,13
 632 94 632 94 750 159 c 1,14,-1
 750 31 l 1,15,16
 635 -22 635 -22 498 -22 c 0,17,18
 311 -22 311 -22 199 98 c 0,19,20
 143 158 143 158 114.5 237 c 128,-1,21
 86 316 86 316 86 418 c 0,22,23
 85 521 85 521 113.5 601.5 c 128,-1,24
 142 682 142 682 199 742 c 0,25,26
 313 860 313 860 506 860 c 0,27,28
 567 860 567 860 629.5 847.5 c 128,-1,29
 692 835 692 835 750 809 c 1,30,-1
 750 678 l 1,0,1
EndSplineSet
EndChar

StartChar: quoteleft
Encoding: 8216 8216 108
Width: 0
Flags: W
LayerCount: 2
Fore
SplineSet
-312 -1142 m 1,0,-1
 -626 -924 l 1,1,-1
 -312 -707 l 1,2,-1
 -362 -874 l 1,3,-1
 677 -874 l 1,4,-1
 677 -986 l 1,5,-1
 -362 -986 l 1,6,-1
 -312 -1142 l 1,0,-1
EndSplineSet
EndChar

StartChar: quoteright
Encoding: 8217 8217 109
Width: 1175
Flags: W
LayerCount: 2
Fore
SplineSet
583 1168 m 1,0,-1
 583 722 l 1,1,-1
 1031 722 l 1,2,-1
 1031 587 l 1,3,-1
 583 587 l 1,4,-1
 583 140 l 1,5,-1
 451 140 l 1,6,-1
 451 587 l 1,7,-1
 3 587 l 1,8,-1
 3 722 l 1,9,-1
 451 722 l 1,10,-1
 451 1168 l 1,11,-1
 583 1168 l 1,0,-1
EndSplineSet
EndChar

StartChar: quotedblleft
Encoding: 8220 8220 110
Width: 0
Flags: W
LayerCount: 2
Fore
SplineSet
-41 214 m 1,0,-1
 312 214 l 1,1,-1
 312 146 l 1,2,-1
 -41 146 l 1,3,-1
 -41 214 l 1,0,-1
EndSplineSet
EndChar

StartChar: quotedblright
Encoding: 8221 8221 111
Width: 0
Flags: W
LayerCount: 2
Fore
SplineSet
-41 214 m 1,0,-1
 312 214 l 1,1,-1
 312 146 l 1,2,-1
 -41 146 l 1,3,-1
 -41 214 l 1,0,-1
EndSplineSet
EndChar

StartChar: bullet
Encoding: 8226 8226 112
Width: 0
Flags: W
LayerCount: 2
Fore
SplineSet
50 1676 m 0,0,1
 4 1676 4 1676 -19 1651.5 c 128,-1,2
 -42 1627 -42 1627 -42 1585 c 0,3,4
 -42 1539 -42 1539 -17.5 1515 c 128,-1,5
 7 1491 7 1491 50 1491 c 0,6,7
 140 1491 140 1491 140 1585 c 0,8,9
 140 1627 140 1627 116 1651.5 c 128,-1,10
 92 1676 92 1676 50 1676 c 0,0,1
-131 1578 m 0,11,12
 -131 1683 -131 1683 -46 1717 c 1,13,14
 -80 1735 -80 1735 -100 1765 c 128,-1,15
 -120 1795 -120 1795 -120 1834 c 0,16,17
 -120 1906 -120 1906 -74 1944 c 128,-1,18
 -28 1982 -28 1982 50 1982 c 256,19,20
 128 1982 128 1982 173.5 1944 c 128,-1,21
 219 1906 219 1906 219 1834 c 0,22,23
 219 1792 219 1792 198.5 1763.5 c 128,-1,24
 178 1735 178 1735 144 1717 c 1,25,26
 186 1699 186 1699 208 1664 c 128,-1,27
 230 1629 230 1629 230 1578 c 0,28,29
 230 1503 230 1503 182.5 1459 c 128,-1,30
 135 1415 135 1415 50 1415 c 0,31,32
 -37 1415 -37 1415 -84 1457.5 c 128,-1,33
 -131 1500 -131 1500 -131 1578 c 0,11,12
-27 1829 m 0,34,35
 -27 1754 -27 1754 50 1752 c 1,36,37
 125 1752 125 1752 125 1829 c 1,38,39
 123 1909 123 1909 50 1909 c 0,40,41
 -27 1909 -27 1909 -27 1829 c 0,34,35
EndSplineSet
EndChar

StartChar: endash
Encoding: 8211 8211 113
Width: 0
Flags: W
LayerCount: 2
Fore
SplineSet
142 1248 m 1,0,-1
 82 1248 l 1,1,-1
 82 1479 l 2,2,3
 82 1504 82 1504 77 1522 c 128,-1,4
 72 1540 72 1540 64 1551 c 0,5,6
 47 1574 47 1574 10 1574 c 0,7,8
 -32 1573 -32 1573 -56 1544 c 128,-1,9
 -80 1515 -80 1515 -80 1458 c 2,10,-1
 -80 1248 l 1,11,-1
 -142 1248 l 1,12,-1
 -142 1619 l 1,13,-1
 -80 1619 l 1,14,-1
 -80 1563 l 1,15,16
 -49 1627 -49 1627 30 1627 c 0,17,18
 142 1627 142 1627 142 1479 c 2,19,-1
 142 1248 l 1,0,-1
EndSplineSet
EndChar

StartChar: emdash
Encoding: 8212 8212 114
Width: 0
Flags: W
LayerCount: 2
Fore
SplineSet
-94 1969 m 1,0,-1
 94 1969 l 1,1,-1
 306 1702 l 1,2,-1
 166 1702 l 1,3,-1
 0 1880 l 1,4,-1
 -166 1702 l 1,5,-1
 -306 1702 l 1,6,-1
 -94 1969 l 1,0,-1
EndSplineSet
EndChar

StartChar: trademark
Encoding: 8482 8482 116
Width: 0
Flags: W
LayerCount: 2
Fore
SplineSet
214 1504 m 2,0,1
 223 1504 223 1504 222 1495 c 1,2,-1
 222 1435 l 2,3,4
 222 1425 222 1425 214 1427 c 1,5,-1
 -110 1427 l 2,6,7
 -120 1427 -120 1427 -118 1435 c 1,8,-1
 -118 1499 l 1,9,10
 -83 1535 -83 1535 -53 1566.5 c 128,-1,11
 -23 1598 -23 1598 0 1624 c 0,12,13
 24 1651 24 1651 40.5 1670.5 c 128,-1,14
 57 1690 57 1690 67 1702 c 0,15,16
 93 1734 93 1734 106 1754.5 c 128,-1,17
 119 1775 119 1775 122 1795 c 1,18,19
 125 1807 125 1807 125 1819 c 0,20,21
 125 1861 125 1861 101.5 1881.5 c 128,-1,22
 78 1902 78 1902 38 1902 c 0,23,24
 -22 1902 -22 1902 -101 1858 c 1,25,26
 -114 1852 -114 1852 -114 1867 c 2,27,-1
 -114 1939 l 2,28,29
 -114 1946 -114 1946 -110 1947 c 0,30,31
 -72 1965 -72 1965 -34.5 1975.5 c 128,-1,32
 3 1986 3 1986 38 1986 c 0,33,34
 78 1986 78 1986 111.5 1974 c 128,-1,35
 145 1962 145 1962 169 1940 c 128,-1,36
 193 1918 193 1918 206 1888 c 128,-1,37
 219 1858 219 1858 218 1823 c 0,38,39
 217 1785 217 1785 201.5 1751 c 128,-1,40
 186 1717 186 1717 150 1675 c 0,41,42
 140 1663 140 1663 125 1647.5 c 128,-1,43
 110 1632 110 1632 90 1611 c 2,44,-1
 -8 1504 l 1,45,-1
 214 1504 l 2,0,1
EndSplineSet
EndChar

StartChar: guilsinglright
Encoding: 8250 8250 118
Width: 721
Flags: W
LayerCount: 2
Fore
SplineSet
775 1318 m 1,0,-1
 264 520 l 1,1,-1
 775 520 l 1,2,-1
 775 1318 l 1,0,-1
722 1495 m 1,3,-1
 975 1495 l 1,4,-1
 975 520 l 1,5,-1
 1189 520 l 1,6,-1
 1189 351 l 1,7,-1
 975 351 l 1,8,-1
 975 0 l 1,9,-1
 775 0 l 1,10,-1
 775 351 l 1,11,-1
 101 351 l 1,12,-1
 101 546 l 1,13,-1
 722 1495 l 1,3,-1
EndSplineSet
EndChar

StartChar: oe
Encoding: 339 339 119
Width: 0
Flags: W
LayerCount: 2
Fore
SplineSet
-90 783 m 2,0,1
 -90 793 -90 793 -78 792 c 1,2,-1
 30 792 l 1,3,-1
 30 1175 l 1,4,-1
 -86 1150 l 2,5,6
 -98 1147 -98 1147 -98 1159 c 2,7,-1
 -98 1227 l 2,8,9
 -98 1235 -98 1235 -90 1235 c 1,10,-1
 37 1261 l 1,11,-1
 110 1261 l 2,12,13
 118 1261 118 1261 118 1250 c 2,14,-1
 118 792 l 1,15,-1
 226 792 l 2,16,17
 235 792 235 792 234 783 c 1,18,-1
 234 722 l 2,19,20
 234 712 234 712 226 715 c 1,21,-1
 -78 715 l 2,22,23
 -89 715 -89 715 -90 722 c 1,24,-1
 -90 783 l 2,0,1
EndSplineSet
EndChar

StartChar: exclamdown
Encoding: 161 161 122
Width: 0
Flags: W
LayerCount: 2
Fore
SplineSet
-90 1499 m 2,0,1
 -90 1509 -90 1509 -78 1506 c 1,2,-1
 30 1506 l 1,3,-1
 30 1888 l 1,4,-1
 -86 1867 l 2,5,6
 -98 1865 -98 1865 -98 1875 c 2,7,-1
 -98 1940 l 2,8,9
 -98 1948 -98 1948 -90 1951 c 1,10,-1
 37 1977 l 1,11,-1
 110 1977 l 2,12,13
 118 1977 118 1977 118 1966 c 2,14,-1
 118 1506 l 1,15,-1
 226 1506 l 2,16,17
 235 1506 235 1506 234 1499 c 1,18,-1
 234 1438 l 2,19,20
 234 1428 234 1428 226 1428 c 2,21,-1
 -78 1428 l 2,22,23
 -89 1428 -89 1428 -90 1438 c 1,24,-1
 -90 1499 l 2,0,1
EndSplineSet
EndChar

StartChar: cent
Encoding: 162 162 123
Width: 0
Flags: W
LayerCount: 2
Fore
SplineSet
61 1867 m 1,0,-1
 -74 1632 l 1,1,-1
 61 1632 l 1,2,-1
 61 1867 l 1,0,-1
54 1970 m 1,3,4
 57 1977 57 1977 61 1977 c 2,5,-1
 146 1977 l 2,6,7
 156 1977 156 1977 154 1966 c 1,8,-1
 154 1632 l 1,9,-1
 214 1632 l 2,10,11
 224 1632 224 1632 226 1623 c 1,12,-1
 226 1563 l 2,13,14
 226 1553 226 1553 214 1555 c 1,15,-1
 154 1555 l 1,16,-1
 154 1438 l 2,17,18
 154 1428 154 1428 146 1428 c 2,19,-1
 74 1428 l 2,20,21
 64 1428 64 1428 61 1438 c 1,22,-1
 61 1555 l 1,23,-1
 -150 1555 l 2,24,25
 -160 1555 -160 1555 -162 1563 c 1,26,-1
 -162 1634 l 1,27,-1
 54 1970 l 1,3,4
EndSplineSet
EndChar

StartChar: sterling
Encoding: 163 163 124
Width: 0
Flags: W
LayerCount: 2
Fore
SplineSet
204 1841 m 0,0,1
 204 1759 204 1759 131 1726 c 1,2,3
 173 1708 173 1708 194.5 1673 c 128,-1,4
 216 1638 216 1638 216 1590 c 0,5,6
 216 1512 216 1512 165.5 1468 c 128,-1,7
 115 1424 115 1424 22 1424 c 0,8,9
 -50 1424 -50 1424 -131 1450 c 0,10,11
 -140 1453 -140 1453 -138 1461 c 1,12,-1
 -138 1530 l 2,13,14
 -138 1537 -138 1537 -133 1540 c 128,-1,15
 -128 1543 -128 1543 -122 1540 c 0,16,17
 -84 1522 -84 1522 -53 1513 c 128,-1,18
 -22 1504 -22 1504 14 1504 c 0,19,20
 126 1504 126 1504 125 1597 c 0,21,22
 125 1639 125 1639 98.5 1663 c 128,-1,23
 72 1687 72 1687 18 1687 c 2,24,-1
 -37 1687 l 2,25,26
 -48 1687 -48 1687 -46 1698 c 1,27,-1
 -46 1756 l 2,28,29
 -46 1766 -46 1766 -37 1766 c 2,30,-1
 18 1766 l 2,31,32
 64 1766 64 1766 89 1784.5 c 128,-1,33
 114 1803 114 1803 114 1838 c 0,34,35
 114 1911 114 1911 24 1910 c 0,36,37
 -38 1910 -38 1910 -108 1883 c 0,38,39
 -115 1880 -115 1880 -118.5 1883.5 c 128,-1,40
 -122 1887 -122 1887 -122 1893 c 2,41,-1
 -122 1958 l 2,42,43
 -122 1966 -122 1966 -114 1969 c 0,44,45
 -68 1981 -68 1981 -35.5 1986 c 128,-1,46
 -3 1991 -3 1991 24 1991 c 0,47,48
 111 1991 111 1991 157.5 1952 c 128,-1,49
 204 1913 204 1913 204 1841 c 0,0,1
EndSplineSet
EndChar

StartChar: currency
Encoding: 164 164 125
Width: 1368
Flags: W
LayerCount: 2
Fore
SplineSet
869 643 m 0,0,1
 869 732 869 732 806 794 c 0,2,3
 744 856 744 856 655 856 c 0,4,5
 565 857 565 857 500 794 c 1,6,7
 438 732 438 732 438 643 c 0,8,9
 437 551 437 551 500 489 c 0,10,11
 562 427 562 427 655 426 c 0,12,13
 743 426 743 426 806 490 c 0,14,15
 869 555 869 555 869 643 c 0,0,1
1010 1091 m 1,16,-1
 1100 998 l 1,17,-1
 934 830 l 1,18,19
 994 732 994 732 994 643 c 0,20,21
 994 592 994 592 978.5 546 c 128,-1,22
 963 500 963 500 933 455 c 1,23,-1
 1100 290 l 1,24,-1
 1006 195 l 1,25,-1
 840 362 l 1,26,27
 794 332 794 332 750.5 317 c 128,-1,28
 707 302 707 302 655 302 c 0,29,30
 607 302 607 302 558.5 316.5 c 128,-1,31
 510 331 510 331 462 358 c 1,32,-1
 298 195 l 1,33,-1
 206 286 l 1,34,-1
 370 451 l 1,35,36
 310 551 310 551 310 643 c 0,37,38
 310 692 310 692 327 738 c 0,39,40
 344 785 344 785 374 830 c 1,41,-1
 206 994 l 1,42,-1
 298 1091 l 1,43,-1
 466 922 l 1,44,45
 489 937 489 937 511.5 948.5 c 128,-1,46
 534 960 534 960 557 968 c 256,47,48
 580 976 580 976 604.5 979 c 128,-1,49
 629 982 629 982 655 982 c 0,50,51
 746 982 746 982 844 924 c 1,52,-1
 1010 1091 l 1,16,-1
EndSplineSet
EndChar

StartChar: yen
Encoding: 165 165 126
Width: 0
Flags: W
LayerCount: 2
Fore
SplineSet
166 1178 m 2,0,1
 166 1162 166 1162 152 1171 c 0,2,3
 130 1185 130 1185 106 1189.5 c 128,-1,4
 82 1194 82 1194 57 1194 c 0,5,6
 -59 1194 -59 1194 -71 1039 c 1,7,8
 -51 1065 -51 1065 -24 1075.5 c 128,-1,9
 3 1086 3 1086 37 1086 c 0,10,11
 119 1086 119 1086 162.5 1038 c 128,-1,12
 206 990 206 990 206 899 c 0,13,14
 206 805 206 805 160.5 756 c 128,-1,15
 115 707 115 707 30 707 c 0,16,17
 -68 707 -68 707 -113 775 c 128,-1,18
 -158 843 -158 843 -158 990 c 0,19,20
 -158 1134 -158 1134 -105 1205 c 0,21,22
 -79 1241 -79 1241 -39 1258 c 128,-1,23
 1 1275 1 1275 54 1274 c 0,24,25
 80 1274 80 1274 106 1268 c 128,-1,26
 132 1262 132 1262 159 1254 c 1,27,28
 166 1254 166 1254 166 1246 c 2,29,-1
 166 1178 l 2,0,1
30 1010 m 0,30,31
 -12 1010 -12 1010 -36 981.5 c 128,-1,32
 -60 953 -60 953 -60 899 c 256,33,34
 -60 845 -60 845 -37.5 814 c 128,-1,35
 -15 783 -15 783 30 783 c 0,36,37
 114 783 114 783 114 899 c 0,38,39
 114 1010 114 1010 30 1010 c 0,30,31
EndSplineSet
EndChar

StartChar: brokenbar
Encoding: 166 166 127
Width: 1368
Flags: W
LayerCount: 2
Fore
SplineSet
702 1432 m 1,0,-1
 702 674 l 1,1,-1
 530 674 l 1,2,-1
 530 1432 l 1,3,-1
 702 1432 l 1,0,-1
702 408 m 1,4,-1
 702 -350 l 1,5,-1
 530 -350 l 1,6,-1
 530 408 l 1,7,-1
 702 408 l 1,4,-1
EndSplineSet
EndChar

StartChar: section
Encoding: 167 167 128
Width: 0
Flags: W
LayerCount: 2
Fore
SplineSet
166 1884 m 2,0,1
 166 1877 166 1877 162 1876 c 128,-1,2
 158 1875 158 1875 152 1876 c 1,3,4
 130 1890 130 1890 106 1896 c 128,-1,5
 82 1902 82 1902 57 1902 c 0,6,7
 -59 1902 -59 1902 -71 1747 c 1,8,9
 -34 1795 -34 1795 37 1795 c 0,10,11
 119 1795 119 1795 162.5 1746 c 128,-1,12
 206 1697 206 1697 206 1607 c 0,13,14
 206 1513 206 1513 160.5 1464 c 128,-1,15
 115 1415 115 1415 30 1415 c 0,16,17
 -68 1415 -68 1415 -113 1483 c 128,-1,18
 -158 1551 -158 1551 -158 1698 c 0,19,20
 -158 1841 -158 1841 -104.5 1912.5 c 128,-1,21
 -51 1984 -51 1984 54 1982 c 0,22,23
 80 1981 80 1981 106 1975.5 c 128,-1,24
 132 1970 132 1970 159 1962 c 0,25,26
 166 1959 166 1959 166 1952 c 2,27,-1
 166 1884 l 2,0,1
30 1718 m 0,28,29
 -12 1718 -12 1718 -36 1688 c 128,-1,30
 -60 1658 -60 1658 -60 1607 c 0,31,32
 -60 1553 -60 1553 -37.5 1522 c 128,-1,33
 -15 1491 -15 1491 30 1491 c 0,34,35
 114 1491 114 1491 114 1607 c 0,36,37
 114 1718 114 1718 30 1718 c 0,28,29
EndSplineSet
EndChar

StartChar: dieresis
Encoding: 168 168 129
Width: 0
Flags: W
LayerCount: 2
Fore
SplineSet
-135 1250 m 2,0,1
 -135 1260 -135 1260 -124 1258 c 1,2,-1
 208 1258 l 2,3,4
 218 1258 218 1258 218 1250 c 2,5,-1
 218 1219 l 1,6,-1
 27 719 l 2,7,8
 24 713 24 713 18 711 c 1,9,-1
 -57 711 l 2,10,11
 -64 711 -64 711 -65.5 715.5 c 128,-1,12
 -67 720 -67 720 -67 726 c 1,13,-1
 114 1180 l 1,14,-1
 -124 1180 l 2,15,16
 -134 1180 -134 1180 -135 1190 c 1,17,-1
 -135 1250 l 2,0,1
EndSplineSet
EndChar

StartChar: copyright
Encoding: 169 169 130
Width: 0
Flags: W
LayerCount: 2
Fore
SplineSet
-124 519 m 2,0,1
 -124 528 -124 528 -114 527 c 1,2,-1
 154 527 l 2,3,4
 164 527 164 527 162 519 c 1,5,-1
 162 459 l 2,6,7
 162 451 162 451 154 451 c 2,8,-1
 -38 451 l 1,9,-1
 -38 340 l 1,10,11
 -6 348 -6 348 12 348 c 0,12,13
 100 348 100 348 151.5 297 c 128,-1,14
 203 246 203 246 203 158 c 256,15,16
 203 70 203 70 149.5 20 c 128,-1,17
 96 -30 96 -30 3 -30 c 0,18,19
 -86 -30 -86 -30 -140 -8 c 0,20,21
 -148 -5 -148 -5 -146 3 c 1,22,-1
 -146 74 l 2,23,24
 -146 81 -146 81 -141 83.5 c 128,-1,25
 -136 86 -136 86 -131 82 c 0,26,27
 -70 46 -70 46 -7 46 c 0,28,29
 50 46 50 46 79 75 c 128,-1,30
 108 104 108 104 108 158 c 0,31,32
 108 209 108 209 78 238 c 0,33,34
 50 266 50 266 -7 267 c 0,35,36
 -59 267 -59 267 -110 244 c 0,37,38
 -124 238 -124 238 -124 252 c 2,39,-1
 -124 519 l 2,0,1
EndSplineSet
EndChar

StartChar: ordfeminine
Encoding: 170 170 131
Width: 0
Flags: W
LayerCount: 2
Fore
SplineSet
50 1679 m 0,0,1
 92 1679 92 1679 115 1709 c 256,2,3
 138 1739 138 1739 138 1795 c 1,4,5
 137 1849 137 1849 113.5 1877.5 c 128,-1,6
 90 1906 90 1906 50 1906 c 0,7,8
 -38 1908 -38 1908 -38 1795 c 0,9,10
 -38 1681 -38 1681 50 1679 c 0,0,1
-90 1510 m 2,11,12
 -90 1517 -90 1517 -84 1519.5 c 128,-1,13
 -78 1522 -78 1522 -74 1521 c 0,14,15
 -52 1511 -52 1511 -29.5 1503 c 128,-1,16
 -7 1495 -7 1495 20 1495 c 0,17,18
 80 1495 80 1495 112 1531.5 c 128,-1,19
 144 1568 144 1568 150 1653 c 1,20,21
 109 1603 109 1603 42 1603 c 0,22,23
 -40 1603 -40 1603 -82 1653 c 0,24,25
 -125 1703 -125 1703 -125 1795 c 1,26,27
 -124 1886 -124 1886 -81.5 1934 c 128,-1,28
 -39 1982 -39 1982 48 1982 c 0,29,30
 145 1982 145 1982 189 1914 c 0,31,32
 211 1879 211 1879 222.5 1825 c 128,-1,33
 234 1771 234 1771 234 1698 c 0,34,35
 236 1415 236 1415 24 1415 c 0,36,37
 -31 1415 -31 1415 -82 1438 c 0,38,39
 -88 1440 -88 1440 -90 1446 c 1,40,-1
 -90 1510 l 2,11,12
EndSplineSet
EndChar

StartChar: guillemotleft
Encoding: 171 171 132
Width: 1368
Flags: W
LayerCount: 2
Fore
SplineSet
588 1058 m 1,0,-1
 588 869 l 1,1,-1
 286 600 l 1,2,-1
 588 332 l 1,3,-1
 588 142 l 1,4,-1
 118 558 l 1,5,-1
 118 643 l 1,6,-1
 588 1058 l 1,0,-1
1043 1058 m 1,7,-1
 1043 869 l 1,8,-1
 742 600 l 1,9,-1
 1043 332 l 1,10,-1
 1043 142 l 1,11,-1
 574 558 l 1,12,-1
 574 643 l 1,13,-1
 1043 1058 l 1,7,-1
EndSplineSet
EndChar

StartChar: logicalnot
Encoding: 172 172 133
Width: 0
Flags: W
LayerCount: 2
Fore
SplineSet
50 230 m 0,0,1
 92 230 92 230 115 259.5 c 128,-1,2
 138 289 138 289 138 346 c 0,3,4
 138 400 138 400 114 429.5 c 128,-1,5
 90 459 90 459 50 459 c 0,6,7
 -38 459 -38 459 -38 346 c 0,8,9
 -38 230 -38 230 50 230 c 0,0,1
-90 61 m 2,10,11
 -90 68 -90 68 -84 71 c 128,-1,12
 -78 74 -78 74 -74 72 c 0,13,14
 -52 62 -52 62 -29.5 54 c 128,-1,15
 -7 46 -7 46 20 46 c 0,16,17
 80 46 80 46 112 84 c 128,-1,18
 144 122 144 122 150 203 c 1,19,20
 109 154 109 154 42 154 c 0,21,22
 -38 153 -38 153 -82 204 c 0,23,24
 -125 253 -125 253 -125 346 c 1,25,26
 -124 437 -124 437 -81.5 485.5 c 128,-1,27
 -39 534 -39 534 48 534 c 0,28,29
 145 534 145 534 189 466 c 0,30,31
 211 432 211 432 222.5 378.5 c 128,-1,32
 234 325 234 325 234 250 c 0,33,34
 235 109 235 109 183.5 37.5 c 128,-1,35
 132 -34 132 -34 24 -34 c 0,36,37
 -30 -34 -30 -34 -82 -10 c 0,38,39
 -89 -7 -89 -7 -90 -3 c 1,40,-1
 -90 61 l 2,10,11
EndSplineSet
EndChar

StartChar: sfthyphen
Encoding: 173 173 134
Width: 1368
Flags: W
LayerCount: 2
Fore
SplineSet
357 643 m 1,0,-1
 878 643 l 1,1,-1
 878 478 l 1,2,-1
 357 478 l 1,3,-1
 357 643 l 1,0,-1
EndSplineSet
EndChar

StartChar: registered
Encoding: 174 174 135
Width: 0
Flags: W
LayerCount: 2
Fore
SplineSet
61 1148 m 1,0,-1
 -74 915 l 1,1,-1
 61 915 l 1,2,-1
 61 1148 l 1,0,-1
54 1254 m 1,3,4
 57 1261 57 1261 61 1258 c 1,5,-1
 146 1258 l 2,6,7
 156 1258 156 1258 154 1250 c 1,8,-1
 154 915 l 1,9,-1
 214 915 l 2,10,11
 224 915 224 915 226 907 c 1,12,-1
 226 847 l 2,13,14
 226 837 226 837 214 836 c 1,15,-1
 154 836 l 1,16,-1
 154 722 l 2,17,18
 154 713 154 713 146 711 c 1,19,-1
 74 711 l 2,20,21
 64 711 64 711 61 722 c 1,22,-1
 61 836 l 1,23,-1
 -150 836 l 2,24,25
 -160 836 -160 836 -162 847 c 1,26,-1
 -162 918 l 1,27,-1
 54 1254 l 1,3,4
EndSplineSet
EndChar

StartChar: Mediant
Encoding: 175 175 136
Width: 1962
Flags: W
LayerCount: 2
Fore
SplineSet
203 1495 m 1,0,-1
 502 1495 l 1,1,-1
 882 478 l 1,2,-1
 1266 1495 l 1,3,-1
 1566 1495 l 1,4,-1
 1566 0 l 1,5,-1
 1371 0 l 1,6,-1
 1371 1310 l 1,7,-1
 986 286 l 1,8,-1
 783 286 l 1,9,-1
 398 1310 l 1,10,-1
 398 0 l 1,11,-1
 203 0 l 1,12,-1
 203 1495 l 1,0,-1
EndSplineSet
EndChar

StartChar: degree
Encoding: 176 176 137
Width: 721
Flags: W
LayerCount: 2
Fore
SplineSet
651 711 m 0,0,1
 579 711 579 711 523 691 c 128,-1,2
 467 671 467 671 425 632 c 0,3,4
 342 554 342 554 342 421 c 0,5,6
 341 286 341 286 425 208 c 1,7,8
 506 131 506 131 651 131 c 1,9,10
 797 133 797 133 878 208 c 0,11,12
 963 287 963 287 963 421 c 1,13,14
 964 489 964 489 942 541 c 128,-1,15
 920 593 920 593 878 632 c 0,16,17
 793 711 793 711 651 711 c 0,0,1
451 794 m 1,18,19
 317 829 317 829 245 916 c 128,-1,20
 173 1003 173 1003 174 1134 c 1,21,22
 174 1312 174 1312 302 1416 c 0,23,24
 431 1521 431 1521 651 1521 c 0,25,26
 873 1521 873 1521 1002 1416 c 0,27,28
 1065 1365 1065 1365 1097 1295 c 128,-1,29
 1129 1225 1129 1225 1129 1134 c 0,30,31
 1129 1070 1129 1070 1110.5 1015 c 128,-1,32
 1092 960 1092 960 1056 916.5 c 128,-1,33
 1020 873 1020 873 969 841.5 c 128,-1,34
 918 810 918 810 854 794 c 1,35,36
 999 759 999 759 1082 662 c 0,37,38
 1163 566 1163 566 1163 421 c 0,39,40
 1162 257 1162 257 1088.5 151 c 128,-1,41
 1015 45 1015 45 870 0 c 0,42,43
 775 -30 775 -30 651 -30 c 0,44,45
 529 -30 529 -30 433.5 -0.5 c 128,-1,46
 338 29 338 29 272.5 86.5 c 128,-1,47
 207 144 207 144 172.5 228 c 128,-1,48
 138 312 138 312 138 421 c 0,49,50
 138 567 138 567 222 662 c 0,51,52
 308 760 308 760 451 794 c 1,18,19
374 1114 m 0,53,54
 374 997 374 997 446 933 c 256,55,56
 518 869 518 869 651 869 c 0,57,58
 783 869 783 869 855.5 932.5 c 128,-1,59
 928 996 928 996 928 1114 c 0,60,61
 928 1231 928 1231 856 1296 c 1,62,63
 783 1360 783 1360 651 1360 c 0,64,65
 515 1360 515 1360 444.5 1296 c 128,-1,66
 374 1232 374 1232 374 1114 c 0,53,54
EndSplineSet
EndChar

StartChar: plusminus
Encoding: 177 177 138
Width: 1521
Flags: W
LayerCount: 2
Fore
SplineSet
174 884 m 1,0,-1
 1198 884 l 1,1,-1
 1198 750 l 1,2,-1
 174 750 l 1,3,-1
 174 884 l 1,0,-1
174 558 m 1,4,-1
 1198 558 l 1,5,-1
 1198 422 l 1,6,-1
 174 422 l 1,7,-1
 174 558 l 1,4,-1
EndSplineSet
EndChar

StartChar: twosuperior
Encoding: 178 178 139
Width: 1368
Flags: W
LayerCount: 2
Fore
SplineSet
482 783 m 1,0,-1
 894 783 l 1,1,-1
 894 668 l 1,2,-1
 323 668 l 1,3,-1
 323 779 l 1,4,-1
 554 1005 l 2,5,6
 605 1055 605 1055 639 1092.5 c 128,-1,7
 673 1130 673 1130 694 1163 c 0,8,9
 734 1226 734 1226 734 1274 c 0,10,11
 734 1366 734 1366 628 1401 c 0,12,13
 595 1411 595 1411 554 1411 c 0,14,15
 455 1411 455 1411 328 1338 c 1,16,-1
 328 1465 l 1,17,18
 395 1492 395 1492 454.5 1506.5 c 128,-1,19
 514 1521 514 1521 574 1521 c 0,20,21
 717 1521 717 1521 802 1454 c 0,22,23
 887 1386 887 1386 886 1280 c 0,24,25
 886 1221 886 1221 851 1163 c 0,26,27
 814 1100 814 1100 694 986 c 2,28,-1
 482 783 l 1,0,-1
EndSplineSet
EndChar

StartChar: threesuperior
Encoding: 179 179 140
Width: 1368
Flags: W
LayerCount: 2
Fore
SplineSet
730 1120 m 1,0,1
 824 1098 824 1098 874 1045 c 128,-1,2
 924 992 924 992 924 911 c 0,3,4
 924 785 924 785 830.5 720 c 128,-1,5
 737 655 737 655 558 655 c 0,6,7
 501 655 501 655 444 664.5 c 128,-1,8
 387 674 387 674 327 694 c 1,9,-1
 327 814 l 1,10,11
 399 788 399 788 453.5 775 c 128,-1,12
 508 762 508 762 554 762 c 0,13,14
 657 762 657 762 715 802 c 0,15,16
 772 842 772 842 772 911 c 0,17,18
 772 1062 772 1062 554 1062 c 2,19,-1
 486 1062 l 1,20,-1
 486 1171 l 1,21,-1
 562 1171 l 2,22,23
 656 1171 656 1171 704.5 1201.5 c 128,-1,24
 753 1232 753 1232 753 1292 c 0,25,26
 753 1349 753 1349 705.5 1380 c 128,-1,27
 658 1411 658 1411 570 1411 c 0,28,29
 524 1411 524 1411 469 1398.5 c 128,-1,30
 414 1386 414 1386 354 1364 c 1,31,-1
 354 1487 l 1,32,33
 426 1505 426 1505 481.5 1513 c 128,-1,34
 537 1521 537 1521 591 1521 c 0,35,36
 732 1521 732 1521 818 1462 c 0,37,38
 903 1404 903 1404 903 1303 c 0,39,40
 903 1158 903 1158 730 1120 c 1,0,1
EndSplineSet
EndChar

StartChar: acute
Encoding: 180 180 141
Width: 0
Flags: W
LayerCount: 2
Fore
SplineSet
204 1122 m 0,0,1
 204 1040 204 1040 131 1010 c 1,2,3
 216 973 216 973 216 873 c 1,4,5
 215 795 215 795 165 751 c 128,-1,6
 115 707 115 707 22 707 c 0,7,8
 -52 707 -52 707 -131 734 c 1,9,10
 -140 734 -140 734 -138 742 c 1,11,-1
 -138 814 l 2,12,13
 -138 821 -138 821 -133 823 c 128,-1,14
 -128 825 -128 825 -122 822 c 0,15,16
 -84 805 -84 805 -53 796 c 128,-1,17
 -22 787 -22 787 14 787 c 0,18,19
 126 787 126 787 125 878 c 0,20,21
 125 920 125 920 98.5 945.5 c 128,-1,22
 72 971 72 971 18 971 c 2,23,-1
 -37 971 l 2,24,25
 -48 971 -48 971 -46 980 c 1,26,-1
 -46 1039 l 2,27,28
 -46 1049 -46 1049 -37 1048 c 1,29,-1
 18 1048 l 2,30,31
 64 1048 64 1048 89 1067 c 128,-1,32
 114 1086 114 1086 114 1120 c 0,33,34
 114 1194 114 1194 24 1194 c 0,35,36
 -38 1194 -38 1194 -108 1167 c 0,37,38
 -115 1164 -115 1164 -118.5 1167.5 c 128,-1,39
 -122 1171 -122 1171 -122 1175 c 2,40,-1
 -122 1242 l 2,41,42
 -122 1250 -122 1250 -114 1250 c 1,43,44
 -68 1260 -68 1260 -35.5 1267 c 128,-1,45
 -3 1274 -3 1274 24 1274 c 0,46,47
 111 1274 111 1274 157.5 1234 c 128,-1,48
 204 1194 204 1194 204 1122 c 0,0,1
EndSplineSet
EndChar

StartChar: mu
Encoding: 181 181 142
Width: 0
Flags: W
LayerCount: 2
Fore
SplineSet
-135 -270 m 2,0,1
 -135 -260 -135 -260 -124 -260 c 2,2,-1
 208 -260 l 2,3,4
 218 -260 218 -260 218 -270 c 2,5,-1
 218 -302 l 1,6,-1
 27 -802 l 2,7,8
 24 -809 24 -809 18 -809 c 2,9,-1
 -57 -809 l 2,10,11
 -64 -809 -64 -809 -65.5 -803.5 c 128,-1,12
 -67 -798 -67 -798 -67 -794 c 1,13,-1
 114 -338 l 1,14,-1
 -124 -338 l 2,15,16
 -134 -338 -134 -338 -135 -331 c 1,17,-1
 -135 -270 l 2,0,1
EndSplineSet
EndChar

StartChar: paragraph
Encoding: 182 182 143
Width: 0
Flags: W
LayerCount: 2
Fore
SplineSet
-135 1957 m 2,0,1
 -135 1968 -135 1968 -124 1966 c 1,2,-1
 208 1966 l 2,3,4
 218 1966 218 1966 218 1957 c 2,5,-1
 218 1927 l 1,6,-1
 27 1427 l 2,7,8
 24 1421 24 1421 18 1419 c 1,9,-1
 -57 1419 l 2,10,11
 -64 1419 -64 1419 -65.5 1423 c 128,-1,12
 -67 1427 -67 1427 -67 1432 c 1,13,-1
 114 1887 l 1,14,-1
 -124 1887 l 2,15,16
 -133 1887 -133 1887 -135 1898 c 1,17,-1
 -135 1957 l 2,0,1
EndSplineSet
EndChar

StartChar: periodcentered
Encoding: 183 183 144
Width: 721
Flags: W
LayerCount: 2
Fore
SplineSet
226 214 m 1,0,1
 302 177 302 177 380.5 159.5 c 128,-1,2
 459 142 459 142 532 142 c 0,3,4
 735 142 735 142 838.5 276 c 128,-1,5
 942 410 942 410 958 685 c 1,6,7
 901 597 901 597 812 551.5 c 128,-1,8
 723 506 723 506 614 506 c 0,9,10
 388 506 388 506 259 643 c 1,11,12
 129 778 129 778 131 1013 c 0,13,14
 132 1128 132 1128 165 1220 c 128,-1,15
 198 1312 198 1312 267 1382 c 0,16,17
 404 1521 404 1521 626 1521 c 1,18,19
 821 1522 821 1522 947.5 1409.5 c 128,-1,20
 1074 1297 1074 1297 1125 1078 c 0,21,22
 1159 936 1159 936 1159 746 c 0,23,24
 1159 393 1159 393 990 182 c 0,25,26
 822 -29 822 -29 542 -30 c 0,27,28
 464 -30 464 -30 388 -14 c 0,29,30
 350 -6 350 -6 309.5 5 c 128,-1,31
 269 16 269 16 226 30 c 1,32,-1
 226 214 l 1,0,1
626 664 m 256,33,34
 762 664 762 664 843 758 c 256,35,36
 924 852 924 852 922 1013 c 1,37,38
 922 1172 922 1172 843 1266 c 256,39,40
 764 1360 764 1360 626 1360 c 0,41,42
 490 1360 490 1360 410 1266 c 0,43,44
 372 1220 372 1220 352 1157.5 c 128,-1,45
 332 1095 332 1095 332 1013 c 0,46,47
 332 930 332 930 352 867 c 128,-1,48
 372 804 372 804 410 758 c 0,49,50
 490 664 490 664 626 664 c 256,33,34
EndSplineSet
EndChar

StartChar: onesuperior
Encoding: 185 185 146
Width: 1368
Flags: W
LayerCount: 2
Fore
SplineSet
362 779 m 1,0,-1
 566 779 l 1,1,-1
 566 1390 l 1,2,-1
 344 1348 l 1,3,-1
 344 1465 l 1,4,-1
 574 1502 l 1,5,-1
 711 1502 l 1,6,-1
 711 779 l 1,7,-1
 915 779 l 1,8,-1
 915 668 l 1,9,-1
 362 668 l 1,10,-1
 362 779 l 1,0,-1
EndSplineSet
EndChar

StartChar: ordmasculine
Encoding: 186 186 147
Width: 0
Flags: W
LayerCount: 2
Fore
SplineSet
-54 1698 m 1,0,1
 -56 1489 -56 1489 50 1491 c 1,2,3
 150 1491 150 1491 150 1698 c 0,4,5
 150 1906 150 1906 50 1906 c 0,6,7
 -54 1906 -54 1906 -54 1698 c 1,0,1
50 1982 m 0,8,9
 144 1982 144 1982 193 1912 c 128,-1,10
 242 1842 242 1842 242 1698 c 0,11,12
 242 1628 242 1628 229 1575 c 128,-1,13
 216 1522 216 1522 192 1487 c 0,14,15
 142 1415 142 1415 50 1415 c 0,16,17
 -46 1415 -46 1415 -95 1486.5 c 128,-1,18
 -144 1558 -144 1558 -144 1698 c 0,19,20
 -144 1841 -144 1841 -95 1911.5 c 128,-1,21
 -46 1982 -46 1982 50 1982 c 0,8,9
EndSplineSet
EndChar

StartChar: guillemotright
Encoding: 187 187 148
Width: 1136
Flags: W
LayerCount: 2
Fore
SplineSet
963 1246 m 1,0,-1
 604 1054 l 1,1,-1
 963 858 l 1,2,-1
 907 760 l 1,3,-1
 570 963 l 1,4,-1
 570 587 l 1,5,-1
 455 587 l 1,6,-1
 455 963 l 1,7,-1
 118 760 l 1,8,-1
 61 858 l 1,9,-1
 421 1054 l 1,10,-1
 61 1246 l 1,11,-1
 118 1347 l 1,12,-1
 455 1142 l 1,13,-1
 455 1521 l 1,14,-1
 570 1521 l 1,15,-1
 570 1142 l 1,16,-1
 907 1347 l 1,17,-1
 963 1246 l 1,0,-1
EndSplineSet
EndChar

StartChar: questiondown
Encoding: 191 191 152
Width: 1344
Flags: W
LayerCount: 2
Fore
SplineSet
61 1120 m 1,0,-1
 256 1120 l 1,1,-1
 606 180 l 1,2,-1
 956 1120 l 1,3,-1
 1150 1120 l 1,4,-1
 730 0 l 1,5,-1
 482 0 l 1,6,-1
 61 1120 l 1,0,-1
EndSplineSet
EndChar

StartChar: Napolitan
Encoding: 197 197 158
Width: 1299
Flags: W
LayerCount: 2
Fore
SplineSet
3 1495 m 1,0,-1
 274 1495 l 1,1,-1
 934 244 l 1,2,-1
 934 1495 l 1,3,-1
 1130 1495 l 1,4,-1
 1130 0 l 1,5,-1
 858 0 l 1,6,-1
 199 1250 l 1,7,-1
 199 0 l 1,8,-1
 3 0 l 1,9,-1
 3 1495 l 1,0,-1
1496 -344 m 1,10,-1
 1348 -344 l 1,11,-1
 1348 894 l 1,12,-1
 1496 894 l 1,13,-1
 1496 758 l 1,14,15
 1542 840 1542 840 1612 877.5 c 128,-1,16
 1682 915 1682 915 1782 915 c 0,17,18
 1944 915 1944 915 2046 787 c 1,19,20
 2147 657 2147 657 2149 445 c 0,21,22
 2150 235 2150 235 2046 102 c 0,23,24
 1945 -28 1945 -28 1782 -26 c 0,25,26
 1679 -24 1679 -24 1612 12 c 0,27,28
 1541 50 1541 50 1496 131 c 1,29,-1
 1496 -344 l 1,10,-1
1999 444 m 0,30,31
 1999 609 1999 609 1931 698 c 1,32,33
 1863 790 1863 790 1747 790 c 0,34,35
 1688 790 1688 790 1641.5 767 c 128,-1,36
 1595 744 1595 744 1562.5 700 c 128,-1,37
 1530 656 1530 656 1513 591.5 c 128,-1,38
 1496 527 1496 527 1496 444 c 0,39,40
 1496 278 1496 278 1563 189 c 1,41,42
 1630 98 1630 98 1747 98 c 256,43,44
 1864 98 1864 98 1931 189 c 0,45,46
 1999 280 1999 280 1999 444 c 0,30,31
EndSplineSet
EndChar

StartChar: dominant
Encoding: 198 198 159
Width: 1441
Flags: W
LayerCount: 2
Fore
SplineSet
930 1556 m 1,0,-1
 1114 1556 l 1,1,-1
 1114 0 l 1,2,-1
 930 0 l 1,3,-1
 930 169 l 1,4,5
 873 67 873 67 786 18.5 c 128,-1,6
 699 -30 699 -30 570 -30 c 0,7,8
 467 -30 467 -30 385.5 11.5 c 128,-1,9
 304 53 304 53 240 135 c 0,10,11
 178 216 178 216 146 320.5 c 128,-1,12
 114 425 114 425 114 558 c 0,13,14
 113 692 113 692 145 798.5 c 128,-1,15
 177 905 177 905 240 986 c 256,16,17
 303 1067 303 1067 385 1106.5 c 128,-1,18
 467 1146 467 1146 570 1146 c 0,19,20
 696 1145 696 1145 784.5 1097.5 c 128,-1,21
 873 1050 873 1050 930 950 c 1,22,-1
 930 1556 l 1,0,-1
387 240 m 0,23,24
 471 127 471 127 617 125 c 1,25,26
 763 125 763 125 847 240 c 256,27,28
 931 355 931 355 930 558 c 1,29,30
 930 762 930 762 847 878 c 256,31,32
 764 994 764 994 617 994 c 0,33,34
 471 994 471 994 387 878 c 0,35,36
 302 762 302 762 302 558 c 0,37,38
 302 355 302 355 387 240 c 0,23,24
EndSplineSet
EndChar

StartChar: Italian
Encoding: 205 205 166
Width: 659
Flags: W
LayerCount: 2
Fore
SplineSet
3 1495 m 1,0,-1
 203 1495 l 1,1,-1
 203 0 l 1,2,-1
 3 0 l 1,3,-1
 3 1495 l 1,0,-1
610 1150 m 1,4,-1
 610 896 l 1,5,-1
 915 896 l 1,6,-1
 915 783 l 1,7,-1
 610 783 l 1,8,-1
 610 294 l 2,9,10
 610 184 610 184 640 154 c 1,11,12
 670 122 670 122 762 122 c 2,13,-1
 915 122 l 1,14,-1
 915 0 l 1,15,-1
 762 0 l 2,16,17
 589 0 589 0 527 61 c 0,18,19
 493 95 493 95 477.5 152.5 c 128,-1,20
 462 210 462 210 462 294 c 2,21,-1
 462 783 l 1,22,-1
 354 783 l 1,23,-1
 354 896 l 1,24,-1
 462 896 l 1,25,-1
 462 1150 l 1,26,-1
 610 1150 l 1,4,-1
EndSplineSet
EndChar

StartChar: French
Encoding: 206 206 167
Width: 952
Flags: W
LayerCount: 2
Fore
SplineSet
3 1495 m 1,0,-1
 858 1495 l 1,1,-1
 858 1322 l 1,2,-1
 203 1322 l 1,3,-1
 203 882 l 1,4,-1
 794 882 l 1,5,-1
 794 715 l 1,6,-1
 203 715 l 1,7,-1
 203 0 l 1,8,-1
 3 0 l 1,9,-1
 3 1495 l 1,0,-1
1484 758 m 1,10,11
 1458 772 1458 772 1429.5 779.5 c 128,-1,12
 1401 787 1401 787 1367 787 c 0,13,14
 1241 787 1241 787 1174 707 c 128,-1,15
 1107 627 1107 627 1107 472 c 2,16,-1
 1107 0 l 1,17,-1
 958 0 l 1,18,-1
 958 896 l 1,19,-1
 1107 896 l 1,20,-1
 1107 758 l 1,21,22
 1198 919 1198 919 1408 918 c 0,23,24
 1442 918 1442 918 1483 911 c 1,25,-1
 1484 758 l 1,10,11
EndSplineSet
EndChar

StartChar: Idieresis
Encoding: 207 207 168
Width: 1181
Flags: W
LayerCount: 2
Fore
SplineSet
1103 614 m 1,0,-1
 775 614 l 1,1,-1
 775 780 l 1,2,-1
 1303 780 l 1,3,-1
 1303 138 l 1,4,5
 1185 53 1185 53 1046 11.5 c 128,-1,6
 907 -30 907 -30 745 -30 c 0,7,8
 393 -28 393 -28 196 174 c 0,9,10
 -3 377 -3 377 -3 746 c 0,11,12
 -3 1112 -3 1112 196 1314 c 1,13,14
 397 1520 397 1520 745 1521 c 0,15,16
 1038 1521 1038 1521 1265 1378 c 1,17,-1
 1265 1163 l 1,18,19
 1040 1354 1040 1354 762 1355 c 0,20,21
 212 1356 212 1356 212 746 c 0,22,23
 212 138 212 138 762 138 c 0,24,25
 817 138 817 138 864.5 142 c 128,-1,26
 912 146 912 146 954 155 c 256,27,28
 996 164 996 164 1032.5 179 c 128,-1,29
 1069 194 1069 194 1103 214 c 1,30,-1
 1103 614 l 1,0,-1
1974 758 m 1,31,32
 1961 765 1961 765 1948 770.5 c 128,-1,33
 1935 776 1935 776 1921 780 c 0,34,35
 1893 787 1893 787 1854 787 c 0,36,37
 1728 787 1728 787 1663 707 c 128,-1,38
 1598 627 1598 627 1598 472 c 2,39,-1
 1598 0 l 1,40,-1
 1450 0 l 1,41,-1
 1450 896 l 1,42,-1
 1598 896 l 1,43,-1
 1598 758 l 1,44,45
 1689 920 1689 920 1898 918 c 0,46,47
 1906 918 1906 918 1914.5 917.5 c 128,-1,48
 1923 917 1923 917 1932 916 c 0,49,50
 1941 914 1941 914 1951.5 913 c 128,-1,51
 1962 912 1962 912 1974 911 c 1,52,-1
 1974 758 l 1,31,32
EndSplineSet
EndChar

StartChar: Eth
Encoding: 208 208 169
Width: 1368
Flags: W
LayerCount: 2
Fore
SplineSet
436 1495 m 2,0,1
 607 1495 607 1495 732.5 1449.5 c 128,-1,2
 858 1404 858 1404 940.5 1311.5 c 128,-1,3
 1023 1219 1023 1219 1063 1078 c 128,-1,4
 1103 937 1103 937 1103 746 c 0,5,6
 1103 365 1103 365 938 182 c 1,7,8
 776 0 776 0 436 0 c 2,9,-1
 135 0 l 1,10,-1
 135 711 l 1,11,-1
 8 711 l 1,12,-1
 8 858 l 1,13,-1
 135 858 l 1,14,-1
 135 1495 l 1,15,-1
 436 1495 l 2,0,1
436 166 m 2,16,17
 692 166 692 166 792 290 c 0,18,19
 844 353 844 353 869 467 c 128,-1,20
 894 581 894 581 894 746 c 0,21,22
 894 1077 894 1077 792 1202 c 0,23,24
 690 1326 690 1326 436 1326 c 2,25,-1
 340 1326 l 1,26,-1
 340 858 l 1,27,-1
 604 858 l 1,28,-1
 604 711 l 1,29,-1
 340 711 l 1,30,-1
 340 166 l 1,31,-1
 436 166 l 2,16,17
EndSplineSet
EndChar

StartChar: subdominant
Encoding: 210 210 171
Width: 1181
Flags: W
LayerCount: 2
Fore
SplineSet
907 915 m 1,0,1
 750 994 750 994 570 994 c 0,2,3
 297 993 297 993 298 826 c 0,4,5
 298 763 298 763 346 724 c 0,6,7
 370 704 370 704 418.5 686.5 c 128,-1,8
 467 669 467 669 542 655 c 2,9,-1
 606 643 l 2,10,11
 706 624 706 624 774 592.5 c 128,-1,12
 842 561 842 561 884 523 c 0,13,14
 967 446 967 446 967 310 c 0,15,16
 968 156 968 156 843 61 c 0,17,18
 722 -30 722 -30 504 -30 c 0,19,20
 324 -30 324 -30 110 42 c 1,21,-1
 110 230 l 1,22,23
 313 123 313 123 508 125 c 1,24,25
 640 125 640 125 709 170 c 1,26,27
 777 213 777 213 779 294 c 1,28,29
 779 368 779 368 726 410 c 0,30,31
 702 430 702 430 648 447 c 128,-1,32
 594 464 594 464 506 486 c 2,33,-1
 442 502 l 2,34,35
 356 523 356 523 295 551 c 128,-1,36
 234 579 234 579 194.5 616.5 c 128,-1,37
 155 654 155 654 136.5 703.5 c 128,-1,38
 118 753 118 753 118 818 c 0,39,40
 118 896 118 896 147 957 c 128,-1,41
 176 1018 176 1018 231 1060.5 c 128,-1,42
 286 1103 286 1103 366.5 1125 c 128,-1,43
 447 1147 447 1147 550 1146 c 256,44,45
 653 1145 653 1145 742 1130.5 c 128,-1,46
 831 1116 831 1116 907 1086 c 1,47,-1
 907 915 l 1,0,1
EndSplineSet
EndChar

StartChar: tonic
Encoding: 211 211 172
Width: 891
Flags: W
LayerCount: 2
Fore
SplineSet
374 1438 m 1,0,-1
 374 1120 l 1,1,-1
 754 1120 l 1,2,-1
 754 979 l 1,3,-1
 374 979 l 1,4,-1
 374 370 l 2,5,6
 374 233 374 233 412 195 c 0,7,8
 431 176 431 176 469.5 165 c 128,-1,9
 508 154 508 154 566 154 c 2,10,-1
 754 154 l 1,11,-1
 754 0 l 1,12,-1
 566 0 l 2,13,14
 352 0 352 0 270 78 c 0,15,16
 189 155 189 155 189 370 c 2,17,-1
 189 979 l 1,18,-1
 54 979 l 1,19,-1
 54 1120 l 1,20,-1
 189 1120 l 1,21,-1
 189 1438 l 1,22,-1
 374 1438 l 1,0,-1
EndSplineSet
EndChar

StartChar: Subdominant
Encoding: 212 212 173
Width: 1441
Flags: W
LayerCount: 2
Fore
SplineSet
1096 1246 m 1,0,1
 981 1300 981 1300 880 1328 c 128,-1,2
 779 1356 779 1356 682 1356 c 0,3,4
 515 1356 515 1356 426.5 1292.5 c 128,-1,5
 338 1229 338 1229 338 1111 c 0,6,7
 338 1012 338 1012 398 963 c 0,8,9
 429 937 429 937 483 916 c 128,-1,10
 537 895 537 895 622 878 c 2,11,-1
 746 854 l 2,12,13
 972 810 972 810 1079 702 c 128,-1,14
 1186 594 1186 594 1186 412 c 0,15,16
 1186 193 1186 193 1042.5 81.5 c 128,-1,17
 899 -30 899 -30 614 -30 c 0,18,19
 508 -30 508 -30 389.5 -6 c 128,-1,20
 271 18 271 18 142 67 c 1,21,-1
 142 274 l 1,22,23
 268 202 268 202 382.5 168.5 c 128,-1,24
 497 135 497 135 614 135 c 0,25,26
 789 135 789 135 882 202 c 128,-1,27
 975 269 975 269 975 398 c 0,28,29
 975 508 975 508 907 570 c 0,30,31
 872 601 872 601 816.5 624.5 c 128,-1,32
 761 648 761 648 686 662 c 2,33,-1
 562 686 l 2,34,35
 448 708 448 708 367.5 743 c 128,-1,36
 287 778 287 778 236 826 c 0,37,38
 135 922 135 922 135 1095 c 0,39,40
 136 1294 136 1294 274 1406 c 0,41,42
 413 1520 413 1520 658 1521 c 0,43,44
 871 1521 871 1521 1096 1445 c 1,45,-1
 1096 1246 l 1,0,1
EndSplineSet
EndChar

StartChar: multiply
Encoding: 215 215 176
Width: 1368
Flags: W
LayerCount: 2
Fore
SplineSet
150 294 m 1,0,-1
 500 643 l 1,1,-1
 150 990 l 1,2,-1
 267 1108 l 1,3,-1
 617 758 l 1,4,-1
 967 1108 l 1,5,-1
 1082 990 l 1,6,-1
 734 643 l 1,7,-1
 1082 294 l 1,8,-1
 967 174 l 1,9,-1
 617 524 l 1,10,-1
 268 174 l 1,11,-1
 150 294 l 1,0,-1
EndSplineSet
EndChar

StartChar: Oslash
Encoding: 216 216 177
Width: 1368
Flags: W
LayerCount: 2
Fore
SplineSet
370 302 m 1,0,1
 400 224 400 224 466 179.5 c 128,-1,2
 532 135 532 135 617 135 c 0,3,4
 773 135 773 135 839 274 c 0,5,6
 907 416 907 416 907 746 c 0,7,8
 907 801 907 801 905.5 844.5 c 128,-1,9
 904 888 904 888 901 923 c 128,-1,10
 898 958 898 958 894 985.5 c 128,-1,11
 890 1013 890 1013 886 1036 c 1,12,-1
 370 302 l 1,0,1
843 1190 m 1,13,14
 817 1272 817 1272 762.5 1314 c 128,-1,15
 708 1356 708 1356 617 1356 c 0,16,17
 461 1356 461 1356 395 1210 c 0,18,19
 328 1062 328 1062 328 686 c 0,20,21
 328 645 328 645 329 613 c 128,-1,22
 330 581 330 581 331.5 555 c 128,-1,23
 333 529 333 529 334.5 508.5 c 128,-1,24
 336 488 336 488 338 470 c 1,25,-1
 843 1190 l 1,13,14
1032 1246 m 1,26,27
 1116 1082 1116 1082 1116 746 c 0,28,29
 1116 355 1116 355 993 162.5 c 128,-1,30
 870 -30 870 -30 617 -30 c 0,31,32
 374 -30 374 -30 253 135 c 1,33,-1
 110 -71 l 1,34,-1
 8 0 l 1,35,-1
 186 252 l 1,36,37
 154 325 154 325 135 456 c 0,38,39
 126 522 126 522 122 594 c 128,-1,40
 118 666 118 666 118 746 c 0,41,42
 119 1137 119 1137 242 1329 c 128,-1,43
 365 1521 365 1521 617 1521 c 0,44,45
 847 1521 847 1521 963 1359 c 1,46,-1
 1100 1559 l 1,47,-1
 1201 1487 l 1,48,-1
 1032 1246 l 1,26,27
EndSplineSet
EndChar

StartChar: Dominant
Encoding: 218 218 179
Width: 1750
Flags: W
LayerCount: 2
Fore
SplineSet
402 1326 m 1,0,-1
 402 166 l 1,1,-1
 647 166 l 2,2,3
 803 166 803 166 915 201.5 c 128,-1,4
 1027 237 1027 237 1099 306 c 0,5,6
 1243 446 1243 446 1242 749 c 0,7,8
 1242 1046 1242 1046 1099 1186 c 256,9,10
 956 1326 956 1326 647 1326 c 2,11,-1
 402 1326 l 1,0,-1
203 1495 m 1,12,-1
 617 1495 l 2,13,14
 1050 1495 1050 1495 1254 1312 c 0,15,16
 1457 1129 1457 1129 1457 749 c 0,17,18
 1457 363 1457 363 1253 182 c 0,19,20
 1151 91 1151 91 993 45.5 c 128,-1,21
 835 0 835 0 617 0 c 2,22,-1
 203 0 l 1,23,-1
 203 1495 l 1,12,-1
EndSplineSet
EndChar

StartChar: Thorn
Encoding: 222 222 183
Width: 1368
Flags: W
LayerCount: 2
Fore
SplineSet
402 1058 m 1,0,-1
 402 532 l 1,1,-1
 638 532 l 2,2,3
 952 532 952 532 952 795 c 256,4,5
 952 1058 952 1058 638 1058 c 2,6,-1
 402 1058 l 1,0,-1
203 1495 m 1,7,-1
 402 1495 l 1,8,-1
 402 1223 l 1,9,-1
 658 1223 l 2,10,11
 917 1223 917 1223 1042 1118 c 0,12,13
 1167 1014 1167 1014 1167 795 c 0,14,15
 1167 578 1167 578 1043 472 c 0,16,17
 981 420 981 420 885.5 393 c 128,-1,18
 790 366 790 366 658 366 c 2,19,-1
 402 366 l 1,20,-1
 402 0 l 1,21,-1
 203 0 l 1,22,-1
 203 1495 l 1,7,-1
EndSplineSet
EndChar

StartChar: germandbls
Encoding: 223 223 184
Width: 0
Flags: W
LayerCount: 2
Fore
SplineSet
214 41 m 2,0,1
 224 41 224 41 222 30 c 1,2,-1
 222 -27 l 2,3,4
 222 -36 222 -36 214 -38 c 1,5,-1
 -110 -38 l 2,6,7
 -120 -38 -120 -38 -118 -27 c 1,8,-1
 -118 34 l 1,9,10
 -83 70 -83 70 -53 101.5 c 128,-1,11
 -23 133 -23 133 0 159 c 0,12,13
 47 212 47 212 67 238 c 0,14,15
 93 270 93 270 106 290 c 128,-1,16
 119 310 119 310 122 331 c 1,17,18
 125 343 125 343 125 354 c 0,19,20
 125 394 125 394 101.5 416 c 128,-1,21
 78 438 78 438 38 438 c 0,22,23
 -24 438 -24 438 -101 395 c 1,24,25
 -114 389 -114 389 -114 402 c 2,26,-1
 -114 474 l 2,27,28
 -114 481 -114 481 -110 482 c 0,29,30
 -32 519 -32 519 38 520 c 0,31,32
 78 520 78 520 111.5 508.5 c 128,-1,33
 145 497 145 497 169 476 c 128,-1,34
 193 455 193 455 206 425.5 c 128,-1,35
 219 396 219 396 218 361 c 0,36,37
 217 323 217 323 201.5 287.5 c 128,-1,38
 186 252 186 252 150 210 c 0,39,40
 140 199 140 199 125 183 c 128,-1,41
 110 167 110 167 90 146 c 2,42,-1
 -8 41 l 1,43,-1
 214 41 l 2,0,1
EndSplineSet
EndChar

StartChar: aring
Encoding: 229 229 190
Width: 0
Flags: W
LayerCount: 2
Fore
SplineSet
-90 31 m 2,0,1
 -90 40 -90 40 -78 42 c 1,2,-1
 30 42 l 1,3,-1
 30 422 l 1,4,-1
 -86 400 l 2,5,6
 -98 397 -98 397 -98 410 c 2,7,-1
 -98 476 l 2,8,9
 -98 483 -98 483 -90 486 c 1,10,-1
 37 510 l 1,11,-1
 110 510 l 2,12,13
 118 510 118 510 118 502 c 2,14,-1
 118 42 l 1,15,-1
 226 42 l 2,16,17
 236 42 236 42 234 31 c 1,18,-1
 234 -26 l 2,19,20
 234 -35 234 -35 226 -37 c 1,21,-1
 -78 -37 l 2,22,23
 -88 -37 -88 -37 -90 -26 c 1,24,-1
 -90 31 l 2,0,1
EndSplineSet
EndChar

StartChar: ae
Encoding: 230 230 191
Width: 1368
Flags: W
LayerCount: 2
Fore
SplineSet
542 515 m 1,0,-1
 494 515 l 2,1,2
 325 515 325 515 267 470 c 0,3,4
 206 423 206 423 206 310 c 1,5,6
 205 219 205 219 249 172 c 128,-1,7
 293 125 293 125 378 125 c 0,8,9
 469 125 469 125 506 189 c 0,10,11
 525 223 525 223 533.5 285.5 c 128,-1,12
 542 348 542 348 542 442 c 2,13,-1
 542 515 l 1,0,-1
1036 658 m 1,14,-1
 1036 711 l 2,15,16
 1036 860 1036 860 998 927 c 128,-1,17
 960 994 960 994 873 994 c 0,18,19
 828 994 828 994 797 977.5 c 128,-1,20
 766 961 766 961 747 926 c 128,-1,21
 728 891 728 891 719.5 835 c 128,-1,22
 711 779 711 779 711 700 c 2,23,-1
 711 658 l 1,24,-1
 1036 658 l 1,14,-1
1201 515 m 1,25,-1
 711 515 l 1,26,27
 708 501 708 501 707.5 482.5 c 128,-1,28
 707 464 707 464 707 430 c 0,29,30
 707 268 707 268 758.5 196.5 c 128,-1,31
 810 125 810 125 920 125 c 0,32,33
 1077 125 1077 125 1178 226 c 1,34,-1
 1178 54 l 1,35,36
 1124 12 1124 12 1058 -9 c 128,-1,37
 992 -30 992 -30 920 -30 c 0,38,39
 808 -30 808 -30 736 12 c 0,40,41
 664 55 664 55 630 131 c 1,42,43
 551 -30 551 -30 361 -30 c 1,44,45
 202 -31 202 -31 122 55 c 128,-1,46
 42 141 42 141 42 306 c 0,47,48
 42 481 42 481 139.5 569.5 c 128,-1,49
 237 658 237 658 432 658 c 2,50,-1
 550 658 l 1,51,-1
 550 746 l 2,52,53
 550 869 550 869 500.5 931.5 c 128,-1,54
 451 994 451 994 357 994 c 0,55,56
 299 994 299 994 234 972 c 0,57,58
 170 950 170 950 106 911 c 1,59,-1
 106 1078 l 1,60,61
 184 1112 184 1112 249 1129 c 128,-1,62
 314 1146 314 1146 374 1146 c 0,63,64
 552 1146 552 1146 626 1020 c 1,65,66
 661 1083 661 1083 725 1114 c 0,67,68
 790 1146 790 1146 882 1146 c 1,69,70
 970 1147 970 1147 1030 1117.5 c 128,-1,71
 1090 1088 1090 1088 1126 1028 c 256,72,73
 1162 968 1162 968 1181.5 863 c 128,-1,74
 1201 758 1201 758 1201 604 c 2,75,-1
 1201 515 l 1,25,-1
EndSplineSet
EndChar

StartChar: ccedilla
Encoding: 231 231 192
Width: 0
Flags: W
LayerCount: 2
Fore
SplineSet
204 -395 m 0,0,1
 204 -477 204 -477 131 -508 c 1,2,3
 173 -526 173 -526 194.5 -562 c 128,-1,4
 216 -598 216 -598 216 -647 c 0,5,6
 216 -725 216 -725 165.5 -769 c 128,-1,7
 115 -813 115 -813 22 -813 c 0,8,9
 -50 -813 -50 -813 -131 -784 c 0,10,11
 -139 -781 -139 -781 -138 -775 c 1,12,-1
 -138 -707 l 2,13,14
 -138 -700 -138 -700 -133 -696.5 c 128,-1,15
 -128 -693 -128 -693 -122 -696 c 0,16,17
 -84 -713 -84 -713 -53 -721.5 c 128,-1,18
 -22 -730 -22 -730 14 -730 c 0,19,20
 127 -730 127 -730 125 -638 c 0,21,22
 125 -596 125 -596 98.5 -572.5 c 128,-1,23
 72 -549 72 -549 18 -549 c 2,24,-1
 -37 -549 l 2,25,26
 -48 -549 -48 -549 -46 -538 c 1,27,-1
 -46 -478 l 2,28,29
 -46 -469 -46 -469 -37 -470 c 1,30,-1
 18 -470 l 2,31,32
 64 -470 64 -470 89 -451 c 128,-1,33
 114 -432 114 -432 114 -398 c 0,34,35
 114 -324 114 -324 24 -324 c 0,36,37
 -38 -324 -38 -324 -108 -351 c 0,38,39
 -122 -357 -122 -357 -122 -342 c 2,40,-1
 -122 -278 l 2,41,42
 -122 -270 -122 -270 -114 -267 c 1,43,44
 -68 -257 -68 -257 -35.5 -250.5 c 128,-1,45
 -3 -244 -3 -244 24 -244 c 0,46,47
 111 -244 111 -244 157.5 -283.5 c 128,-1,48
 204 -323 204 -323 204 -395 c 0,0,1
EndSplineSet
EndChar

StartChar: eth
Encoding: 240 240 201
Width: 1368
Flags: W
LayerCount: 2
Fore
SplineSet
719 1326 m 1,0,1
 818 1220 818 1220 889 1120 c 128,-1,2
 960 1020 960 1020 1006 926 c 0,3,4
 1096 738 1096 738 1096 534 c 0,5,6
 1096 267 1096 267 971 118 c 0,7,8
 847 -30 847 -30 617 -30 c 256,9,10
 387 -30 387 -30 263 118 c 1,11,12
 140 267 140 267 138 534 c 1,13,14
 138 797 138 797 263 949 c 1,15,16
 388 1098 388 1098 613 1096 c 0,17,18
 647 1096 647 1096 664.5 1095.5 c 128,-1,19
 682 1095 682 1095 696 1092 c 1,20,21
 662 1138 662 1138 626.5 1182.5 c 128,-1,22
 591 1227 591 1227 554 1270 c 1,23,-1
 274 1178 l 1,24,-1
 244 1276 l 1,25,-1
 482 1356 l 1,26,-1
 298 1556 l 1,27,-1
 519 1556 l 1,28,-1
 647 1411 l 1,29,-1
 934 1506 l 1,30,-1
 967 1406 l 1,31,-1
 719 1326 l 1,0,1
794 918 m 1,32,33
 757 931 757 931 716 938 c 128,-1,34
 675 945 675 945 630 945 c 0,35,36
 481 946 481 946 406.5 841.5 c 128,-1,37
 332 737 332 737 332 534 c 0,38,39
 332 334 332 334 404.5 229.5 c 128,-1,40
 477 125 477 125 617 125 c 0,41,42
 756 125 756 125 829.5 231 c 128,-1,43
 903 337 903 337 903 534 c 0,44,45
 903 639 903 639 873 746 c 0,46,47
 859 797 859 797 839.5 840.5 c 128,-1,48
 820 884 820 884 794 918 c 1,32,33
EndSplineSet
EndChar

StartChar: divide
Encoding: 247 247 208
Width: 0
Flags: W
LayerCount: 2
Fore
SplineSet
-54 -528 m 0,0,1
 -54 -734 -54 -734 50 -734 c 0,2,3
 150 -734 150 -734 150 -528 c 0,4,5
 150 -317 150 -317 50 -317 c 0,6,7
 -53 -317 -53 -317 -54 -528 c 0,0,1
50 -244 m 0,8,9
 144 -244 144 -244 193 -315 c 128,-1,10
 242 -386 242 -386 242 -528 c 0,11,12
 242 -665 242 -665 192 -741 c 0,13,14
 144 -813 144 -813 50 -813 c 0,15,16
 -46 -813 -46 -813 -95 -740 c 128,-1,17
 -144 -667 -144 -667 -144 -528 c 0,18,19
 -146 -244 -146 -244 50 -244 c 0,8,9
EndSplineSet
EndChar

StartChar: oslash
Encoding: 248 248 209
Width: 0
Flags: W
LayerCount: 2
Fore
SplineSet
50 972 m 0,0,1
 92 972 92 972 115 1002 c 128,-1,2
 138 1032 138 1032 138 1086 c 256,3,4
 138 1140 138 1140 114 1170.5 c 128,-1,5
 90 1201 90 1201 50 1201 c 0,6,7
 -38 1201 -38 1201 -38 1086 c 0,8,9
 -38 972 -38 972 50 972 c 0,0,1
-90 805 m 2,10,11
 -90 812 -90 812 -84 813 c 128,-1,12
 -78 814 -78 814 -74 813 c 0,13,14
 -52 803 -52 803 -29.5 795.5 c 128,-1,15
 -7 788 -7 788 20 788 c 0,16,17
 80 788 80 788 112 824.5 c 128,-1,18
 144 861 144 861 150 945 c 1,19,20
 109 896 109 896 42 896 c 0,21,22
 -40 895 -40 895 -82.5 944 c 128,-1,23
 -125 993 -125 993 -125 1086 c 0,24,25
 -125 1177 -125 1177 -82 1225.5 c 128,-1,26
 -39 1274 -39 1274 48 1274 c 0,27,28
 146 1274 146 1274 190 1206 c 128,-1,29
 234 1138 234 1138 234 990 c 0,30,31
 234 851 234 851 183 779 c 128,-1,32
 132 707 132 707 24 707 c 0,33,34
 -28 707 -28 707 -82 730 c 1,35,36
 -88 730 -88 730 -90 738 c 1,37,-1
 -90 805 l 2,10,11
EndSplineSet
EndChar

StartChar: thorn
Encoding: 254 254 215
Width: 1368
Flags: W
LayerCount: 2
Fore
SplineSet
374 -426 m 1,0,-1
 189 -426 l 1,1,-1
 189 1566 l 1,2,-1
 374 1566 l 1,3,-1
 374 979 l 1,4,5
 420 1066 420 1066 497 1106 c 128,-1,6
 574 1146 574 1146 674 1146 c 0,7,8
 876 1146 876 1146 992 990 c 1,9,10
 1108 832 1108 832 1108 554 c 0,11,12
 1108 418 1108 418 1079.5 311 c 128,-1,13
 1051 204 1051 204 992 125 c 1,14,15
 879 -30 879 -30 674 -30 c 0,16,17
 465 -30 465 -30 374 142 c 1,18,-1
 374 -426 l 1,0,-1
915 558 m 0,19,20
 915 990 915 990 647 990 c 0,21,22
 509 990 509 990 442 882 c 0,23,24
 374 774 374 774 374 558 c 0,25,26
 374 343 374 343 441.5 233.5 c 128,-1,27
 509 124 509 124 647 125 c 1,28,29
 915 125 915 125 915 558 c 0,19,20
EndSplineSet
EndChar

StartChar: dcroat
Encoding: 273 273 235
Width: 1368
Flags: W
LayerCount: 2
Fore
SplineSet
858 1287 m 1,0,-1
 554 1287 l 1,1,-1
 554 1406 l 1,2,-1
 858 1406 l 1,3,-1
 858 1556 l 1,4,-1
 1043 1556 l 1,5,-1
 1043 1406 l 1,6,-1
 1235 1406 l 1,7,-1
 1235 1287 l 1,8,-1
 1043 1287 l 1,9,-1
 1043 0 l 1,10,-1
 858 0 l 1,11,-1
 858 142 l 1,12,13
 812 55 812 55 735 12.5 c 128,-1,14
 658 -30 658 -30 558 -30 c 0,15,16
 355 -30 355 -30 238 128 c 0,17,18
 122 286 122 286 122 562 c 0,19,20
 122 836 122 836 240 990 c 256,21,22
 358 1144 358 1144 558 1146 c 1,23,24
 660 1146 660 1146 738 1104 c 0,25,26
 814 1062 814 1062 858 979 c 1,27,-1
 858 1287 l 1,0,-1
317 558 m 256,28,29
 317 126 317 126 587 125 c 0,30,31
 723 125 723 125 790.5 234 c 128,-1,32
 858 343 858 343 858 558 c 256,33,34
 858 773 858 773 790.5 881.5 c 128,-1,35
 723 990 723 990 587 990 c 0,36,37
 317 990 317 990 317 558 c 256,28,29
EndSplineSet
EndChar

StartChar: Hbar
Encoding: 294 294 256
Width: 1368
Flags: W
LayerCount: 2
Fore
SplineSet
138 1495 m 1,0,-1
 338 1495 l 1,1,-1
 338 1270 l 1,2,-1
 894 1270 l 1,3,-1
 894 1495 l 1,4,-1
 1095 1495 l 1,5,-1
 1095 1270 l 1,6,-1
 1231 1270 l 1,7,-1
 1231 1107 l 1,8,-1
 1095 1107 l 1,9,-1
 1095 0 l 1,10,-1
 894 0 l 1,11,-1
 894 711 l 1,12,-1
 338 711 l 1,13,-1
 338 0 l 1,14,-1
 138 0 l 1,15,-1
 138 1107 l 1,16,-1
 3 1107 l 1,17,-1
 3 1270 l 1,18,-1
 138 1270 l 1,19,-1
 138 1495 l 1,0,-1
338 1107 m 1,20,-1
 338 882 l 1,21,-1
 894 882 l 1,22,-1
 894 1107 l 1,23,-1
 338 1107 l 1,20,-1
EndSplineSet
EndChar

StartChar: hbar
Encoding: 295 295 257
Width: 1368
Flags: W
LayerCount: 2
Fore
SplineSet
1050 0 m 1,0,-1
 866 0 l 1,1,-1
 866 694 l 2,2,3
 866 845 866 845 813.5 915.5 c 128,-1,4
 761 986 761 986 647 986 c 0,5,6
 515 986 515 986 446.5 896.5 c 128,-1,7
 378 807 378 807 378 634 c 2,8,-1
 378 0 l 1,9,-1
 195 0 l 1,10,-1
 195 1270 l 1,11,-1
 71 1270 l 1,12,-1
 71 1435 l 1,13,-1
 195 1435 l 1,14,-1
 195 1556 l 1,15,-1
 378 1556 l 1,16,-1
 378 1435 l 1,17,-1
 732 1435 l 1,18,-1
 732 1270 l 1,19,-1
 378 1270 l 1,20,-1
 378 952 l 1,21,22
 429 1051 429 1051 512.5 1098.5 c 128,-1,23
 596 1146 596 1146 711 1146 c 0,24,25
 885 1146 885 1146 967.5 1035 c 128,-1,26
 1050 924 1050 924 1050 694 c 2,27,-1
 1050 0 l 1,0,-1
EndSplineSet
EndChar

StartChar: dotlessi
Encoding: 305 305 267
Width: 1368
Flags: W
LayerCount: 2
Fore
SplineSet
256 1120 m 1,0,-1
 726 1120 l 1,1,-1
 726 142 l 1,2,-1
 1092 142 l 1,3,-1
 1092 0 l 1,4,-1
 178 0 l 1,5,-1
 178 142 l 1,6,-1
 542 142 l 1,7,-1
 542 979 l 1,8,-1
 256 979 l 1,9,-1
 256 1120 l 1,0,-1
EndSplineSet
EndChar

StartChar: IJ
Encoding: 306 306 268
Width: 1368
Flags: W
LayerCount: 2
Fore
SplineSet
652 300 m 1,0,1
 773 138 773 138 916 138 c 0,2,3
 1014 138 1014 138 1052 212 c 0,4,5
 1071 249 1071 249 1081 318 c 128,-1,6
 1091 387 1091 387 1091 490 c 2,7,-1
 1091 1326 l 1,8,-1
 830 1326 l 1,9,-1
 830 1496 l 1,10,-1
 1228 1496 l 1,11,-1
 1228 490 l 2,12,13
 1228 208 1228 208 1156 90 c 0,14,15
 1085 -28 1085 -28 916 -26 c 0,16,17
 851 -26 851 -26 787 -4 c 0,18,19
 756 7 756 7 721 24.5 c 128,-1,20
 686 42 686 42 652 61 c 1,21,-1
 652 300 l 1,0,1
-3 1495 m 1,22,-1
 604 1495 l 1,23,-1
 604 1322 l 1,24,-1
 376 1322 l 1,25,-1
 376 170 l 1,26,-1
 604 170 l 1,27,-1
 604 0 l 1,28,-1
 -3 0 l 1,29,-1
 -3 170 l 1,30,-1
 226 170 l 1,31,-1
 226 1322 l 1,32,-1
 -3 1322 l 1,33,-1
 -3 1495 l 1,22,-1
EndSplineSet
EndChar

StartChar: ij
Encoding: 307 307 269
Width: 1368
Flags: W
LayerCount: 2
Fore
SplineSet
979 967 m 1,0,-1
 662 967 l 1,1,-1
 662 1111 l 1,2,-1
 1163 1111 l 1,3,-1
 1163 -30 l 2,4,5
 1163 -230 1163 -230 1075 -334 c 128,-1,6
 987 -438 987 -438 818 -438 c 2,7,-1
 564 -438 l 1,8,-1
 564 -282 l 1,9,-1
 798 -282 l 2,10,11
 979 -282 979 -282 979 -30 c 2,12,-1
 979 967 l 1,0,-1
979 1547 m 1,13,-1
 1163 1547 l 1,14,-1
 1163 1312 l 1,15,-1
 979 1312 l 1,16,-1
 979 1547 l 1,13,-1
57 1120 m 1,17,-1
 446 1120 l 1,18,-1
 446 142 l 1,19,-1
 746 142 l 1,20,-1
 746 0 l 1,21,-1
 -7 0 l 1,22,-1
 -7 142 l 1,23,-1
 294 142 l 1,24,-1
 294 979 l 1,25,-1
 57 979 l 1,26,-1
 57 1120 l 1,17,-1
294 1556 m 1,27,-1
 446 1556 l 1,28,-1
 446 1322 l 1,29,-1
 294 1322 l 1,30,-1
 294 1556 l 1,27,-1
EndSplineSet
EndChar

StartChar: kgreenlandic
Encoding: 312 312 274
Width: 1368
Flags: W
LayerCount: 2
Fore
SplineSet
236 1120 m 1,0,-1
 426 1120 l 1,1,-1
 426 655 l 1,2,-1
 911 1120 l 1,3,-1
 1134 1120 l 1,4,-1
 692 698 l 1,5,-1
 1202 0 l 1,6,-1
 979 0 l 1,7,-1
 562 579 l 1,8,-1
 426 451 l 1,9,-1
 426 0 l 1,10,-1
 236 0 l 1,11,-1
 236 1120 l 1,0,-1
EndSplineSet
EndChar

StartChar: Lslash
Encoding: 321 321 283
Width: 1368
Flags: W
LayerCount: 2
Fore
SplineSet
214 1495 m 1,0,-1
 418 1495 l 1,1,-1
 418 878 l 1,2,-1
 734 1096 l 1,3,-1
 810 986 l 1,4,-1
 418 711 l 1,5,-1
 418 170 l 1,6,-1
 1138 170 l 1,7,-1
 1138 0 l 1,8,-1
 214 0 l 1,9,-1
 214 570 l 1,10,-1
 71 466 l 1,11,-1
 -10 574 l 1,12,-1
 214 734 l 1,13,-1
 214 1495 l 1,0,-1
EndSplineSet
EndChar

StartChar: lslash
Encoding: 322 322 284
Width: 1368
Flags: W
LayerCount: 2
Fore
SplineSet
638 406 m 2,0,1
 638 155 638 155 818 155 c 2,2,-1
 1035 155 l 1,3,-1
 1035 0 l 1,4,-1
 802 0 l 2,5,6
 635 0 635 0 545 104.5 c 128,-1,7
 455 209 455 209 455 406 c 2,8,-1
 455 698 l 1,9,-1
 155 490 l 1,10,-1
 76 600 l 1,11,-1
 455 864 l 1,12,-1
 455 1423 l 1,13,-1
 159 1423 l 1,14,-1
 159 1566 l 1,15,-1
 638 1566 l 1,16,-1
 638 990 l 1,17,-1
 954 1209 l 1,18,-1
 1035 1099 l 1,19,-1
 638 822 l 1,20,-1
 638 406 l 2,0,1
EndSplineSet
EndChar

StartChar: napostrophe
Encoding: 329 329 291
Width: 1368
Flags: W
LayerCount: 2
Fore
SplineSet
1175 0 m 1,0,-1
 990 0 l 1,1,-1
 990 694 l 2,2,3
 990 845 990 845 936.5 915.5 c 128,-1,4
 883 986 883 986 771 986 c 0,5,6
 639 986 639 986 570 896 c 0,7,8
 502 807 502 807 502 634 c 2,9,-1
 502 0 l 1,10,-1
 317 0 l 1,11,-1
 317 1120 l 1,12,-1
 502 1120 l 1,13,-1
 502 952 l 1,14,15
 553 1051 553 1051 635.5 1098.5 c 128,-1,16
 718 1146 718 1146 835 1146 c 0,17,18
 1009 1146 1009 1146 1092 1035 c 128,-1,19
 1175 924 1175 924 1175 694 c 2,20,-1
 1175 0 l 1,0,-1
122 1556 m 1,21,-1
 374 1556 l 1,22,-1
 374 1351 l 1,23,-1
 178 967 l 1,24,-1
 24 967 l 1,25,-1
 122 1351 l 1,26,-1
 122 1556 l 1,21,-1
EndSplineSet
EndChar

StartChar: Eng
Encoding: 330 330 292
Width: 1368
Flags: W
LayerCount: 2
Fore
SplineSet
1086 -20 m 2,0,1
 1086 -214 1086 -214 997 -317 c 1,2,3
 952 -371 952 -371 888.5 -398.5 c 128,-1,4
 825 -426 825 -426 742 -426 c 2,5,-1
 536 -426 l 1,6,-1
 536 -270 l 1,7,-1
 702 -270 l 2,8,9
 794 -270 794 -270 839 -208 c 0,10,11
 862 -177 862 -177 872 -125.5 c 128,-1,12
 882 -74 882 -74 882 0 c 2,13,-1
 882 1010 l 2,14,15
 882 1190 882 1190 824 1274.5 c 128,-1,16
 766 1359 766 1359 643 1359 c 0,17,18
 501 1359 501 1359 425 1250 c 1,19,20
 350 1140 350 1140 350 938 c 2,21,-1
 350 0 l 1,22,-1
 146 0 l 1,23,-1
 146 1495 l 1,24,-1
 350 1495 l 1,25,-1
 350 1295 l 1,26,27
 404 1407 404 1407 495 1464.5 c 128,-1,28
 586 1522 586 1522 715 1522 c 0,29,30
 1086 1522 1086 1522 1086 998 c 2,31,-1
 1086 -20 l 2,0,1
EndSplineSet
EndChar

StartChar: eng
Encoding: 331 331 293
Width: 1368
Flags: W
LayerCount: 2
Fore
SplineSet
1050 -20 m 2,0,1
 1050 -215 1050 -215 963 -317 c 0,2,3
 918 -371 918 -371 854.5 -398.5 c 128,-1,4
 791 -426 791 -426 707 -426 c 2,5,-1
 502 -426 l 1,6,-1
 502 -270 l 1,7,-1
 686 -270 l 2,8,9
 777 -270 777 -270 822 -208 c 0,10,11
 866 -148 866 -148 866 -20 c 2,12,-1
 866 694 l 2,13,14
 866 845 866 845 813.5 915.5 c 128,-1,15
 761 986 761 986 647 986 c 0,16,17
 518 986 518 986 451 896 c 0,18,19
 416 849 416 849 397 784.5 c 128,-1,20
 378 720 378 720 378 634 c 2,21,-1
 378 0 l 1,22,-1
 195 0 l 1,23,-1
 195 1120 l 1,24,-1
 378 1120 l 1,25,-1
 378 952 l 1,26,27
 404 1003 404 1003 437 1038.5 c 128,-1,28
 470 1074 470 1074 512 1099 c 0,29,30
 593 1146 593 1146 711 1146 c 1,31,32
 796 1145 796 1145 860.5 1118 c 128,-1,33
 925 1091 925 1091 967 1035 c 0,34,35
 1010 978 1010 978 1030 893.5 c 128,-1,36
 1050 809 1050 809 1050 694 c 2,37,-1
 1050 -20 l 2,0,1
EndSplineSet
EndChar

StartChar: Tbar
Encoding: 358 358 316
Width: 1368
Flags: W
LayerCount: 2
Fore
SplineSet
46 1495 m 1,0,-1
 1186 1495 l 1,1,-1
 1186 1322 l 1,2,-1
 719 1322 l 1,3,-1
 719 746 l 1,4,-1
 984 746 l 1,5,-1
 984 579 l 1,6,-1
 719 579 l 1,7,-1
 719 0 l 1,8,-1
 516 0 l 1,9,-1
 516 579 l 1,10,-1
 250 579 l 1,11,-1
 250 746 l 1,12,-1
 516 746 l 1,13,-1
 516 1322 l 1,14,-1
 46 1322 l 1,15,-1
 46 1495 l 1,0,-1
EndSplineSet
EndChar

StartChar: tbar
Encoding: 359 359 317
Width: 1368
Flags: W
LayerCount: 2
Fore
SplineSet
614 1438 m 1,0,-1
 614 1120 l 1,1,-1
 1032 1120 l 1,2,-1
 1032 979 l 1,3,-1
 614 979 l 1,4,-1
 614 745 l 1,5,-1
 843 745 l 1,6,-1
 843 602 l 1,7,-1
 614 602 l 1,8,-1
 614 370 l 2,9,10
 614 248 614 248 662 196 c 0,11,12
 709 146 709 146 826 146 c 2,13,-1
 1032 146 l 1,14,-1
 1032 0 l 1,15,-1
 806 0 l 2,16,17
 600 0 600 0 515 82 c 256,18,19
 430 164 430 164 430 370 c 2,20,-1
 430 602 l 1,21,-1
 203 602 l 1,22,-1
 203 745 l 1,23,-1
 430 745 l 1,24,-1
 430 979 l 1,25,-1
 131 979 l 1,26,-1
 131 1120 l 1,27,-1
 430 1120 l 1,28,-1
 430 1438 l 1,29,-1
 614 1438 l 1,0,-1
EndSplineSet
EndChar

StartChar: longs
Encoding: 383 383 340
Width: 1368
Flags: W
LayerCount: 2
Fore
SplineSet
678 0 m 1,0,-1
 494 0 l 1,1,-1
 494 979 l 1,2,-1
 195 979 l 1,3,-1
 195 1120 l 1,4,-1
 494 1120 l 1,5,-1
 494 1198 l 2,6,7
 494 1382 494 1382 578 1469 c 128,-1,8
 662 1556 662 1556 843 1556 c 2,9,-1
 1062 1556 l 1,10,-1
 1062 1402 l 1,11,-1
 854 1402 l 2,12,13
 754 1402 754 1402 716 1363 c 0,14,15
 696 1343 696 1343 687 1306.5 c 128,-1,16
 678 1270 678 1270 678 1219 c 2,17,-1
 678 0 l 1,0,-1
EndSplineSet
EndChar

StartChar: uni0180
Encoding: 384 384 341
Width: 1368
Flags: W
LayerCount: 2
Fore
SplineSet
378 979 m 1,0,1
 424 1061 424 1061 498.5 1103.5 c 128,-1,2
 573 1146 573 1146 678 1146 c 0,3,4
 881 1146 881 1146 997 990 c 0,5,6
 1112 836 1112 836 1112 562 c 0,7,8
 1111 285 1111 285 994 128 c 0,9,10
 877 -30 877 -30 677 -30 c 0,11,12
 575 -30 575 -30 499 12.5 c 128,-1,13
 423 55 423 55 378 142 c 1,14,-1
 378 0 l 1,15,-1
 195 0 l 1,16,-1
 195 1270 l 1,17,-1
 71 1270 l 1,18,-1
 71 1435 l 1,19,-1
 195 1435 l 1,20,-1
 195 1556 l 1,21,-1
 378 1556 l 1,22,-1
 378 1435 l 1,23,-1
 732 1435 l 1,24,-1
 732 1270 l 1,25,-1
 378 1270 l 1,26,-1
 378 979 l 1,0,1
651 990 m 0,27,28
 513 990 513 990 446 882 c 0,29,30
 378 774 378 774 378 558 c 0,31,32
 378 343 378 343 446 234 c 128,-1,33
 514 125 514 125 651 125 c 0,34,35
 787 125 787 125 852.5 232.5 c 128,-1,36
 918 340 918 340 918 558 c 0,37,38
 918 775 918 775 852.5 882.5 c 128,-1,39
 787 990 787 990 651 990 c 0,27,28
EndSplineSet
EndChar

StartChar: uni0181
Encoding: 385 385 342
Width: 1368
Flags: W
LayerCount: 2
Fore
SplineSet
540 715 m 1,0,-1
 540 166 l 1,1,-1
 660 166 l 2,2,3
 837 166 837 166 911 226 c 1,4,5
 986 289 986 289 986 430 c 0,6,7
 987 577 987 577 908 646 c 128,-1,8
 829 715 829 715 660 715 c 2,9,-1
 540 715 l 1,0,-1
540 1326 m 1,10,-1
 540 878 l 1,11,-1
 656 878 l 2,12,13
 802 878 802 878 868 934 c 128,-1,14
 934 990 934 990 934 1114 c 0,15,16
 934 1171 934 1171 918.5 1211 c 128,-1,17
 903 1251 903 1251 869 1276.5 c 128,-1,18
 835 1302 835 1302 782.5 1314 c 128,-1,19
 730 1326 730 1326 656 1326 c 2,20,-1
 540 1326 l 1,10,-1
660 1495 m 2,21,22
 774 1495 774 1495 863 1469.5 c 128,-1,23
 952 1444 952 1444 1013 1395 c 128,-1,24
 1074 1346 1074 1346 1106 1275 c 128,-1,25
 1138 1204 1138 1204 1138 1114 c 0,26,27
 1138 838 1138 838 874 798 c 1,28,29
 949 787 949 787 1007 756.5 c 128,-1,30
 1065 726 1065 726 1107 674 c 0,31,32
 1150 622 1150 622 1170 556 c 128,-1,33
 1190 490 1190 490 1190 410 c 0,34,35
 1188 0 1188 0 660 0 c 2,36,-1
 338 0 l 1,37,-1
 338 1326 l 1,38,39
 276 1326 276 1326 226 1283 c 0,40,41
 176 1239 176 1239 176 1129 c 2,42,-1
 176 1078 l 1,43,-1
 20 1078 l 1,44,-1
 20 1150 l 2,45,46
 20 1309 20 1309 105 1401 c 1,47,48
 190 1495 190 1495 338 1495 c 2,49,-1
 660 1495 l 2,21,22
EndSplineSet
EndChar

StartChar: uni0183
Encoding: 387 387 344
Width: 1368
Flags: W
LayerCount: 2
Fore
SplineSet
378 979 m 1,0,1
 424 1061 424 1061 498.5 1103.5 c 128,-1,2
 573 1146 573 1146 678 1146 c 0,3,4
 881 1146 881 1146 997 990 c 0,5,6
 1112 836 1112 836 1112 562 c 0,7,8
 1111 285 1111 285 994 128 c 0,9,10
 877 -30 877 -30 677 -30 c 0,11,12
 575 -30 575 -30 499 12.5 c 128,-1,13
 423 55 423 55 378 142 c 1,14,-1
 378 0 l 1,15,-1
 195 0 l 1,16,-1
 195 1556 l 1,17,-1
 946 1556 l 1,18,-1
 946 1372 l 1,19,-1
 378 1372 l 1,20,-1
 378 979 l 1,0,1
651 990 m 0,21,22
 513 990 513 990 446 882 c 0,23,24
 378 774 378 774 378 558 c 0,25,26
 378 343 378 343 446 234 c 128,-1,27
 514 125 514 125 651 125 c 0,28,29
 787 125 787 125 852.5 232.5 c 128,-1,30
 918 340 918 340 918 558 c 0,31,32
 918 775 918 775 852.5 882.5 c 128,-1,33
 787 990 787 990 651 990 c 0,21,22
EndSplineSet
EndChar

StartChar: uni0184
Encoding: 388 388 345
Width: 1368
Flags: W
LayerCount: 2
Fore
SplineSet
418 715 m 1,0,-1
 418 166 l 1,1,-1
 656 166 l 2,2,3
 830 166 830 166 907 229 c 1,4,5
 982 292 982 292 982 430 c 0,6,7
 983 574 983 574 903 644 c 0,8,9
 863 679 863 679 801.5 697 c 128,-1,10
 740 715 740 715 656 715 c 2,11,-1
 418 715 l 1,0,-1
418 878 m 1,12,-1
 652 878 l 2,13,14
 841 878 841 878 961.5 822 c 128,-1,15
 1082 766 1082 766 1133 670 c 0,16,17
 1186 570 1186 570 1186 410 c 1,18,19
 1184 206 1184 206 1052 105 c 1,20,21
 917 0 917 0 656 0 c 2,22,-1
 214 0 l 1,23,-1
 214 949 l 1,24,-1
 48 1176 l 1,25,-1
 418 1495 l 1,26,-1
 418 878 l 1,12,-1
EndSplineSet
EndChar

StartChar: uni0185
Encoding: 389 389 346
Width: 1368
Flags: W
LayerCount: 2
Fore
SplineSet
711 990 m 0,0,1
 575 990 575 990 506 882 c 0,2,3
 438 776 438 776 438 558 c 0,4,5
 438 345 438 345 506 238 c 0,6,7
 541 183 541 183 592.5 154.5 c 128,-1,8
 644 126 644 126 711 125 c 0,9,10
 979 124 979 124 979 558 c 0,11,12
 979 990 979 990 711 990 c 0,0,1
438 979 m 1,13,14
 484 1061 484 1061 558.5 1103.5 c 128,-1,15
 633 1146 633 1146 738 1146 c 0,16,17
 941 1146 941 1146 1056 992 c 1,18,19
 1172 834 1172 834 1172 562 c 0,20,21
 1172 422 1172 422 1142.5 314 c 128,-1,22
 1113 206 1113 206 1056 128 c 0,23,24
 940 -30 940 -30 736 -30 c 0,25,26
 636 -30 636 -30 560 14 c 1,27,28
 486 58 486 58 438 142 c 1,29,-1
 438 0 l 1,30,-1
 253 0 l 1,31,-1
 253 949 l 1,32,-1
 60 1176 l 1,33,-1
 438 1556 l 1,34,-1
 438 979 l 1,13,14
EndSplineSet
EndChar

StartChar: uni0186
Encoding: 390 390 347
Width: 1368
Flags: W
LayerCount: 2
Fore
SplineSet
138 1438 m 1,0,1
 292 1521 292 1521 470 1521 c 1,2,3
 753 1523 753 1523 915 1314 c 0,4,5
 996 1211 996 1211 1035 1069.5 c 128,-1,6
 1074 928 1074 928 1074 746 c 0,7,8
 1074 378 1074 378 915 174 c 256,9,10
 756 -30 756 -30 470 -30 c 0,11,12
 379 -30 379 -30 299 -10.5 c 128,-1,13
 219 9 219 9 138 54 c 1,14,-1
 138 260 l 1,15,16
 213 199 213 199 296.5 167 c 128,-1,17
 380 135 380 135 470 135 c 0,18,19
 864 135 864 135 862 746 c 0,20,21
 861 1356 861 1356 470 1356 c 0,22,23
 382 1356 382 1356 298 1325 c 128,-1,24
 214 1294 214 1294 138 1231 c 1,25,-1
 138 1438 l 1,0,1
EndSplineSet
EndChar

StartChar: uni0187
Encoding: 391 391 348
Width: 1368
Flags: W
LayerCount: 2
Fore
SplineSet
994 54 m 1,0,1
 916 12 916 12 835.5 -9 c 128,-1,2
 755 -30 755 -30 664 -30 c 0,3,4
 377 -30 377 -30 218 174 c 0,5,6
 60 377 60 377 60 746 c 0,7,8
 60 1043 60 1043 218 1246 c 0,9,10
 377 1451 377 1451 664 1453 c 0,11,12
 710 1453 710 1453 751.5 1447.5 c 128,-1,13
 793 1442 793 1442 835 1432 c 1,14,15
 854 1483 854 1483 899 1534 c 1,16,17
 944 1588 944 1588 1007.5 1613 c 128,-1,18
 1071 1638 1071 1638 1155 1638 c 2,19,-1
 1175 1638 l 1,20,-1
 1175 1483 l 1,21,22
 1089 1483 1089 1483 1039 1423 c 0,23,24
 994 1370 994 1370 994 1235 c 2,25,-1
 994 1163 l 1,26,27
 919 1224 919 1224 836.5 1256 c 128,-1,28
 754 1288 754 1288 664 1288 c 0,29,30
 466 1288 466 1288 370 1137 c 0,31,32
 322 1061 322 1061 296 963.5 c 128,-1,33
 270 866 270 866 270 746 c 0,34,35
 269 137 269 137 664 135 c 0,36,37
 752 135 752 135 837 167 c 128,-1,38
 922 199 922 199 994 260 c 1,39,-1
 994 54 l 1,0,1
EndSplineSet
EndChar

StartChar: uni0188
Encoding: 392 392 349
Width: 1368
Flags: W
LayerCount: 2
Fore
SplineSet
963 57 m 1,0,1
 888 14 888 14 809.5 -8 c 128,-1,2
 731 -30 731 -30 647 -30 c 0,3,4
 386 -31 386 -31 240 125 c 0,5,6
 94 280 94 280 94 558 c 0,7,8
 94 833 94 833 240 990 c 1,9,10
 387 1146 387 1146 647 1146 c 0,11,12
 723 1146 723 1146 784 1130 c 1,13,14
 802 1243 802 1243 864 1317 c 0,15,16
 954 1423 954 1423 1118 1423 c 2,17,-1
 1138 1423 l 1,18,-1
 1138 1266 l 1,19,20
 1048 1266 1048 1266 1005 1205 c 1,21,22
 963 1143 963 1143 963 1016 c 2,23,-1
 963 869 l 1,24,25
 926 902 926 902 889.5 925.5 c 128,-1,26
 853 949 853 949 814.5 963 c 128,-1,27
 776 977 776 977 735 983.5 c 128,-1,28
 694 990 694 990 647 990 c 0,29,30
 559 990 559 990 492.5 963.5 c 128,-1,31
 426 937 426 937 380 881 c 0,32,33
 287 770 287 770 287 558 c 1,34,35
 286 347 286 347 379.5 236 c 128,-1,36
 473 125 473 125 647 125 c 0,37,38
 744 125 744 125 818 155 c 0,39,40
 894 185 894 185 963 248 c 1,41,-1
 963 57 l 1,0,1
EndSplineSet
EndChar

StartChar: uni018A
Encoding: 394 394 351
Width: 1368
Flags: W
LayerCount: 2
Fore
SplineSet
558 1495 m 2,0,1
 729 1495 729 1495 855 1449.5 c 128,-1,2
 981 1404 981 1404 1063.5 1311.5 c 128,-1,3
 1146 1219 1146 1219 1186.5 1078 c 128,-1,4
 1227 937 1227 937 1227 746 c 0,5,6
 1227 365 1227 365 1062 182 c 1,7,8
 900 0 900 0 558 0 c 2,9,-1
 327 0 l 1,10,-1
 327 1326 l 1,11,12
 301 1326 301 1326 272.5 1315 c 128,-1,13
 244 1304 244 1304 212 1280 c 0,14,15
 165 1243 165 1243 165 1129 c 2,16,-1
 165 1078 l 1,17,-1
 8 1078 l 1,18,-1
 8 1150 l 2,19,20
 8 1329 8 1329 105 1411 c 1,21,22
 201 1495 201 1495 327 1495 c 2,23,-1
 558 1495 l 2,0,1
554 166 m 2,24,25
 682 166 682 166 771 196.5 c 128,-1,26
 860 227 860 227 911 290 c 0,27,28
 963 353 963 353 988 467 c 128,-1,29
 1013 581 1013 581 1013 746 c 0,30,31
 1013 1077 1013 1077 911 1202 c 0,32,33
 809 1326 809 1326 554 1326 c 2,34,-1
 530 1326 l 1,35,-1
 530 166 l 1,36,-1
 554 166 l 2,24,25
EndSplineSet
EndChar

StartChar: uni018B
Encoding: 395 395 352
Width: 1368
Flags: W
LayerCount: 2
Fore
SplineSet
899 715 m 1,0,-1
 660 715 l 2,1,2
 491 715 491 715 412.5 644.5 c 128,-1,3
 334 574 334 574 334 430 c 0,4,5
 334 287 334 287 410 226 c 1,6,7
 482 166 482 166 660 166 c 2,8,-1
 899 166 l 1,9,-1
 899 715 l 1,0,-1
200 1326 m 1,10,-1
 200 1495 l 1,11,-1
 1103 1495 l 1,12,-1
 1103 0 l 1,13,-1
 660 0 l 2,14,15
 129 0 129 0 131 410 c 0,16,17
 131 569 131 569 184 670 c 0,18,19
 234 765 234 765 354 821.5 c 128,-1,20
 474 878 474 878 664 878 c 2,21,-1
 899 878 l 1,22,-1
 899 1326 l 1,23,-1
 200 1326 l 1,10,-1
EndSplineSet
EndChar

StartChar: uni018C
Encoding: 396 396 353
Width: 1368
Flags: W
LayerCount: 2
Fore
SplineSet
621 125 m 0,0,1
 758 125 758 125 825 234 c 128,-1,2
 892 343 892 343 892 558 c 256,3,4
 892 773 892 773 824.5 881.5 c 128,-1,5
 757 990 757 990 621 990 c 0,6,7
 350 990 350 990 350 558 c 0,8,9
 350 125 350 125 621 125 c 0,0,1
324 1372 m 1,10,-1
 324 1556 l 1,11,-1
 1077 1556 l 1,12,-1
 1077 0 l 1,13,-1
 892 0 l 1,14,-1
 892 142 l 1,15,16
 846 55 846 55 770 12.5 c 128,-1,17
 694 -30 694 -30 594 -30 c 0,18,19
 391 -30 391 -30 274 128 c 0,20,21
 158 286 158 286 158 562 c 0,22,23
 158 835 158 835 274 990 c 1,24,25
 389 1146 389 1146 591 1146 c 1,26,27
 694 1147 694 1147 770.5 1102.5 c 128,-1,28
 847 1058 847 1058 892 979 c 1,29,-1
 892 1372 l 1,30,-1
 324 1372 l 1,10,-1
EndSplineSet
EndChar

StartChar: uni018D
Encoding: 397 397 354
Width: 1368
Flags: W
LayerCount: 2
Fore
SplineSet
617 125 m 0,0,1
 901 125 901 125 900 558 c 0,2,3
 900 773 900 773 829.5 881.5 c 128,-1,4
 759 990 759 990 617 990 c 0,5,6
 474 990 474 990 402 882 c 0,7,8
 365 827 365 827 348 746.5 c 128,-1,9
 331 666 331 666 331 558 c 0,10,11
 332 125 332 125 617 125 c 0,0,1
899 50 m 1,12,13
 909 45 909 45 923.5 33.5 c 128,-1,14
 938 22 938 22 958 3 c 0,15,16
 1018 -57 1018 -57 1018 -150 c 1,17,18
 1017 -219 1017 -219 989.5 -273.5 c 128,-1,19
 962 -328 962 -328 903 -370 c 256,20,21
 844 -412 844 -412 765.5 -432 c 128,-1,22
 687 -452 687 -452 587 -451 c 0,23,24
 536 -451 536 -451 498 -447.5 c 128,-1,25
 460 -444 460 -444 434 -438 c 2,26,-1
 282 -402 l 1,27,-1
 282 -230 l 1,28,29
 316 -242 316 -242 350 -252 c 128,-1,30
 384 -262 384 -262 418 -270 c 0,31,32
 455 -278 455 -278 492 -281 c 128,-1,33
 529 -284 529 -284 566 -284 c 2,34,-1
 587 -284 l 1,35,-1
 618 -282 l 2,36,37
 693 -277 693 -277 750 -238 c 2,38,-1
 790 -210 l 1,39,40
 816 -186 816 -186 817 -140 c 0,41,42
 817 -106 817 -106 802 -88 c 0,43,44
 785 -67 785 -67 746 -42 c 0,45,46
 735 -35 735 -35 703 -32.5 c 128,-1,47
 671 -30 671 -30 617 -30 c 0,48,49
 499 -29 499 -29 410.5 9 c 128,-1,50
 322 47 322 47 260 122 c 0,51,52
 136 271 136 271 136 558 c 0,53,54
 136 848 136 848 258 997 c 0,55,56
 381 1146 381 1146 617 1146 c 0,57,58
 854 1146 854 1146 975 998 c 0,59,60
 1097 848 1097 848 1095 558 c 1,61,62
 1095 272 1095 272 972 122 c 0,63,64
 939 83 939 83 899 50 c 1,12,13
EndSplineSet
EndChar

StartChar: uni018E
Encoding: 398 398 355
Width: 1368
Flags: W
LayerCount: 2
Fore
SplineSet
1103 1495 m 1,0,-1
 1103 0 l 1,1,-1
 199 0 l 1,2,-1
 199 170 l 1,3,-1
 900 170 l 1,4,-1
 900 711 l 1,5,-1
 246 711 l 1,6,-1
 246 882 l 1,7,-1
 900 882 l 1,8,-1
 900 1322 l 1,9,-1
 216 1322 l 1,10,-1
 216 1495 l 1,11,-1
 1103 1495 l 1,0,-1
EndSplineSet
EndChar

StartChar: uni018F
Encoding: 399 399 356
Width: 1368
Flags: W
LayerCount: 2
Fore
SplineSet
118 828 m 1,0,-1
 904 828 l 1,1,-1
 904 836 l 2,2,3
 904 957 904 957 887 1052 c 128,-1,4
 870 1147 870 1147 835 1219 c 0,5,6
 766 1358 766 1358 617 1356 c 0,7,8
 529 1355 529 1355 445.5 1323.5 c 128,-1,9
 362 1292 362 1292 286 1231 c 1,10,-1
 286 1438 l 1,11,12
 364 1480 364 1480 445 1500.5 c 128,-1,13
 526 1521 526 1521 617 1521 c 0,14,15
 870 1521 870 1521 993 1329 c 128,-1,16
 1116 1137 1116 1137 1116 746 c 256,17,18
 1116 355 1116 355 993 162.5 c 128,-1,19
 870 -30 870 -30 617 -30 c 256,20,21
 364 -30 364 -30 241 162 c 128,-1,22
 118 354 118 354 118 746 c 2,23,-1
 118 828 l 1,0,-1
332 644 m 1,24,25
 332 396 332 396 402 265.5 c 128,-1,26
 472 135 472 135 621 135 c 0,27,28
 768 135 768 135 830 263 c 0,29,30
 891 389 891 389 903 644 c 1,31,-1
 332 644 l 1,24,25
EndSplineSet
EndChar

StartChar: uni0190
Encoding: 400 400 357
Width: 1368
Flags: W
LayerCount: 2
Fore
SplineSet
440 798 m 1,0,1
 304 832 304 832 238 912.5 c 128,-1,2
 172 993 172 993 172 1118 c 0,3,4
 172 1300 172 1300 302 1411 c 1,5,6
 433 1521 433 1521 651 1521 c 0,7,8
 798 1521 798 1521 1035 1457 c 1,9,-1
 1035 1270 l 1,10,11
 927 1311 927 1311 835 1330 c 0,12,13
 787 1340 787 1340 741.5 1345.5 c 128,-1,14
 696 1351 696 1351 651 1351 c 0,15,16
 514 1352 514 1352 443 1289.5 c 128,-1,17
 372 1227 372 1227 372 1112 c 0,18,19
 372 1001 372 1001 449.5 941.5 c 128,-1,20
 527 882 527 882 666 882 c 2,21,-1
 822 882 l 1,22,-1
 822 715 l 1,23,-1
 666 715 l 2,24,25
 515 715 515 715 426 638 c 1,26,27
 338 560 338 560 338 432 c 0,28,29
 338 289 338 289 426 215.5 c 128,-1,30
 514 142 514 142 682 142 c 0,31,32
 784 142 784 142 879.5 168.5 c 128,-1,33
 975 195 975 195 1078 246 c 1,34,-1
 1078 46 l 1,35,36
 1027 27 1027 27 975 13.5 c 128,-1,37
 923 0 923 0 869 -10 c 256,38,39
 815 -20 815 -20 762.5 -25 c 128,-1,40
 710 -30 710 -30 658 -30 c 0,41,42
 411 -30 411 -30 274 88 c 0,43,44
 138 205 138 205 138 412 c 1,45,46
 139 563 139 563 214 661.5 c 128,-1,47
 289 760 289 760 440 798 c 1,0,1
EndSplineSet
EndChar

StartChar: uni0191
Encoding: 401 401 358
Width: 1368
Flags: W
LayerCount: 2
Fore
SplineSet
380 1495 m 1,0,-1
 1171 1495 l 1,1,-1
 1171 1322 l 1,2,-1
 583 1322 l 1,3,-1
 583 882 l 1,4,-1
 1107 882 l 1,5,-1
 1107 715 l 1,6,-1
 583 715 l 1,7,-1
 583 -20 l 2,8,9
 583 -214 583 -214 494 -317 c 1,10,11
 449 -371 449 -371 385.5 -398.5 c 128,-1,12
 322 -426 322 -426 238 -426 c 2,13,-1
 61 -426 l 1,14,-1
 61 -270 l 1,15,-1
 203 -270 l 2,16,17
 292 -270 292 -270 336 -208 c 256,18,19
 380 -146 380 -146 380 -20 c 2,20,-1
 380 1495 l 1,0,-1
EndSplineSet
EndChar

StartChar: uni0193
Encoding: 403 403 359
Width: 1368
Flags: W
LayerCount: 2
Fore
SplineSet
1054 122 m 1,0,1
 972 47 972 47 872 8.5 c 128,-1,2
 772 -30 772 -30 652 -30 c 0,3,4
 367 -30 367 -30 210 174 c 0,5,6
 52 380 52 380 52 746 c 256,7,8
 52 1112 52 1112 212 1314 c 0,9,10
 293 1417 293 1417 403 1468.5 c 128,-1,11
 513 1520 513 1520 656 1521 c 0,12,13
 702 1521 702 1521 748 1515.5 c 128,-1,14
 794 1510 794 1510 836 1495 c 2,15,-1
 870 1483 l 1,16,17
 877 1496 877 1496 886.5 1508.5 c 128,-1,18
 896 1521 896 1521 907 1534 c 0,19,20
 952 1588 952 1588 1015.5 1613 c 128,-1,21
 1079 1638 1079 1638 1163 1638 c 2,22,-1
 1182 1638 l 1,23,-1
 1182 1483 l 1,24,25
 1098 1483 1098 1483 1047 1423 c 0,26,27
 1024 1397 1024 1397 1014 1348 c 0,28,29
 1009 1325 1009 1325 1005.5 1297 c 128,-1,30
 1002 1269 1002 1269 1002 1235 c 2,31,-1
 1002 1206 l 1,32,33
 920 1284 920 1284 837 1320 c 128,-1,34
 754 1356 754 1356 656 1356 c 0,35,36
 263 1356 263 1356 263 746 c 1,37,38
 264 436 264 436 359.5 285.5 c 128,-1,39
 455 135 455 135 652 135 c 0,40,41
 719 135 719 135 770 150 c 1,42,43
 819 163 819 163 860 199 c 1,44,-1
 860 600 l 1,45,-1
 644 600 l 1,46,-1
 644 766 l 1,47,-1
 1054 766 l 1,48,-1
 1054 122 l 1,0,1
EndSplineSet
EndChar

StartChar: uni0194
Encoding: 404 404 360
Width: 1368
Flags: W
LayerCount: 2
Fore
SplineSet
730 651 m 1,0,1
 1054 199 1054 199 1054 -195 c 0,2,3
 1054 -430 1054 -430 638 -430 c 0,4,5
 199 -429 199 -429 199 -195 c 1,6,7
 200 -11 200 -11 272.5 201 c 128,-1,8
 345 413 345 413 493 658 c 1,9,-1
 27 1355 l 1,10,-1
 244 1355 l 1,11,-1
 617 798 l 1,12,-1
 988 1355 l 1,13,-1
 1206 1355 l 1,14,-1
 730 651 l 1,0,1
600 494 m 1,15,16
 400 192 400 192 402 -131 c 0,17,18
 402 -270 402 -270 618 -268 c 1,19,20
 822 -268 822 -268 822 -131 c 0,21,22
 822 194 822 194 600 494 c 1,15,16
EndSplineSet
EndChar

StartChar: uni0195
Encoding: 405 405 361
Width: 1368
Flags: W
LayerCount: 2
Fore
SplineSet
754 406 m 2,0,1
 754 251 754 251 788 204 c 0,2,3
 823 155 823 155 870 155 c 2,4,-1
 882 155 l 1,5,6
 904 158 904 158 954 230 c 1,7,8
 1002 297 1002 297 1002 455 c 2,9,-1
 1002 864 l 1,10,-1
 1168 864 l 1,11,-1
 1168 455 l 2,12,13
 1168 225 1168 225 1093 112.5 c 128,-1,14
 1018 0 1018 0 862 0 c 0,15,16
 734 0 734 0 662 95 c 1,17,18
 588 190 588 190 588 406 c 2,19,-1
 588 694 l 2,20,21
 588 844 588 844 540 916 c 0,22,23
 494 986 494 986 426 986 c 1,24,25
 354 984 354 984 292 894 c 1,26,27
 230 802 230 802 230 634 c 2,28,-1
 230 0 l 1,29,-1
 67 0 l 1,30,-1
 67 1556 l 1,31,-1
 230 1556 l 1,32,-1
 230 952 l 1,33,34
 307 1085 307 1085 327 1099 c 0,35,36
 366 1125 366 1125 402 1137 c 0,37,38
 422 1143 422 1143 443 1145 c 128,-1,39
 464 1147 464 1147 486 1146 c 0,40,41
 606 1144 606 1144 678 1035 c 1,42,43
 754 923 754 923 754 694 c 2,44,-1
 754 406 l 2,0,1
EndSplineSet
EndChar

StartChar: uni0196
Encoding: 406 406 362
Width: 1368
Flags: W
LayerCount: 2
Fore
SplineSet
515 1322 m 1,0,-1
 203 1322 l 1,1,-1
 203 1495 l 1,2,-1
 1031 1495 l 1,3,-1
 1031 1322 l 1,4,-1
 719 1322 l 1,5,-1
 719 422 l 2,6,7
 719 359 719 359 729 312 c 128,-1,8
 739 265 739 265 762 234 c 0,9,10
 808 170 808 170 896 170 c 2,11,-1
 1082 170 l 1,12,-1
 1082 0 l 1,13,-1
 866 0 l 2,14,15
 781 0 781 0 715 26 c 128,-1,16
 649 52 649 52 602 106 c 0,17,18
 556 158 556 158 535.5 233 c 128,-1,19
 515 308 515 308 515 406 c 2,20,-1
 515 1322 l 1,0,-1
EndSplineSet
EndChar

StartChar: uni0197
Encoding: 407 407 363
Width: 1368
Flags: W
LayerCount: 2
Fore
SplineSet
203 1495 m 1,0,-1
 1031 1495 l 1,1,-1
 1031 1322 l 1,2,-1
 719 1322 l 1,3,-1
 719 746 l 1,4,-1
 984 746 l 1,5,-1
 984 579 l 1,6,-1
 719 579 l 1,7,-1
 719 170 l 1,8,-1
 1031 170 l 1,9,-1
 1031 0 l 1,10,-1
 203 0 l 1,11,-1
 203 170 l 1,12,-1
 515 170 l 1,13,-1
 515 579 l 1,14,-1
 250 579 l 1,15,-1
 250 746 l 1,16,-1
 515 746 l 1,17,-1
 515 1322 l 1,18,-1
 203 1322 l 1,19,-1
 203 1495 l 1,0,-1
EndSplineSet
EndChar

StartChar: uni0198
Encoding: 408 408 364
Width: 1368
Flags: W
LayerCount: 2
Fore
SplineSet
647 1180 m 2,0,1
 807 1348 807 1348 915 1363 c 0,2,3
 926 1365 926 1365 936 1366 c 128,-1,4
 946 1367 946 1367 954 1367 c 0,5,6
 1081 1367 1081 1367 1172 1266 c 2,7,-1
 1219 1214 l 1,8,-1
 1114 1103 l 1,9,-1
 1080 1138 l 2,10,11
 1055 1164 1055 1164 1029.5 1177 c 128,-1,12
 1004 1190 1004 1190 975 1190 c 0,13,14
 951 1190 951 1190 938 1186 c 1,15,16
 904 1179 904 1179 861.5 1145.5 c 128,-1,17
 819 1112 819 1112 764 1054 c 2,18,-1
 600 882 l 1,19,-1
 1198 0 l 1,20,-1
 954 0 l 1,21,-1
 466 749 l 1,22,-1
 314 584 l 1,23,-1
 314 0 l 1,24,-1
 110 0 l 1,25,-1
 110 1495 l 1,26,-1
 314 1495 l 1,27,-1
 314 830 l 1,28,-1
 647 1180 l 2,0,1
EndSplineSet
EndChar

StartChar: uni0199
Encoding: 409 409 365
Width: 1368
Flags: W
LayerCount: 2
Fore
SplineSet
236 1002 m 1,0,-1
 236 1150 l 2,1,2
 236 1344 236 1344 327 1450 c 256,3,4
 418 1556 418 1556 580 1556 c 2,5,-1
 787 1556 l 1,6,-1
 787 1401 l 1,7,-1
 600 1401 l 2,8,9
 509 1401 509 1401 466 1338 c 1,10,11
 422 1276 422 1276 422 1150 c 1,12,-1
 426 1150 l 1,13,-1
 426 655 l 1,14,-1
 911 1120 l 1,15,-1
 1134 1120 l 1,16,-1
 692 698 l 1,17,-1
 1202 0 l 1,18,-1
 979 0 l 1,19,-1
 562 579 l 1,20,-1
 426 451 l 1,21,-1
 426 0 l 1,22,-1
 236 0 l 1,23,-1
 236 1002 l 1,0,-1
EndSplineSet
EndChar

StartChar: uni019A
Encoding: 410 410 366
Width: 1368
Flags: W
LayerCount: 2
Fore
SplineSet
638 406 m 2,0,1
 638 155 638 155 818 155 c 2,2,-1
 1035 155 l 1,3,-1
 1035 0 l 1,4,-1
 802 0 l 2,5,6
 635 0 635 0 545 104.5 c 128,-1,7
 455 209 455 209 455 406 c 2,8,-1
 455 602 l 1,9,-1
 226 602 l 1,10,-1
 226 745 l 1,11,-1
 455 745 l 1,12,-1
 455 1423 l 1,13,-1
 159 1423 l 1,14,-1
 159 1566 l 1,15,-1
 638 1566 l 1,16,-1
 638 745 l 1,17,-1
 648 745 l 1,18,-1
 870 745 l 1,19,-1
 870 602 l 1,20,-1
 648 602 l 1,21,-1
 638 602 l 1,22,-1
 638 406 l 2,0,1
EndSplineSet
EndChar

StartChar: uni019B
Encoding: 411 411 367
Width: 1368
Flags: W
LayerCount: 2
Fore
SplineSet
579 1214 m 1,0,-1
 926 1454 l 1,1,-1
 1006 1347 l 1,2,-1
 636 1086 l 1,3,-1
 1134 0 l 1,4,-1
 942 0 l 1,5,-1
 622 707 l 1,6,-1
 290 0 l 1,7,-1
 101 0 l 1,8,-1
 527 915 l 1,9,-1
 490 986 l 1,10,-1
 131 736 l 1,11,-1
 50 847 l 1,12,-1
 434 1114 l 1,13,-1
 260 1495 l 1,14,-1
 451 1495 l 1,15,-1
 579 1214 l 1,0,-1
EndSplineSet
EndChar

StartChar: uni019C
Encoding: 412 412 368
Width: 1368
Flags: W
LayerCount: 2
Fore
SplineSet
568 114 m 1,0,1
 534 42 534 42 482 8 c 128,-1,2
 430 -26 430 -26 354 -26 c 0,3,4
 219 -26 219 -26 165 78 c 0,5,6
 110 182 110 182 110 470 c 2,7,-1
 110 1495 l 1,8,-1
 278 1495 l 1,9,-1
 278 478 l 2,10,11
 278 239 278 239 303 182 c 256,12,13
 328 125 328 125 400 125 c 0,14,15
 480 125 480 125 510 188 c 0,16,17
 538 248 538 248 538 478 c 2,18,-1
 538 1495 l 1,19,-1
 707 1495 l 1,20,-1
 707 478 l 2,21,22
 707 357 707 357 713.5 283 c 128,-1,23
 720 209 720 209 734 182 c 0,24,25
 762 127 762 127 839 125 c 1,26,27
 909 125 909 125 938 188 c 0,28,29
 952 219 952 219 960 291 c 128,-1,30
 968 363 968 363 968 478 c 2,31,-1
 968 1495 l 1,32,-1
 1134 1495 l 1,33,-1
 1134 0 l 1,34,-1
 968 0 l 1,35,-1
 968 95 l 1,36,37
 934 35 934 35 885 4.5 c 128,-1,38
 836 -26 836 -26 775 -26 c 0,39,40
 622 -26 622 -26 568 114 c 1,0,1
EndSplineSet
EndChar

StartChar: uni019D
Encoding: 413 413 369
Width: 1368
Flags: W
LayerCount: 2
Fore
SplineSet
189 1495 m 1,0,-1
 421 1495 l 1,1,-1
 874 264 l 1,2,-1
 874 1495 l 1,3,-1
 1050 1495 l 1,4,-1
 1050 0 l 1,5,-1
 818 0 l 1,6,-1
 366 1231 l 1,7,-1
 366 -20 l 2,8,9
 366 -214 366 -214 286 -317 c 0,10,11
 244 -371 244 -371 187.5 -398.5 c 128,-1,12
 131 -426 131 -426 56 -426 c 2,13,-1
 30 -426 l 1,14,-1
 30 -270 l 1,15,16
 109 -270 109 -270 150 -208 c 0,17,18
 170 -177 170 -177 179.5 -130.5 c 128,-1,19
 189 -84 189 -84 189 -20 c 2,20,-1
 189 1495 l 1,0,-1
EndSplineSet
EndChar

StartChar: uni019E
Encoding: 414 414 370
Width: 1368
Flags: W
LayerCount: 2
Fore
SplineSet
1050 -430 m 1,0,-1
 866 -430 l 1,1,-1
 866 694 l 2,2,3
 866 845 866 845 813.5 915.5 c 128,-1,4
 761 986 761 986 647 986 c 0,5,6
 515 986 515 986 446.5 896.5 c 128,-1,7
 378 807 378 807 378 634 c 2,8,-1
 378 0 l 1,9,-1
 195 0 l 1,10,-1
 195 1120 l 1,11,-1
 378 1120 l 1,12,-1
 378 952 l 1,13,14
 429 1051 429 1051 512.5 1098.5 c 128,-1,15
 596 1146 596 1146 711 1146 c 0,16,17
 885 1146 885 1146 967.5 1035 c 128,-1,18
 1050 924 1050 924 1050 694 c 2,19,-1
 1050 -430 l 1,0,-1
EndSplineSet
EndChar

StartChar: uni019F
Encoding: 415 415 371
Width: 1368
Flags: W
LayerCount: 2
Fore
SplineSet
617 -30 m 256,0,1
 364 -30 364 -30 241 162 c 128,-1,2
 118 354 118 354 118 746 c 0,3,4
 118 1137 118 1137 241.5 1329 c 128,-1,5
 365 1521 365 1521 617 1521 c 0,6,7
 870 1521 870 1521 993 1329 c 128,-1,8
 1116 1137 1116 1137 1116 746 c 256,9,10
 1116 355 1116 355 993 162.5 c 128,-1,11
 870 -30 870 -30 617 -30 c 256,0,1
904 828 m 1,12,13
 897 1091 897 1091 839 1214 c 0,14,15
 772 1356 772 1356 617 1356 c 0,16,17
 463 1356 463 1356 396 1214 c 0,18,19
 338 1091 338 1091 331 828 c 1,20,-1
 904 828 l 1,12,13
331 644 m 1,21,22
 336 518 336 518 352 427 c 128,-1,23
 368 336 368 336 396 276 c 0,24,25
 463 135 463 135 617 135 c 1,26,27
 774 137 774 137 839 276 c 0,28,29
 895 395 895 395 903 644 c 1,30,-1
 331 644 l 1,21,22
EndSplineSet
EndChar

StartChar: uni01A2
Encoding: 418 418 374
Width: 1368
Flags: W
LayerCount: 2
Fore
SplineSet
46 746 m 0,0,1
 46 1420 46 1420 378 1506 c 0,2,3
 406 1513 406 1513 435 1517 c 128,-1,4
 464 1521 464 1521 494 1521 c 0,5,6
 699 1522 699 1522 810 1363 c 1,7,-1
 958 1495 l 1,8,-1
 1189 1495 l 1,9,-1
 1189 0 l 1,10,-1
 1014 0 l 1,11,-1
 1014 1231 l 1,12,-1
 835 1070 l 1,13,-1
 835 162 l 1,14,15
 726 -32 726 -32 494 -30 c 0,16,17
 265 -29 265 -29 155.5 162.5 c 128,-1,18
 46 354 46 354 46 746 c 0,0,1
694 1214 m 1,19,20
 633 1356 633 1356 494 1356 c 256,21,22
 355 1356 355 1356 294 1214 c 1,23,24
 234 1071 234 1071 234 746 c 0,25,26
 234 418 234 418 294 276 c 0,27,28
 355 134 355 134 494 135 c 0,29,30
 632 135 632 135 694 276 c 1,31,-1
 694 1214 l 1,19,20
EndSplineSet
EndChar

StartChar: uni01A3
Encoding: 419 419 375
Width: 1368
Flags: W
LayerCount: 2
Fore
SplineSet
86 558 m 0,0,1
 86 993 86 993 336 1111 c 0,2,3
 376 1130 376 1130 421.5 1138 c 128,-1,4
 467 1146 467 1146 519 1146 c 0,5,6
 730 1144 730 1144 839 997 c 1,7,-1
 839 954 l 1,8,-1
 964 1062 l 1,9,-1
 1194 1062 l 1,10,-1
 1194 -430 l 1,11,-1
 1018 -430 l 1,12,-1
 1018 798 l 1,13,-1
 839 643 l 1,14,-1
 839 122 l 1,15,16
 731 -30 731 -30 519 -30 c 0,17,18
 283 -30 283 -30 172 158 c 0,19,20
 86 303 86 303 86 558 c 0,0,1
263 558 m 0,21,22
 263 163 263 163 478 131 c 0,23,24
 487 129 487 129 497.5 127 c 128,-1,25
 508 125 508 125 519 125 c 0,26,27
 646 124 646 124 711 236 c 1,28,-1
 711 882 l 1,29,30
 649 990 649 990 519 990 c 0,31,32
 416 990 416 990 353 920 c 128,-1,33
 290 850 290 850 270 707 c 0,34,35
 265 672 265 672 264 635 c 128,-1,36
 263 598 263 598 263 558 c 0,21,22
EndSplineSet
EndChar

StartChar: uni01A4
Encoding: 420 420 376
Width: 1368
Flags: W
LayerCount: 2
Fore
SplineSet
1178 1047 m 0,0,1
 1178 701 1178 701 866 622 c 0,2,3
 845 617 845 617 822.5 613.5 c 128,-1,4
 800 610 800 610 775 606 c 0,5,6
 727 600 727 600 670 600 c 2,7,-1
 574 600 l 1,8,-1
 574 0 l 1,9,-1
 374 0 l 1,10,-1
 374 1326 l 1,11,12
 321 1326 321 1326 260 1280 c 1,13,14
 212 1242 212 1242 212 1129 c 2,15,-1
 212 1078 l 1,16,-1
 56 1078 l 1,17,-1
 56 1150 l 2,18,19
 56 1329 56 1329 152 1412 c 0,20,21
 247 1495 247 1495 374 1495 c 2,22,-1
 670 1495 l 2,23,24
 1076 1495 1076 1495 1159 1202 c 0,25,26
 1178 1136 1178 1136 1178 1047 c 0,0,1
670 766 m 2,27,28
 880 766 880 766 945 922 c 0,29,30
 967 975 967 975 967 1047 c 0,31,32
 967 1183 967 1183 890.5 1254.5 c 128,-1,33
 814 1326 814 1326 670 1326 c 2,34,-1
 574 1326 l 1,35,-1
 574 766 l 1,36,-1
 670 766 l 2,27,28
EndSplineSet
EndChar

StartChar: uni01A5
Encoding: 421 421 377
Width: 1368
Flags: W
LayerCount: 2
Fore
SplineSet
374 558 m 0,0,1
 374 184 374 184 584 135 c 0,2,3
 598 132 598 132 614 128.5 c 128,-1,4
 630 125 630 125 647 125 c 0,5,6
 915 125 915 125 915 558 c 0,7,8
 915 769 915 769 853 879.5 c 128,-1,9
 791 990 791 990 664 990 c 2,10,-1
 647 990 l 2,11,12
 433 990 433 990 387 719 c 0,13,14
 374 648 374 648 374 558 c 0,0,1
374 979 m 1,15,16
 420 1061 420 1061 490.5 1103.5 c 128,-1,17
 561 1146 561 1146 660 1146 c 2,18,-1
 674 1146 l 2,19,20
 876 1146 876 1146 992 990 c 1,21,22
 1108 832 1108 832 1108 554 c 0,23,24
 1108 418 1108 418 1079.5 311 c 128,-1,25
 1051 204 1051 204 992 125 c 1,26,27
 879 -30 879 -30 674 -30 c 0,28,29
 465 -30 465 -30 374 142 c 1,30,-1
 374 -426 l 1,31,-1
 189 -426 l 1,32,-1
 189 1027 l 2,33,34
 189 1325 189 1325 395 1406 c 0,35,36
 426 1418 426 1418 460.5 1425 c 128,-1,37
 495 1432 495 1432 534 1432 c 2,38,-1
 738 1432 l 1,39,-1
 738 1276 l 1,40,-1
 554 1276 l 2,41,42
 388 1276 388 1276 376 1054 c 0,43,44
 376 1047 376 1047 375 1041 c 128,-1,45
 374 1035 374 1035 374 1027 c 2,46,-1
 374 979 l 1,15,16
EndSplineSet
EndChar

StartChar: uni01A6
Encoding: 422 422 378
Width: 1368
Flags: W
LayerCount: 2
Fore
SplineSet
760 442 m 1,0,1
 799 432 799 432 833 413.5 c 128,-1,2
 867 395 867 395 894 366 c 0,3,4
 949 308 949 308 1031 144 c 2,5,-1
 1235 -264 l 1,6,-1
 1016 -264 l 1,7,-1
 839 114 l 2,8,9
 802 193 802 193 766.5 243.5 c 128,-1,10
 731 294 731 294 698 317 c 0,11,12
 666 340 666 340 627 353 c 128,-1,13
 588 366 588 366 538 366 c 2,14,-1
 346 366 l 1,15,-1
 346 0 l 1,16,-1
 142 0 l 1,17,-1
 142 1495 l 1,18,-1
 346 1495 l 1,19,-1
 346 1231 l 1,20,-1
 558 1231 l 2,21,22
 681 1231 681 1231 775.5 1202.5 c 128,-1,23
 870 1174 870 1174 934.5 1118.5 c 128,-1,24
 999 1063 999 1063 1032.5 982.5 c 128,-1,25
 1066 902 1066 902 1066 798 c 0,26,27
 1066 649 1066 649 987 555.5 c 128,-1,28
 908 462 908 462 760 442 c 1,0,1
346 1062 m 1,29,-1
 346 534 l 1,30,-1
 566 534 l 2,31,32
 713 534 713 534 784 598 c 0,33,34
 854 662 854 662 854 798 c 1,35,36
 853 930 853 930 780.5 996 c 128,-1,37
 708 1062 708 1062 558 1062 c 2,38,-1
 346 1062 l 1,29,-1
EndSplineSet
EndChar

StartChar: uni01A7
Encoding: 423 423 379
Width: 1368
Flags: W
LayerCount: 2
Fore
SplineSet
226 1442 m 1,0,1
 332 1481 332 1481 426.5 1501 c 128,-1,2
 521 1521 521 1521 606 1521 c 0,3,4
 826 1522 826 1522 963 1398 c 0,5,6
 1097 1277 1097 1277 1099 1078 c 1,7,8
 1099 918 1099 918 1005 824 c 0,9,10
 956 776 956 776 881.5 740.5 c 128,-1,11
 807 705 807 705 702 682 c 2,12,-1
 594 658 l 2,13,14
 521 642 521 642 471 619 c 128,-1,15
 421 596 421 596 391 566 c 0,16,17
 362 537 362 537 347 494.5 c 128,-1,18
 332 452 332 452 332 395 c 0,19,20
 331 269 331 269 415 202 c 128,-1,21
 499 135 499 135 655 135 c 0,22,23
 761 135 761 135 862.5 169 c 128,-1,24
 964 203 964 203 1078 276 c 1,25,-1
 1078 61 l 1,26,27
 861 -30 861 -30 655 -30 c 0,28,29
 398 -31 398 -31 268 81.5 c 128,-1,30
 138 194 138 194 138 408 c 0,31,32
 138 498 138 498 161.5 568.5 c 128,-1,33
 185 639 185 639 234.5 693 c 128,-1,34
 284 747 284 747 360.5 785 c 128,-1,35
 437 823 437 823 542 848 c 2,36,-1
 647 873 l 2,37,38
 720 890 720 890 771 911 c 128,-1,39
 822 932 822 932 851 958 c 0,40,41
 907 1008 907 1008 907 1111 c 0,42,43
 907 1223 907 1223 822 1291 c 1,44,45
 739 1356 739 1356 596 1356 c 1,46,47
 502 1355 502 1355 410.5 1326.5 c 128,-1,48
 319 1298 319 1298 226 1239 c 1,49,-1
 226 1442 l 1,0,1
EndSplineSet
EndChar

StartChar: uni01A8
Encoding: 424 424 380
Width: 1368
Flags: W
LayerCount: 2
Fore
SplineSet
270 1082 m 1,0,1
 352 1116 352 1116 433.5 1131 c 128,-1,2
 515 1146 515 1146 606 1146 c 0,3,4
 709 1146 709 1146 786.5 1125.5 c 128,-1,5
 864 1105 864 1105 918 1061 c 0,6,7
 1027 973 1027 973 1027 810 c 1,8,9
 1028 685 1028 685 955 610 c 128,-1,10
 882 535 882 535 722 506 c 2,11,-1
 652 493 l 1,12,-1
 644 490 l 1,13,14
 521 460 521 460 459.5 419 c 128,-1,15
 398 378 398 378 398 314 c 0,16,17
 398 223 398 223 463.5 174 c 128,-1,18
 529 125 529 125 655 125 c 0,19,20
 825 125 825 125 1031 230 c 1,21,-1
 1031 42 l 1,22,23
 925 8 925 8 835 -11 c 128,-1,24
 745 -30 745 -30 658 -30 c 0,25,26
 447 -30 447 -30 331 61 c 0,27,28
 214 154 214 154 214 324 c 1,29,30
 215 451 215 451 284 525 c 128,-1,31
 353 599 353 599 490 630 c 2,32,-1
 566 647 l 2,33,34
 657 667 657 667 714 683.5 c 128,-1,35
 771 700 771 700 794 719 c 0,36,37
 840 756 840 756 840 830 c 0,38,39
 840 996 840 996 592 994 c 1,40,41
 427 994 427 994 270 903 c 1,42,-1
 270 1082 l 1,0,1
EndSplineSet
EndChar

StartChar: uni01AA
Encoding: 426 426 382
Width: 1368
Flags: W
LayerCount: 2
Fore
SplineSet
568 1284 m 1,0,1
 564 1306 564 1306 557 1323.5 c 128,-1,2
 550 1341 550 1341 542 1352 c 0,3,4
 524 1375 524 1375 489 1388 c 128,-1,5
 454 1401 454 1401 400 1401 c 0,6,7
 276 1402 276 1402 274 1333 c 1,8,9
 274 1284 274 1284 391 1284 c 2,10,-1
 568 1284 l 1,0,1
766 1130 m 1,11,-1
 762 -90 l 2,12,13
 762 -143 762 -143 772 -178.5 c 128,-1,14
 782 -214 782 -214 802 -234 c 256,15,16
 822 -254 822 -254 855 -264 c 128,-1,17
 888 -274 888 -274 938 -274 c 2,18,-1
 1114 -274 l 1,19,-1
 1114 -426 l 1,20,-1
 942 -426 l 2,21,22
 747 -426 747 -426 666 -340 c 0,23,24
 579 -248 579 -248 579 -68 c 2,25,-1
 579 1130 l 1,26,-1
 388 1130 l 2,27,28
 118 1130 118 1130 118 1340 c 0,29,30
 118 1556 118 1556 422 1556 c 0,31,32
 513 1556 513 1556 578 1533 c 128,-1,33
 643 1510 643 1510 685 1461 c 0,34,35
 698 1445 698 1445 709 1426.5 c 128,-1,36
 720 1408 720 1408 728 1385 c 0,37,38
 736 1363 736 1363 742.5 1338.5 c 128,-1,39
 749 1314 749 1314 754 1287 c 1,40,-1
 946 1287 l 1,41,-1
 946 1130 l 1,42,-1
 766 1130 l 1,11,-1
EndSplineSet
EndChar

StartChar: uni01AB
Encoding: 427 427 383
Width: 1368
Flags: W
LayerCount: 2
Fore
SplineSet
614 1438 m 1,0,-1
 614 1120 l 1,1,-1
 1032 1120 l 1,2,-1
 1032 979 l 1,3,-1
 614 979 l 1,4,-1
 614 370 l 2,5,6
 614 248 614 248 662 196 c 0,7,8
 709 146 709 146 826 146 c 2,9,-1
 1032 146 l 1,10,-1
 1032 0 l 1,11,-1
 1032 -20 l 2,12,13
 1032 -118 1032 -118 1009.5 -191.5 c 128,-1,14
 987 -265 987 -265 942 -317 c 0,15,16
 896 -370 896 -370 833.5 -398 c 128,-1,17
 771 -426 771 -426 689 -426 c 2,18,-1
 482 -426 l 1,19,-1
 482 -270 l 1,20,-1
 668 -270 l 2,21,22
 758 -270 758 -270 802 -208 c 0,23,24
 824 -177 824 -177 835.5 -130.5 c 128,-1,25
 847 -84 847 -84 847 -20 c 2,26,-1
 847 0 l 1,27,-1
 806 0 l 2,28,29
 600 0 600 0 515 82 c 256,30,31
 430 164 430 164 430 370 c 2,32,-1
 430 979 l 1,33,-1
 131 979 l 1,34,-1
 131 1120 l 1,35,-1
 430 1120 l 1,36,-1
 430 1438 l 1,37,-1
 614 1438 l 1,0,-1
EndSplineSet
EndChar

StartChar: uni01AC
Encoding: 428 428 384
Width: 1368
Flags: W
LayerCount: 2
Fore
SplineSet
455 1326 m 1,0,1
 437 1329 437 1329 418 1329 c 0,2,3
 364 1329 364 1329 323.5 1316.5 c 128,-1,4
 283 1304 283 1304 252 1280 c 1,5,6
 203 1240 203 1240 203 1129 c 2,7,-1
 203 1078 l 1,8,-1
 46 1078 l 1,9,-1
 46 1150 l 2,10,11
 46 1328 46 1328 142 1411 c 0,12,13
 238 1495 238 1495 455 1495 c 2,14,-1
 1186 1495 l 1,15,-1
 1186 1322 l 1,16,-1
 719 1322 l 1,17,-1
 719 0 l 1,18,-1
 516 0 l 1,19,-1
 516 1322 l 1,20,-1
 455 1326 l 1,0,1
EndSplineSet
EndChar

StartChar: uni01AD
Encoding: 429 429 385
Width: 1368
Flags: W
LayerCount: 2
Fore
SplineSet
614 1120 m 1,0,-1
 1032 1120 l 1,1,-1
 1032 979 l 1,2,-1
 614 979 l 1,3,-1
 614 370 l 2,4,5
 614 248 614 248 662 196 c 0,6,7
 709 146 709 146 826 146 c 2,8,-1
 1032 146 l 1,9,-1
 1032 0 l 1,10,-1
 806 0 l 2,11,12
 600 0 600 0 515 82 c 256,13,14
 430 164 430 164 430 370 c 2,15,-1
 430 979 l 1,16,-1
 131 979 l 1,17,-1
 131 1120 l 1,18,-1
 430 1120 l 1,19,-1
 430 1150 l 2,20,21
 430 1344 430 1344 519 1450 c 0,22,23
 609 1556 609 1556 775 1556 c 2,24,-1
 979 1556 l 1,25,-1
 979 1401 l 1,26,-1
 794 1401 l 2,27,28
 704 1401 704 1401 658 1338 c 1,29,30
 614 1276 614 1276 614 1150 c 2,31,-1
 614 1120 l 1,0,-1
EndSplineSet
EndChar

StartChar: uni01AE
Encoding: 430 430 386
Width: 1368
Flags: W
LayerCount: 2
Fore
SplineSet
46 1495 m 1,0,-1
 1186 1495 l 1,1,-1
 1186 1322 l 1,2,-1
 719 1322 l 1,3,-1
 719 -20 l 2,4,5
 719 -83 719 -83 729 -130 c 128,-1,6
 739 -177 739 -177 762 -208 c 0,7,8
 806 -270 806 -270 899 -270 c 2,9,-1
 1082 -270 l 1,10,-1
 1082 -426 l 1,11,-1
 860 -426 l 2,12,13
 776 -426 776 -426 713.5 -398.5 c 128,-1,14
 651 -371 651 -371 606 -317 c 256,15,16
 561 -263 561 -263 538.5 -189.5 c 128,-1,17
 516 -116 516 -116 516 -20 c 2,18,-1
 516 1322 l 1,19,-1
 46 1322 l 1,20,-1
 46 1495 l 1,0,-1
EndSplineSet
EndChar

StartChar: uni01B1
Encoding: 433 433 389
Width: 1368
Flags: W
LayerCount: 2
Fore
SplineSet
1159 1461 m 1,0,-1
 1159 1288 l 1,1,-1
 915 1288 l 1,2,3
 1036 1153 1036 1153 1092 1010 c 1,4,5
 1146 867 1146 867 1146 678 c 0,6,7
 1146 366 1146 366 1002 182 c 1,8,9
 858 0 858 0 618 0 c 0,10,11
 376 0 376 0 233 182 c 0,12,13
 90 363 90 363 88 678 c 1,14,15
 88 867 88 867 142 1010 c 0,16,17
 197 1155 197 1155 323 1288 c 1,18,-1
 74 1288 l 1,19,-1
 74 1461 l 1,20,-1
 538 1461 l 1,21,-1
 538 1288 l 1,22,23
 417 1211 417 1211 350 1047 c 1,24,25
 282 884 282 884 282 662 c 0,26,27
 282 432 282 432 374 298 c 0,28,29
 464 166 464 166 618 166 c 0,30,31
 771 166 771 166 860 298 c 0,32,33
 950 433 950 433 950 662 c 0,34,35
 950 774 950 774 932.5 870 c 128,-1,36
 915 966 915 966 882 1047 c 0,37,38
 813 1214 813 1214 696 1288 c 1,39,-1
 696 1461 l 1,40,-1
 1159 1461 l 1,0,-1
EndSplineSet
EndChar

StartChar: uni01B2
Encoding: 434 434 390
Width: 1368
Flags: W
LayerCount: 2
Fore
SplineSet
506 0 m 0,0,1
 335 0 335 0 244 106 c 1,2,3
 154 208 154 208 154 406 c 2,4,-1
 154 1495 l 1,5,-1
 358 1495 l 1,6,-1
 358 422 l 2,7,8
 358 298 358 298 402 234 c 0,9,10
 446 171 446 171 536 170 c 0,11,12
 689 169 689 169 780 302 c 1,13,14
 870 437 870 437 870 666 c 0,15,16
 870 780 870 780 852.5 875.5 c 128,-1,17
 835 971 835 971 802 1052 c 0,18,19
 767 1136 767 1136 722 1196.5 c 128,-1,20
 677 1257 677 1257 617 1295 c 1,21,-1
 835 1295 l 1,22,23
 955 1161 955 1161 1010 1014 c 0,24,25
 1036 942 1036 942 1051 860 c 128,-1,26
 1066 778 1066 778 1066 682 c 0,27,28
 1067 374 1067 374 922 188 c 0,29,30
 776 0 776 0 506 0 c 0,0,1
EndSplineSet
EndChar

StartChar: uni01B3
Encoding: 435 435 391
Width: 1368
Flags: W
LayerCount: 2
Fore
SplineSet
630 670 m 1,0,-1
 630 0 l 1,1,-1
 446 0 l 1,2,-1
 446 670 l 1,3,-1
 18 1495 l 1,4,-1
 210 1495 l 1,5,-1
 538 835 l 1,6,-1
 738 1235 l 2,7,8
 788 1335 788 1335 839.5 1396 c 128,-1,9
 891 1457 891 1457 946 1479 c 0,10,11
 969 1488 969 1488 991.5 1491.5 c 128,-1,12
 1014 1495 1014 1495 1036 1495 c 0,13,14
 1076 1494 1076 1494 1113.5 1479 c 128,-1,15
 1151 1464 1151 1464 1190 1438 c 2,16,-1
 1219 1419 l 1,17,-1
 1146 1287 l 1,18,-1
 1134 1295 l 1,19,20
 1100 1326 1100 1326 1062 1326 c 0,21,22
 1033 1326 1033 1326 1002 1310 c 0,23,24
 976 1296 976 1296 944 1256 c 128,-1,25
 912 1216 912 1216 874 1141 c 2,26,-1
 630 670 l 1,0,-1
EndSplineSet
EndChar

StartChar: uni01B4
Encoding: 436 436 392
Width: 1368
Flags: W
LayerCount: 2
Fore
SplineSet
622 -105 m 2,0,1
 541 -307 541 -307 470 -366 c 0,2,3
 398 -426 398 -426 272 -426 c 2,4,-1
 125 -426 l 1,5,-1
 125 -272 l 1,6,-1
 234 -272 l 2,7,8
 309 -272 309 -272 350 -236 c 0,9,10
 372 -218 372 -218 394.5 -177 c 128,-1,11
 417 -136 417 -136 444 -67 c 2,12,-1
 478 18 l 1,13,-1
 24 1120 l 1,14,-1
 218 1120 l 1,15,-1
 570 244 l 1,16,-1
 848 942 l 2,17,18
 898 1067 898 1067 979 1111 c 0,19,20
 1020 1133 1020 1133 1074 1133 c 0,21,22
 1119 1133 1119 1133 1178 1112 c 2,23,-1
 1227 1095 l 1,24,-1
 1172 949 l 1,25,-1
 1144 958 l 2,26,27
 1128 963 1128 963 1116.5 967 c 128,-1,28
 1105 971 1105 971 1095 971 c 0,29,30
 1053 972 1053 972 1035 928 c 2,31,-1
 622 -105 l 2,0,1
EndSplineSet
EndChar

StartChar: uni01B5
Encoding: 437 437 393
Width: 1368
Flags: W
LayerCount: 2
Fore
SplineSet
178 1495 m 1,0,-1
 1146 1495 l 1,1,-1
 1146 1338 l 1,2,-1
 753 746 l 1,3,-1
 984 746 l 1,4,-1
 984 579 l 1,5,-1
 719 579 l 1,6,-1
 638 579 l 1,7,-1
 366 170 l 1,8,-1
 1171 170 l 1,9,-1
 1171 0 l 1,10,-1
 155 0 l 1,11,-1
 155 154 l 1,12,-1
 430 579 l 1,13,-1
 250 579 l 1,14,-1
 250 746 l 1,15,-1
 542 746 l 1,16,-1
 915 1322 l 1,17,-1
 178 1322 l 1,18,-1
 178 1495 l 1,0,-1
EndSplineSet
EndChar

StartChar: uni01B6
Encoding: 438 438 394
Width: 1368
Flags: W
LayerCount: 2
Fore
SplineSet
222 1122 m 1,0,-1
 1035 1122 l 1,1,-1
 1035 954 l 1,2,-1
 766 617 l 1,3,-1
 1078 617 l 1,4,-1
 1078 452 l 1,5,-1
 722 452 l 1,6,-1
 634 452 l 1,7,-1
 392 150 l 1,8,-1
 1035 150 l 1,9,-1
 1035 0 l 1,10,-1
 199 0 l 1,11,-1
 199 170 l 1,12,-1
 422 452 l 1,13,-1
 155 452 l 1,14,-1
 155 617 l 1,15,-1
 554 617 l 1,16,-1
 843 975 l 1,17,-1
 222 975 l 1,18,-1
 222 1122 l 1,0,-1
EndSplineSet
EndChar

StartChar: uni01B7
Encoding: 439 439 395
Width: 1368
Flags: W
LayerCount: 2
Fore
SplineSet
229 434 m 1,0,1
 229 291 229 291 328 218 c 1,2,3
 427 143 427 143 617 142 c 0,4,5
 805 142 805 142 907 218 c 0,6,7
 1007 293 1007 293 1006 434 c 0,8,9
 1006 570 1006 570 915 643 c 1,10,11
 821 716 821 716 656 716 c 2,12,-1
 482 716 l 1,13,-1
 482 882 l 1,14,-1
 852 1322 l 1,15,-1
 114 1322 l 1,16,-1
 114 1495 l 1,17,-1
 1084 1495 l 1,18,-1
 1084 1326 l 1,19,-1
 708 884 l 1,20,21
 809 884 809 884 942 828 c 0,22,23
 991 807 991 807 1037.5 770 c 128,-1,24
 1084 733 1084 733 1126 678 c 0,25,26
 1206 576 1206 576 1206 434 c 0,27,28
 1206 216 1206 216 1054 94 c 1,29,30
 905 -27 905 -27 622 -27 c 0,31,32
 328 -26 328 -26 177 93 c 128,-1,33
 26 212 26 212 26 434 c 1,34,-1
 229 434 l 1,0,1
EndSplineSet
EndChar

StartChar: uni01B8
Encoding: 440 440 396
Width: 1368
Flags: W
LayerCount: 2
Fore
SplineSet
1206 434 m 1,0,1
 1206 324 1206 324 1167.5 238 c 128,-1,2
 1129 152 1129 152 1054 93 c 128,-1,3
 979 34 979 34 867.5 3.5 c 128,-1,4
 756 -27 756 -27 610 -27 c 0,5,6
 327 -27 327 -27 178 94 c 1,7,8
 26 216 26 216 26 434 c 0,9,10
 26 572 26 572 108 678 c 1,11,12
 193 786 193 786 293 828 c 0,13,14
 426 884 426 884 527 884 c 1,15,-1
 150 1326 l 1,16,-1
 150 1495 l 1,17,-1
 1118 1495 l 1,18,-1
 1118 1322 l 1,19,-1
 381 1322 l 1,20,-1
 753 882 l 1,21,-1
 753 716 l 1,22,-1
 579 716 l 2,23,24
 495 716 495 716 430 698.5 c 128,-1,25
 365 681 365 681 317 643 c 0,26,27
 270 607 270 607 249 554.5 c 128,-1,28
 228 502 228 502 229 434 c 0,29,30
 231 290 231 290 328 218 c 1,31,32
 427 143 427 143 617 142 c 0,33,34
 805 142 805 142 907 218 c 0,35,36
 1007 293 1007 293 1006 434 c 1,37,-1
 1206 434 l 1,0,1
EndSplineSet
EndChar

StartChar: uni01B9
Encoding: 441 441 397
Width: 1368
Flags: W
LayerCount: 2
Fore
SplineSet
214 952 m 1,0,-1
 214 1120 l 1,1,-1
 1086 1120 l 1,2,-1
 1086 975 l 1,3,-1
 421 975 l 1,4,-1
 851 474 l 1,5,-1
 851 308 l 1,6,-1
 677 308 l 2,7,8
 512 308 512 308 418 234 c 1,9,10
 327 161 327 161 327 26 c 0,11,12
 327 -116 327 -116 426 -189 c 0,13,14
 475 -226 475 -226 547 -246 c 128,-1,15
 619 -266 619 -266 715 -267 c 0,16,17
 826 -269 826 -269 923.5 -243 c 128,-1,18
 1021 -217 1021 -217 1108 -166 c 1,19,-1
 1108 -362 l 1,20,21
 1054 -381 1054 -381 1003.5 -395 c 128,-1,22
 953 -409 953 -409 903 -418 c 0,23,24
 805 -436 805 -436 711 -436 c 0,25,26
 430 -436 430 -436 278 -314 c 0,27,28
 127 -193 127 -193 125 26 c 1,29,30
 125 163 125 163 206 270 c 1,31,32
 289 377 289 377 391 421 c 0,33,34
 524 477 524 477 625 476 c 1,35,-1
 214 952 l 1,0,-1
EndSplineSet
EndChar

StartChar: uni01BA
Encoding: 442 442 398
Width: 1368
Flags: W
LayerCount: 2
Fore
SplineSet
698 -274 m 0,0,1
 782 -274 782 -274 860 -253 c 0,2,3
 899 -243 899 -243 938.5 -227 c 128,-1,4
 978 -211 978 -211 1020 -188 c 1,5,-1
 1020 -366 l 1,6,7
 977 -381 977 -381 935.5 -392.5 c 128,-1,8
 894 -404 894 -404 854 -412 c 0,9,10
 812 -420 812 -420 765.5 -423 c 128,-1,11
 719 -426 719 -426 670 -426 c 0,12,13
 190 -426 190 -426 189 -146 c 0,14,15
 189 92 189 92 596 146 c 0,16,17
 881 184 881 184 881 282 c 0,18,19
 882 406 882 406 647 406 c 2,20,-1
 354 406 l 1,21,-1
 840 975 l 1,22,-1
 174 975 l 1,23,-1
 174 1120 l 1,24,-1
 1047 1120 l 1,25,-1
 1047 952 l 1,26,-1
 694 540 l 1,27,28
 1061 540 1061 540 1061 310 c 0,29,30
 1062 36 1062 36 596 -14 c 0,31,32
 371 -38 371 -38 370 -135 c 0,33,34
 369 -274 369 -274 698 -274 c 0,0,1
EndSplineSet
EndChar

StartChar: uni01BB
Encoding: 443 443 399
Width: 1368
Flags: W
LayerCount: 2
Fore
SplineSet
165 1423 m 1,0,1
 375 1521 375 1521 562 1521 c 0,2,3
 778 1521 778 1521 915 1402 c 0,4,5
 1050 1285 1050 1285 1050 1099 c 0,6,7
 1050 1004 1050 1004 1005 907 c 0,8,9
 987 869 987 869 962 830 c 128,-1,10
 937 791 937 791 904 746 c 1,11,-1
 984 746 l 1,12,-1
 984 579 l 1,13,-1
 754 579 l 1,14,-1
 698 515 l 1,15,-1
 374 170 l 1,16,-1
 1058 170 l 1,17,-1
 1058 0 l 1,18,-1
 152 0 l 1,19,-1
 152 170 l 1,20,-1
 534 579 l 1,21,-1
 250 579 l 1,22,-1
 250 746 l 1,23,-1
 686 746 l 1,24,25
 739 812 739 812 772 866 c 128,-1,26
 805 920 805 920 820 963 c 0,27,28
 831 992 831 992 837 1021.5 c 128,-1,29
 843 1051 843 1051 843 1082 c 0,30,31
 844 1267 844 1267 692 1329 c 0,32,33
 639 1351 639 1351 566 1351 c 0,34,35
 384 1351 384 1351 165 1219 c 1,36,-1
 165 1423 l 1,0,1
EndSplineSet
EndChar

StartChar: uni01BC
Encoding: 444 444 400
Width: 1368
Flags: W
LayerCount: 2
Fore
SplineSet
617 142 m 0,0,1
 931 142 931 142 994 342 c 0,2,3
 1006 382 1006 382 1006 434 c 0,4,5
 1005 502 1005 502 983 554 c 128,-1,6
 961 606 961 606 915 643 c 1,7,8
 821 716 821 716 656 716 c 2,9,-1
 214 716 l 1,10,-1
 214 1495 l 1,11,-1
 1138 1495 l 1,12,-1
 1138 1322 l 1,13,-1
 418 1322 l 1,14,-1
 418 884 l 1,15,-1
 708 884 l 2,16,17
 809 884 809 884 942 828 c 1,18,19
 1041 785 1041 785 1126 678 c 1,20,21
 1206 575 1206 575 1206 434 c 0,22,23
 1206 216 1206 216 1054 94 c 1,24,25
 905 -27 905 -27 622 -27 c 1,26,27
 190 -25 190 -25 71 229 c 0,28,29
 48 277 48 277 37.5 327.5 c 128,-1,30
 27 378 27 378 26 434 c 1,31,-1
 229 434 l 1,32,33
 229 251 229 251 387 182 c 0,34,35
 435 161 435 161 491.5 151.5 c 128,-1,36
 548 142 548 142 617 142 c 0,0,1
EndSplineSet
EndChar

StartChar: uni01BD
Encoding: 445 445 401
Width: 1368
Flags: W
LayerCount: 2
Fore
SplineSet
519 -267 m 0,0,1
 831 -267 831 -267 892 -71 c 0,2,3
 907 -25 907 -25 907 26 c 0,4,5
 908 159 908 159 814 234 c 1,6,7
 719 308 719 308 558 308 c 2,8,-1
 259 308 l 1,9,-1
 259 1120 l 1,10,-1
 1010 1120 l 1,11,-1
 1010 937 l 1,12,-1
 442 937 l 1,13,-1
 442 474 l 1,14,-1
 610 476 l 2,15,16
 713 477 713 477 843 421 c 0,17,18
 943 378 943 378 1027 270 c 0,19,20
 1108 167 1108 167 1108 26 c 1,21,22
 1106 -193 1106 -193 956 -314 c 0,23,24
 805 -436 805 -436 524 -436 c 0,25,26
 339 -436 339 -436 125 -362 c 1,27,-1
 125 -166 l 1,28,29
 297 -267 297 -267 519 -267 c 0,0,1
EndSplineSet
EndChar

StartChar: uni01BE
Encoding: 446 446 402
Width: 1368
Flags: W
LayerCount: 2
Fore
SplineSet
847 438 m 0,0,1
 848 551 848 551 771 632 c 0,2,3
 681 726 681 726 510 726 c 2,4,-1
 446 726 l 1,5,-1
 446 998 l 1,6,-1
 218 998 l 1,7,-1
 218 1163 l 1,8,-1
 446 1163 l 1,9,-1
 446 1438 l 1,10,-1
 651 1438 l 1,11,-1
 651 1163 l 1,12,-1
 881 1163 l 1,13,-1
 881 998 l 1,14,-1
 651 998 l 1,15,-1
 651 874 l 1,16,17
 815 844 815 844 922 734 c 1,18,19
 1039 612 1039 612 1039 438 c 0,20,21
 1040 257 1040 257 930 128 c 1,22,23
 792 -30 792 -30 519 -30 c 0,24,25
 345 -30 345 -30 195 42 c 1,26,-1
 195 214 l 1,27,28
 274 171 274 171 352.5 148.5 c 128,-1,29
 431 126 431 126 510 125 c 0,30,31
 600 124 600 124 668 154 c 128,-1,32
 736 184 736 184 787 242 c 0,33,34
 815 275 815 275 830.5 323.5 c 128,-1,35
 846 372 846 372 847 438 c 0,0,1
EndSplineSet
EndChar

StartChar: uni01BF
Encoding: 447 447 403
Width: 1368
Flags: W
LayerCount: 2
Fore
SplineSet
310 -426 m 1,0,-1
 125 -426 l 1,1,-1
 125 1120 l 1,2,-1
 310 1120 l 1,3,-1
 310 950 l 1,4,5
 362 1017 362 1017 498 1099 c 0,6,7
 577 1147 577 1147 788 1146 c 0,8,9
 973 1146 973 1146 1050 1035 c 0,10,11
 1089 978 1089 978 1107.5 912 c 128,-1,12
 1126 846 1126 846 1126 771 c 0,13,14
 1124 344 1124 344 310 -122 c 1,15,-1
 310 -426 l 1,0,-1
310 60 m 1,16,17
 935 462 935 462 937 711 c 0,18,19
 937 779 937 779 921.5 827.5 c 128,-1,20
 906 876 906 876 878 908 c 0,21,22
 849 941 849 941 805.5 958 c 128,-1,23
 762 975 762 975 702 975 c 0,24,25
 482 975 482 975 310 734 c 1,26,-1
 310 60 l 1,16,17
EndSplineSet
EndChar

